<svg viewBox="0 0 1000 561.2" width="100%" xmlns="http://www.w3.org/2000/svg" role="img" aria-label="Project 001 pilot land">
  <defs><clipPath id="land"><path d="M96.8 373.9L248.2 368.5L407.5 424.5L446.9 449.4L557.5 464.4L592.5 440.6L636.4 439.1L670.4 400.7L752.3 349.0L783.4 252.6L833.1 181.0L873.5 141.6L903.2 125.5L900.8 110.9L788.3 134.8L643.2 127.0L620.8 140.6L599.8 128.4L515.1 118.7L416.2 159.1L308.6 140.1L172.3 147.4L128.4 101.6L99.7 96.8L100.2 306.7Z" /></clipPath></defs>
  <g opacity="0.5" clip-path="url(#land)">
    <path d="M91.9 49.0L104.1 80.2L91.9 127.0L71.9 80.2L91.9 49.0" fill="none" stroke="#D6FE51" stroke-opacity="0.4" stroke-width="1.1" stroke-linejoin="round" />
    <path d="M3607.0 1315.7L3592.4 1315.7L3562.2 1338.6L3501.8 1405.8L3445.8 1448.7L3411.7 1490.5L3382.0 1499.8L3322.1 1462.3L3262.2 1464.2L3232.0 1452.1L3172.6 1408.2L3142.4 1418.0L3112.2 1439.4L3082.5 1429.2L3057.7 1400.0L3085.4 1306.9L3081.5 1260.7L3061.1 1213.9L3023.6 1164.3L2993.9 1152.1L2963.7 1153.5L2945.2 1166.7L2924.7 1212.9L2912.5 1259.7L2908.6 1352.7L2959.3 1493.0L2954.9 1539.2L2941.3 1586.0L2916.9 1632.2L2911.1 1679.0L2918.4 1725.3L2901.3 1775.9L2871.6 1800.7L2774.2 1724.8L2722.1 1699.0L2602.8 1600.1L2572.6 1589.4L2542.9 1582.1L2512.7 1585.5L2448.0 1629.8L2422.6 1659.0L2392.9 1652.7L2380.3 1629.3L2303.3 1559.2L2213.7 1503.7L2183.5 1477.9L2153.8 1446.7L2064.7 1329.3L1855.3 1190.1L1765.7 1164.3L1735.5 1161.3L1645.9 1166.7L1586.0 1181.3L1436.0 1170.1L1406.3 1159.9L1388.3 1111.7L1287.0 943.2L1257.3 908.1L1227.6 899.8L1197.4 909.6L1137.5 954.4L1107.3 996.7L1077.1 1007.4L1017.2 997.2L987.5 1004.0L927.1 1039.6L837.5 1047.4L777.6 1040.1L717.7 1048.8L687.5 1038.1L597.9 980.7L568.2 969.9L538.0 978.2L508.3 970.4L443.5 920.8L358.8 896.9L328.6 880.8L239.0 849.7L209.3 847.7L148.9 874.5L119.2 837.5L101.6 779.0L89.5 758.1L34.4 685.5L11.1 638.8L1.3 499.0L-12.3 452.3L-33.7 312.5L-37.6 265.8L-29.8 172.7L-33.7 126.0L-64.9 33.0L-58.6 -60.0L-39.1 -153.5L-42.0 -199.8L-71.7 -246.6L-86.3 -259.7L-235.8 -362.5L-325.4 -445.2L-385.3 -492.0L-415.0 -504.7L-475.4 -483.7L-505.1 -483.7L-565.0 -509.5L-654.6 -613.3L-717.5 -669.3L-709.7 -762.3L-723.3 -809.0L-743.8 -845.5L-803.2 -905.4L-833.4 -898.6L-863.1 -883.5L-923.5 -873.8L-953.2 -891.8L-955.6 -903.5L-920.1 -949.8L-915.2 -996.0L-920.5 -1042.8L-943.4 -1136.3L-922.5 -1163.1L-892.3 -1178.6L-772.5 -1163.1L-742.3 -1168.9L-712.6 -1185.0L-682.4 -1185.5L-652.7 -1199.6L-562.6 -1206.4L-498.8 -1227.3L-520.7 -1320.4L-562.1 -1410.9L-591.8 -1443.1L-621.5 -1458.2L-651.7 -1449.4L-741.8 -1400.2L-771.5 -1398.3L-831.4 -1417.3L-861.6 -1420.2L-951.2 -1394.9L-1041.3 -1426.0L-1161.1 -1448.4L-1190.8 -1466.0L-1220.5 -1495.2L-1235.6 -1495.7" fill="none" stroke="#D6FE51" stroke-opacity="0.2" stroke-width="0.7" stroke-linejoin="round" />
    <path d="M-1232.2 -2504.7L-1217.1 -2504.7L-1187.4 -2486.2L-1127.5 -2470.6L-1085.1 -2441.4L-1008.2 -2318.7L-959.5 -2254.4L-933.7 -2160.9L-884.0 -2067.9L-834.3 -2020.6L-799.8 -2000.2L-769.6 -1991.9L-739.9 -1997.3L-713.6 -2020.2L-683.4 -2066.9L-619.6 -2115.6L-529.0 -2229.1L-499.3 -2240.3L-476.9 -2159.0L-475.4 -2112.2L-447.7 -1972.4L-427.7 -1925.7L-406.8 -1832.2L-365.9 -1739.2L-315.2 -1645.7L-276.7 -1598.9L-216.8 -1551.7L-174.0 -1458.7L-123.3 -1411.9L-89.3 -1364.7L-75.6 -1271.7L-50.8 -1178.2L-51.3 -1131.9L-100.5 -1038.9L-114.1 -984.3L-144.3 -948.8L-233.9 -906.9L-266.0 -853.3L-266.5 -806.6L-255.3 -759.8L-253.4 -713.6L-237.3 -666.8L-175.5 -586.5L-115.6 -545.6L-55.7 -519.3L93.9 -490.5L126.0 -478.8L138.7 -432.1L143.0 -385.3L161.1 -338.6L164.0 -292.3L142.1 -198.8L146.4 -152.6L134.8 -59.1L139.6 -12.8L136.7 80.7L155.2 220.5L152.8 266.7L113.8 313.5L106.0 359.7L139.1 453.2L163.0 500.0L180.0 570.1L209.8 601.3L264.8 687.0L209.8 729.4L179.6 728.9L149.9 709.4L120.1 645.1L90.0 598.4L63.2 499.5L48.1 359.7L61.2 318.8L68.5 313.0L66.6 266.7L46.6 220.0L47.1 126.5L21.8 33.5L24.7 -13.3L50.0 -106.3L54.9 -199.3L38.8 -292.8L21.3 -339.6L3.8 -360.0L-56.1 -384.4L-149.2 -386.8L-205.6 -446.7L-295.3 -513.9L-384.9 -619.1L-415.0 -632.7L-474.9 -614.2L-508.6 -621.5L-549.5 -668.3L-575.8 -715.0L-591.3 -761.8L-597.2 -808.5L-593.8 -860.6L-563.6 -884.0L-511.5 -901.1L-451.1 -947.3L-428.2 -1040.3L-383.4 -1044.2L-323.5 -1068.6L-269.9 -1132.9L-240.7 -1179.1L-248.0 -1272.6L-285.0 -1319.4L-352.2 -1372.5L-412.1 -1395.8L-472.0 -1429.9L-531.4 -1521.5L-561.6 -1555.6L-591.3 -1564.3L-651.2 -1567.3L-801.2 -1525.9L-921.0 -1510.8L-980.9 -1530.3L-1011.1 -1532.7L-1100.7 -1577.0L-1160.6 -1594.5L-1220.5 -1626.7L-1235.1 -1626.7" fill="none" stroke="#D6FE51" stroke-opacity="0.2" stroke-width="0.7" stroke-linejoin="round" />
    <path d="M-1232.2 -2531.5L-1217.1 -2531.5L-1187.4 -2510.1L-1105.1 -2488.2L-1067.6 -2464.8L-1043.8 -2440.9L-906.4 -2253.9L-873.8 -2160.9L-819.2 -2067.4L-799.3 -2051.8L-769.6 -2044.0L-709.2 -2098.1L-679.5 -2108.3L-619.1 -2154.6L-498.8 -2345.5L-468.6 -2333.3L-452.5 -2252.0L-451.6 -2112.2L-363.4 -1832.2L-316.2 -1738.7L-283.1 -1645.2L-261.6 -1619.4L-184.7 -1551.7L-172.0 -1504.9L-142.3 -1458.2L-82.4 -1395.8L-69.8 -1364.7L-59.5 -1271.7L-14.7 -1178.2L-3.5 -1131.4L-24.0 -1085.1L-68.8 -1038.9L-86.8 -992.1L-114.1 -945.9L-204.2 -882.1L-234.4 -853.3L-234.4 -806.6L-215.9 -713.1L-169.1 -620.1L-85.4 -557.3L64.1 -514.4L93.9 -515.4L124.0 -507.1L153.8 -478.4L194.7 -338.6L160.6 -105.8L167.4 -12.3L159.1 34.0L161.1 80.7L177.6 127.5L177.6 173.7L175.2 267.2L154.2 313.5L150.8 360.2L154.7 406.5L170.3 453.2L269.7 640.3L299.4 676.8L329.6 701.1L419.2 712.3L479.1 697.7L509.3 695.3L539.0 701.6L598.9 735.2L688.5 814.6L718.2 852.1L778.1 902.3L867.7 914.9L882.8 922.7L838.0 941.2L778.1 950.5L717.7 968.5L672.9 968.5L657.8 963.1L598.4 893.5L538.5 864.3L508.8 862.8L478.6 833.6L418.7 820.0L358.8 827.3L329.1 816.5L269.2 762.5L239.5 754.2L179.6 760.1L149.4 749.8L90.0 662.7L58.3 592.5L43.2 499.5L16.4 266.2L27.6 126.5L-0.6 33.0L-6.5 -13.3L-8.4 -60.0L30.1 -153.1L30.5 -199.8L16.9 -292.8L3.3 -318.6L-26.4 -343.9L-86.3 -358.1L-146.2 -363.4L-194.0 -386.8L-231.0 -434.0L-295.3 -484.7L-384.9 -589.9L-415.0 -600.1L-474.9 -579.7L-504.7 -584.0L-564.6 -622.0L-628.4 -715.5L-641.5 -855.3L-623.5 -948.3L-653.2 -995.1L-683.4 -1006.7L-728.2 -1041.8L-713.1 -1053.5L-690.2 -1088.6L-652.7 -1103.7L-563.1 -1115.8L-503.2 -1116.3L-353.2 -1094.4L-323.5 -1110.0L-275.8 -1179.6L-287.0 -1272.6L-352.2 -1338.4L-382.4 -1356.9L-442.3 -1372.0L-502.2 -1413.4L-545.1 -1506.9L-561.6 -1526.4L-651.2 -1542.4L-681.4 -1537.6L-741.3 -1511.7L-801.2 -1497.6L-921.0 -1486.9L-1011.1 -1498.6L-1100.7 -1540.5L-1160.6 -1552.2L-1220.5 -1594.0L-1235.6 -1594.0" fill="none" stroke="#D6FE51" stroke-opacity="0.4" stroke-width="1.1" stroke-linejoin="round" />
    <path d="M-333.2 -2600.7L-346.9 -2484.3L-405.3 -2438.0L-426.3 -2391.7L-434.5 -2298.2L-428.7 -2252.0L-431.1 -2112.2L-420.9 -2065.5L-368.8 -1971.9L-333.7 -1832.2L-282.6 -1738.7L-251.9 -1645.2L-201.7 -1600.4L-172.0 -1586.7L-144.8 -1551.7L-134.5 -1504.9L-110.2 -1458.2L-69.3 -1411.4L-53.7 -1364.7L-51.8 -1317.9L-42.0 -1271.7L-23.0 -1236.6L36.4 -1157.7L75.3 -1130.9L114.8 -1084.2L95.8 -1045.7L80.7 -1037.9L-24.0 -1018.9L-54.2 -996.5L-80.5 -945.4L-138.0 -899.1L-179.3 -852.9L-202.2 -806.6L-198.8 -759.8L-185.7 -713.1L-145.3 -646.9L-85.4 -590.9L-59.1 -572.8L-25.5 -561.6L64.1 -537.3L94.3 -539.2L124.0 -533.4L153.8 -517.3L176.2 -478.4L219.0 -338.6L200.5 -245.1L177.1 -59.1L185.9 -12.3L176.2 34.0L182.0 72.9L215.6 127.5L214.6 174.2L194.7 220.5L173.2 360.2L197.6 453.7L270.1 590.6L302.8 640.3L329.6 663.6L389.5 686.0L419.2 689.0L509.3 677.8L556.5 688.5L688.5 780.0L778.1 859.4L838.0 867.2L928.1 860.4L957.8 843.8L988.0 815.1L1018.2 804.4L1105.3 737.6L1197.9 723.0L1237.3 691.9L1258.2 682.1L1287.9 675.8L1347.8 685.5L1378.0 704.0L1402.9 739.1L1413.6 785.9L1402.9 832.1L1411.2 878.9L1430.6 925.6L1466.7 974.3L1586.0 1072.2L1646.4 1054.7L1736.0 1059.1L1826.1 1042.0L1886.0 1065.9L1915.7 1096.6L1970.2 1114.6L2005.3 1144.3L2113.4 1208.6L2179.6 1302.1L2214.2 1325.9L2303.8 1407.7L2333.5 1426.7L2423.6 1455.0L2483.5 1464.2L2543.4 1457.9L2588.2 1444.3L2603.3 1420.9L2607.2 1397.5L2596.0 1351.3L2551.7 1257.8L2534.1 1164.3L2533.2 1118.0L2544.9 1082.9L2575.1 1028.9L2604.8 1001.6L2665.1 964.6L2725.0 960.7L2754.8 969.0L2844.8 894.5L2904.7 876.0L2967.1 887.2L3087.9 981.1L3114.1 1013.8L3188.7 1074.6L3263.7 1102.4L3293.4 1136.0L3352.8 1238.8L3382.5 1259.7L3412.7 1270.9L3435.1 1262.1L3457.5 1262.6L3472.6 1270.4L3497.4 1309.4L3447.2 1355.6L3382.0 1387.8L3352.3 1369.3L3322.6 1331.8L3262.7 1325.4L3202.8 1302.1L3173.1 1278.2L3143.4 1206.6L3072.3 1120.4L3053.8 1100.9L2993.9 1076.1L2964.2 1076.1L2934.0 1089.7L2903.8 1127.7L2843.9 1169.1L2813.7 1183.2L2784.0 1189.1L2754.3 1159.9L2724.1 1159.4L2716.8 1165.2L2701.7 1212.0L2723.6 1235.4L2753.8 1235.4L2783.5 1247.0L2791.3 1258.7L2808.3 1305.5L2805.9 1352.2L2835.6 1399.0L2863.8 1492.5L2859.9 1585.5L2841.9 1637.6L2812.2 1675.1L2782.0 1675.6L2752.3 1667.3L2694.9 1631.3L2653.5 1584.5L2633.0 1547.5L2602.8 1517.8L2542.9 1517.8L2483.0 1538.7L2453.3 1531.0L2392.9 1556.8L2363.2 1538.7L2333.5 1507.6L2273.6 1486.2L2213.7 1455.0L2155.8 1395.1L2124.6 1343.0L2064.7 1276.3L1943.4 1208.1L1885.5 1125.8L1855.8 1121.9L1825.6 1127.7L1790.5 1114.1L1765.7 1090.2L1736.0 1084.4L1705.8 1096.1L1694.6 1113.6L1676.1 1120.9L1555.8 1133.6L1436.5 1114.1L1366.4 1018.6L1324.5 925.1L1314.7 878.4L1287.5 835.5L1257.8 833.6L1227.6 841.9L1197.4 861.3L1137.5 884.7L1077.6 944.6L987.5 962.2L927.6 967.0L837.5 990.4L717.7 1000.6L688.0 996.7L657.8 983.6L633.4 968.0L598.4 926.6L568.2 909.6L508.3 899.8L448.9 852.6L358.8 848.7L298.9 828.2L269.2 801.0L239.5 786.8L179.6 790.2L149.4 782.5L79.2 686.0L56.4 639.3L42.2 592.5L10.1 359.3L-2.1 313.0L-6.5 266.2L-1.1 173.2L11.6 126.5L-23.0 33.0L-31.8 -60.0L7.7 -153.1L12.0 -199.8L7.2 -246.1L-7.4 -292.8L-26.4 -312.3L-146.2 -341.5L-206.1 -375.1L-235.8 -412.1L-295.7 -461.8L-385.3 -558.2L-415.0 -568.0L-474.9 -544.6L-505.1 -546.5L-564.6 -578.2L-636.6 -668.8L-660.0 -715.5L-662.4 -762.3L-680.9 -855.3L-683.4 -909.8L-720.9 -948.8L-803.2 -987.7L-835.8 -996.0L-828.0 -1042.3L-797.8 -1089.0L-772.5 -1099.3L-712.6 -1106.1L-682.9 -1128.0L-592.8 -1136.8L-562.6 -1147.0L-532.9 -1140.2L-473.0 -1160.1L-442.8 -1157.2L-382.9 -1166.0L-353.2 -1162.6L-323.0 -1173.8L-323.0 -1203.0L-341.5 -1273.1L-382.4 -1322.3L-442.3 -1336.4L-472.0 -1352.0L-502.2 -1381.7L-522.2 -1413.9L-561.6 -1494.2L-591.3 -1504.9L-681.4 -1512.7L-711.6 -1491.3L-741.3 -1480.6L-891.3 -1463.5L-951.2 -1464.0L-1011.1 -1471.3L-1130.9 -1516.1L-1160.6 -1520.5L-1220.5 -1559.0L-1235.6 -1559.0" fill="none" stroke="#D6FE51" stroke-opacity="0.2" stroke-width="0.7" stroke-linejoin="round" />
    <path d="M-301.1 -2600.7L-301.1 -2577.3L-322.0 -2484.3L-378.5 -2422.4L-396.5 -2391.2L-412.1 -2298.2L-406.3 -2251.5L-409.7 -2100.5L-398.5 -2065.5L-366.8 -2018.7L-325.0 -1925.2L-306.0 -1831.7L-261.2 -1745.0L-219.8 -1645.2L-129.7 -1597.9L-112.1 -1562.9L-103.4 -1504.9L-47.4 -1411.4L-36.7 -1364.7L-35.7 -1317.9L-23.0 -1271.2L36.4 -1196.7L161.1 -1084.2L161.1 -1037.4L155.7 -1033.5L5.7 -980.0L-54.2 -922.0L-114.6 -886.0L-164.7 -806.1L-168.6 -759.8L-144.8 -713.1L-65.4 -619.6L-25.5 -591.3L24.2 -572.3L64.1 -562.1L124.0 -558.7L154.2 -546.5L176.6 -525.1L202.5 -478.4L236.5 -338.1L212.7 -198.8L190.8 34.0L211.7 93.4L258.9 127.5L271.6 174.2L241.4 191.7L211.2 239.5L197.6 360.2L210.7 422.6L270.1 547.2L342.7 640.7L359.7 653.9L419.6 671.4L509.3 663.6L539.4 666.1L569.2 677.3L658.8 735.2L689.0 748.4L778.6 823.8L868.2 842.8L928.1 838.5L1018.2 783.9L1078.1 730.3L1108.2 719.1L1168.1 710.9L1258.2 661.7L1287.9 653.9L1347.8 665.1L1396.5 692.4L1427.7 739.1L1431.6 878.9L1450.6 925.6L1496.9 983.1L1586.5 1044.5L1616.2 1044.5L1646.4 1029.8L1676.1 1036.2L1706.3 1033.7L1766.2 1015.2L1826.1 1014.7L1848.5 1021.1L1945.4 1083.4L2100.2 1162.3L2184.5 1244.1L2274.1 1349.3L2363.7 1410.7L2393.4 1421.4L2483.5 1432.1L2513.2 1428.2L2543.4 1422.4L2573.6 1397.5L2573.6 1350.8L2534.1 1257.8L2530.3 1211.0L2516.6 1164.3L2514.7 1117.5L2544.9 1024.5L2575.1 978.2L2635.0 912.0L2665.1 905.7L2694.9 918.8L2754.8 922.2L2815.1 879.4L2875.0 858.9L2934.9 859.9L2964.6 867.7L3004.6 887.2L3114.1 964.1L3144.3 972.9L3233.9 972.4L3264.1 935.4L3294.3 919.8L3304.1 935.4L3271.4 982.1L3273.9 1028.4L3293.4 1059.5L3336.2 1168.6L3383.0 1224.6L3412.7 1240.7L3472.6 1240.7L3502.8 1232.9L3562.7 1204.2L3607.5 1195.4" fill="none" stroke="#D6FE51" stroke-opacity="0.4" stroke-width="1.1" stroke-linejoin="round" />
    <path d="M-269.0 -2600.7L-269.0 -2577.3L-299.1 -2484.3L-318.6 -2450.7L-373.7 -2391.2L-387.3 -2298.2L-388.3 -2111.7L-296.2 -1925.2L-277.7 -1831.7L-201.3 -1671.0L-174.5 -1644.7L-111.7 -1616.9L-95.1 -1597.9L-80.5 -1504.4L-26.9 -1411.4L-17.7 -1364.7L-17.2 -1317.9L1.8 -1271.2L87.0 -1177.7L156.2 -1117.3L204.9 -1083.7L196.6 -1037.4L185.9 -1025.7L129.4 -991.2L95.8 -989.7L65.6 -974.1L5.7 -933.7L-24.5 -895.2L-99.5 -852.4L-123.8 -806.1L-127.2 -759.4L-100.0 -712.6L-25.5 -627.9L34.4 -597.7L124.0 -586.5L159.1 -571.9L183.9 -556.8L214.1 -520.2L239.0 -431.6L250.7 -338.1L203.9 34.4L211.7 57.8L241.9 94.3L271.6 112.8L316.4 127.9L334.9 174.7L241.4 237.5L226.3 267.2L222.4 360.2L234.1 407.0L272.1 500.5L299.8 549.7L359.7 622.7L380.7 640.7L419.6 653.9L539.4 650.5L599.3 671.4L658.8 708.4L689.0 718.2L808.3 801.9L868.2 817.0L928.1 803.9L958.3 785.4L988.0 776.6L1078.1 711.8L1168.1 692.4L1258.2 641.2L1288.4 634.9L1351.7 645.6L1407.7 676.3L1437.9 713.3L1451.1 739.6L1456.0 785.9L1452.1 879.4L1468.1 925.6L1506.1 972.9L1526.6 988.4L1586.5 1021.1L1616.2 1025.9L1646.4 1013.3L1676.1 1019.1L1766.2 995.8L1826.1 998.7L1886.0 1017.7L1975.6 1081.0L2061.8 1115.1L2125.1 1151.6L2185.0 1201.3L2244.4 1279.2L2304.3 1339.1L2393.9 1398.0L2423.6 1395.1L2483.5 1410.2L2543.4 1393.6L2556.5 1350.8L2519.1 1257.3L2503.5 1164.3L2501.5 1117.5L2508.8 1071.2L2524.4 1024.5L2575.1 934.4L2635.4 867.2L2665.1 859.4L2725.0 883.3L2755.2 884.2L2815.1 852.1L2875.0 834.1L2934.9 841.4L2994.8 857.9L3114.1 932.9L3174.0 944.6L3204.2 932.0L3243.2 888.6L3264.1 874.0L3354.2 865.7L3383.9 881.8L3383.9 900.8L3372.7 935.9L3353.7 959.2L3320.6 982.1L3341.6 1121.9L3364.0 1168.6L3412.7 1212.9L3442.9 1219.8L3472.6 1217.3L3592.9 1164.7L3608.0 1164.7" fill="none" stroke="#D6FE51" stroke-opacity="0.2" stroke-width="0.7" stroke-linejoin="round" />
    <path d="M-233.4 -2600.2L-233.4 -2576.8L-258.2 -2543.7L-288.4 -2460.9L-318.6 -2416.6L-348.8 -2391.2L-361.0 -2344.5L-370.2 -2204.7L-361.0 -2111.7L-286.0 -1971.5L-268.0 -1924.7L-233.9 -1784.9L-201.3 -1714.8L-171.6 -1677.3L-101.9 -1644.7L-82.0 -1629.1L-69.8 -1597.9L-58.1 -1504.4L-25.9 -1457.7L-2.6 -1410.9L11.1 -1317.9L32.5 -1271.2L121.1 -1177.7L156.2 -1149.4L265.8 -1083.7L233.6 -1037.4L185.4 -990.7L155.7 -977.5L95.8 -964.9L65.6 -944.9L5.2 -870.4L-54.7 -829.0L-77.1 -805.6L-84.9 -759.4L-66.4 -712.6L-17.7 -665.8L34.4 -632.2L124.5 -618.6L184.4 -594.7L214.1 -571.4L243.8 -524.6L267.7 -291.4L262.8 -245.1L248.7 -198.3L239.5 -58.6L223.4 34.4L259.9 81.2L331.5 102.6L376.3 128.4L391.4 151.8L436.2 175.2L361.2 201.5L271.1 248.7L254.1 267.2L240.9 314.0L247.3 360.7L296.9 500.5L389.5 613.0L419.6 632.5L539.4 634.9L599.3 648.0L689.0 689.0L718.7 712.3L868.2 790.2L898.4 786.8L1078.5 693.3L1168.1 669.5L1258.2 620.8L1318.1 621.3L1378.0 635.4L1408.2 649.5L1437.9 675.8L1467.6 727.9L1476.4 786.3L1472.5 879.4L1485.2 926.1L1526.6 972.9L1586.5 1003.5L1616.2 1009.4L1646.4 1002.1L1676.1 1003.1L1706.3 989.9L1766.2 976.8L1826.1 982.6L1886.0 1000.1L1924.4 1021.6L1975.6 1062.0L2065.2 1088.3L2155.3 1138.9L2185.0 1162.3L2304.3 1306.9L2393.9 1369.3L2483.5 1385.3L2513.7 1371.2L2533.7 1350.8L2502.5 1257.3L2491.3 1164.3L2488.4 1117.5L2506.4 1024.5L2522.5 977.7L2551.7 931.5L2635.4 828.2L2665.6 818.0L2755.2 855.0L2815.1 820.9L2875.0 804.9L3025.0 844.8L3114.6 908.1L3144.3 913.0L3174.5 909.1L3204.2 888.6L3234.4 857.4L3264.6 842.4L3324.5 842.4L3444.3 787.8L3481.3 750.3L3491.1 703.6L3481.3 656.8L3373.7 423.5L3385.9 376.8L3505.2 540.4L3534.9 563.8L3594.8 634.4L3609.9 634.4" fill="none" stroke="#D6FE51" stroke-opacity="0.4" stroke-width="1.1" stroke-linejoin="round" />
    <path d="M-175.9 -2600.2L-175.9 -2576.8L-198.3 -2570.0L-228.5 -2549.5L-242.2 -2530.5L-279.2 -2437.5L-313.8 -2391.2L-337.1 -2344.5L-347.4 -2204.7L-343.9 -2158.0L-327.4 -2111.7L-289.9 -2050.8L-254.8 -1971.5L-183.7 -1738.2L-141.4 -1686.1L-81.5 -1667.6L-45.9 -1644.2L-45.9 -1551.2L-35.7 -1504.4L1.8 -1457.7L26.6 -1410.9L43.2 -1317.4L66.6 -1275.1L126.5 -1207.9L186.4 -1159.7L216.1 -1142.1L257.5 -1130.4L313.5 -1083.2L277.9 -1036.9L215.6 -985.8L185.4 -965.8L155.7 -952.7L110.4 -944.4L95.3 -933.2L35.4 -837.8L-19.6 -805.6L-40.1 -758.9L-25.0 -719.9L34.9 -694.6L59.8 -665.4L184.4 -629.8L214.1 -615.2L244.3 -587.9L264.3 -524.6L272.1 -477.9L270.6 -384.9L288.2 -291.4L286.2 -245.1L263.8 -151.6L264.8 -105.3L250.2 -12.3L252.6 34.4L271.6 55.4L331.5 74.9L391.4 107.0L481.0 136.7L505.8 175.7L476.1 221.9L450.8 238.5L361.2 242.4L300.8 265.3L271.1 300.3L265.8 314.0L273.1 360.7L292.1 407.5L301.8 454.2L324.7 501.0L410.9 594.5L449.4 609.6L599.3 622.2L666.5 642.2L689.0 650.0L719.1 679.2L778.6 692.8L808.8 706.0L868.6 750.8L898.4 752.7L928.5 745.0L958.3 727.4L1018.2 706.5L1108.2 664.1L1168.1 646.1L1228.5 609.6L1258.2 599.8L1318.1 604.7L1408.2 624.2L1439.9 646.1L1467.6 685.1L1491.5 739.6L1493.0 879.4L1503.7 926.1L1551.4 972.9L1616.7 993.3L1676.6 987.5L1706.3 969.0L1766.2 954.8L1826.1 961.7L1916.2 996.7L1975.6 1038.6L2005.8 1052.2L2065.7 1058.1L2125.6 1077.6L2155.3 1097.5L2223.9 1162.8L2304.3 1275.3L2393.9 1340.1L2424.1 1351.7L2483.5 1356.1L2492.8 1350.3L2497.1 1304.0L2485.4 1257.3L2474.7 1117.5L2501.5 977.7L2545.3 903.2L2605.7 818.0L2632.5 792.2L2665.6 783.4L2695.3 787.3L2725.5 805.8L2755.2 812.2L2785.4 804.9L2815.1 788.3L2875.5 779.5L2934.9 802.9L3025.0 819.0L3054.7 830.2L3114.6 880.8L3144.3 885.2L3234.4 828.7L3264.6 819.0L3324.5 815.6L3451.1 749.8L3470.1 703.6L3459.9 656.8L3355.7 472.2L3320.1 376.3L3308.0 283.3L3284.6 189.8L3297.3 151.3L3335.7 190.3L3371.3 283.8L3416.1 344.7L3505.2 507.8L3594.8 598.4L3609.9 598.4" fill="none" stroke="#D6FE51" stroke-opacity="0.2" stroke-width="0.7" stroke-linejoin="round" />
    <path d="M-88.3 -2599.7L-88.3 -2576.3L-108.2 -2559.3L-198.3 -2534.9L-228.5 -2510.6L-258.7 -2437.5L-311.3 -2344.5L-325.0 -2251.5L-314.7 -2158.0L-227.1 -1971.5L-187.6 -1831.2L-152.6 -1737.7L-141.4 -1722.1L-111.7 -1702.6L-51.8 -1691.0L-21.6 -1652.0L-19.1 -1597.5L-26.9 -1551.2L-22.1 -1532.2L-12.3 -1504.4L33.0 -1457.7L55.9 -1410.9L74.4 -1317.4L126.5 -1244.9L186.4 -1187.4L216.1 -1167.0L306.2 -1132.4L347.1 -1083.2L335.9 -1059.8L305.7 -1026.7L185.4 -940.5L113.3 -898.1L70.0 -805.1L71.0 -758.4L79.7 -711.6L124.5 -678.5L154.7 -664.9L184.4 -664.9L244.3 -633.2L274.0 -570.9L289.6 -477.9L284.8 -384.9L309.1 -291.4L307.6 -244.6L290.1 -198.3L282.3 -151.6L286.2 -105.3L274.5 -11.8L286.7 34.4L451.3 97.7L511.2 97.7L558.9 129.4L553.1 175.7L480.5 268.7L450.8 288.2L360.7 286.7L331.0 314.5L308.1 360.7L330.0 461.0L355.9 501.0L419.6 566.2L479.5 591.1L539.4 601.8L599.3 595.4L689.4 611.5L748.9 634.9L779.0 631.0L868.6 703.1L898.4 713.3L928.5 713.3L978.7 690.4L1018.6 684.6L1168.6 619.8L1228.5 586.7L1288.4 582.3L1408.2 599.3L1437.9 614.9L1468.1 646.1L1497.8 710.4L1509.0 739.6L1514.9 879.4L1524.1 926.1L1556.8 954.4L1616.7 977.2L1646.4 979.2L1670.2 973.4L1706.3 945.6L1736.5 936.3L1826.6 934.9L1916.2 977.2L2005.8 1030.3L2065.7 1026.4L2125.6 1038.1L2215.2 1110.2L2268.7 1162.8L2322.3 1256.3L2393.9 1311.3L2424.1 1317.7L2460.1 1303.5L2457.2 1163.8L2485.0 970.9L2503.5 931.5L2605.7 774.7L2665.6 756.6L2785.4 769.8L2875.5 756.2L2965.1 790.7L3054.7 798.5L3114.6 845.8L3174.5 831.6L3264.6 795.6L3304.6 795.6L3384.4 764.9L3409.8 749.8L3444.8 709.9L3437.5 656.8L3355.7 507.3L3317.2 423.1L3285.6 283.3L3250.0 189.8L3230.1 96.3L3125.8 -90.2L3148.2 -125.3L3242.7 -43.0L3277.8 3.8L3327.5 89.5L3342.1 143.5L3386.4 237.0L3416.6 283.8L3453.6 377.3L3500.3 470.8L3594.8 571.6L3609.9 571.6" fill="none" stroke="#D6FE51" stroke-opacity="0.4" stroke-width="1.1" stroke-linejoin="round" />
    <path d="M-60.0 -2599.2L-60.0 -2576.3L-78.5 -2547.6L-108.7 -2527.6L-168.6 -2514.0L-211.0 -2483.8L-284.5 -2344.5L-300.6 -2297.7L-303.0 -2251.0L-277.2 -2158.0L-253.4 -2111.2L-202.2 -1971.0L-141.4 -1779.6L-111.2 -1731.9L-51.3 -1717.7L-10.9 -1690.5L3.8 -1644.2L3.3 -1597.5L-5.5 -1550.7L14.0 -1504.0L59.3 -1457.2L67.6 -1440.6L101.6 -1317.4L134.3 -1270.7L186.4 -1212.2L246.3 -1172.8L306.2 -1151.9L337.8 -1129.9L380.7 -1083.2L370.5 -1036.4L335.4 -1001.9L152.8 -897.7L123.1 -851.4L109.9 -804.6L125.0 -750.6L154.7 -716.0L250.2 -664.4L291.1 -570.9L302.8 -524.1L307.2 -477.9L298.9 -384.4L331.5 -291.4L326.6 -244.6L309.1 -198.3L301.3 -151.6L305.7 -104.8L296.4 -58.6L295.0 -11.8L301.8 4.7L328.6 34.9L361.7 45.2L451.3 65.6L511.2 63.2L619.8 129.4L605.7 176.2L540.9 249.7L480.5 329.1L450.3 342.2L420.6 334.4L368.0 361.2L360.7 372.9L351.5 407.5L358.3 454.2L389.9 503.4L445.9 547.7L479.5 564.3L539.4 574.0L599.3 563.3L719.1 579.4L749.3 579.4L779.0 566.2L809.2 575.5L831.6 596.4L863.8 643.2L898.8 666.5L928.5 677.3L1018.6 663.1L1078.5 639.3L1198.3 575.0L1228.5 564.8L1408.2 576.0L1437.9 588.1L1468.1 617.4L1510.0 693.3L1526.6 739.6L1533.4 786.3L1537.3 879.9L1556.8 931.0L1616.7 957.3L1646.4 960.7L1706.8 923.2L1736.5 916.4L1826.6 911.5L1856.3 921.7L1976.1 993.8L2005.8 1005.5L2065.7 991.9L2125.6 1001.6L2215.2 1066.9L2275.1 1125.3L2334.5 1224.6L2361.8 1256.8L2394.4 1271.4L2424.1 1268.5L2430.4 1256.8L2432.9 1163.8L2466.9 977.7L2481.1 931.0L2590.6 745.4L2605.7 737.6L2665.6 732.8L2815.6 740.1L2875.5 730.8L2905.2 738.6L2935.4 758.1L2965.1 767.4L2995.3 766.4L3055.2 751.3L3114.6 811.2L3144.8 812.2L3204.7 796.6L3264.6 766.4L3359.6 749.3L3411.2 703.1L3409.3 656.3L3301.2 423.1L3266.6 285.7L3221.8 189.8L3194.0 96.3L3173.1 49.5L3116.6 -44.0L3057.2 -184.2L3042.1 -230.5L3036.7 -277.2L3059.1 -312.3L3088.8 -288.4L3138.0 -230.0L3189.1 -136.5L3268.0 -57.6L3315.3 3.8L3338.2 50.5L3386.9 186.9L3439.0 283.8L3476.0 394.8L3505.7 442.0L3565.1 515.1L3595.3 542.9L3609.9 542.9" fill="none" stroke="#D6FE51" stroke-opacity="0.2" stroke-width="0.7" stroke-linejoin="round" />
    <path d="M-38.6 -2599.2L-38.6 -2575.8L-48.3 -2552.9L-78.5 -2509.1L-108.7 -2492.5L-168.6 -2477.4L-198.8 -2450.2L-229.0 -2408.3L-280.2 -2297.7L-278.2 -2251.0L-230.0 -2141.9L-200.3 -2029.4L-136.0 -1877.5L-106.3 -1784.5L-81.5 -1758.2L-21.6 -1732.8L21.3 -1690.5L26.2 -1643.7L18.9 -1550.7L81.2 -1457.2L127.0 -1317.4L156.7 -1270.7L186.4 -1239.5L246.3 -1198.6L335.9 -1156.2L414.3 -1082.7L425.5 -1036.4L372.9 -989.7L203.4 -897.7L161.1 -851.4L146.4 -804.6L165.0 -757.9L184.9 -732.6L214.6 -707.7L244.3 -696.5L274.5 -668.3L327.1 -524.1L316.9 -384.4L352.0 -291.4L346.6 -244.6L327.6 -197.9L321.8 -151.6L317.4 -58.6L323.2 -11.8L361.7 17.9L391.9 25.7L511.7 32.0L541.4 41.3L621.3 83.1L690.9 129.9L668.5 176.2L576.5 269.2L540.4 327.1L480.5 399.2L420.1 408.0L400.2 454.7L449.8 511.7L480.0 530.7L509.7 536.5L629.5 528.7L659.7 541.4L719.6 543.3L779.5 531.7L829.2 549.7L898.8 616.9L928.5 638.8L958.7 647.1L1018.6 640.7L1114.6 597.9L1191.0 551.6L1228.5 542.4L1348.3 552.6L1378.5 548.7L1438.4 562.8L1479.3 599.8L1530.5 693.3L1545.1 740.1L1563.1 879.9L1598.6 926.6L1616.7 935.4L1646.4 933.9L1706.8 905.2L1736.5 897.9L1766.7 899.8L1856.3 889.6L1903.5 928.1L1976.1 971.4L2005.8 978.7L2065.7 961.2L2095.9 958.7L2125.6 966.5L2185.5 1002.1L2245.4 1049.8L2334.5 1163.3L2364.7 1186.7L2394.9 1140.4L2425.1 1061.5L2460.6 931.0L2511.7 838.0L2545.8 760.5L2576.0 724.0L2605.7 714.3L2875.5 704.0L2965.1 740.6L3055.2 707.0L3085.4 724.5L3144.8 781.0L3175.0 779.5L3204.7 773.7L3234.9 758.6L3265.1 728.9L3354.7 703.1L3379.1 656.3L3367.4 609.6L3287.5 423.1L3266.6 329.6L3200.8 189.3L3172.6 96.3L3094.2 -44.0L3056.2 -137.5L2999.2 -254.3L2977.8 -324.0L2902.3 -464.2L2897.4 -511.0L2910.1 -538.7L2940.3 -562.6L2970.0 -549.5L3029.4 -410.2L3089.3 -370.2L3100.5 -323.5L3197.4 -183.2L3223.2 -136.5L3268.0 -99.0L3344.0 3.8L3365.4 50.5L3392.2 144.0L3446.3 258.0L3484.7 377.3L3535.4 449.4L3595.3 514.1L3610.4 514.1" fill="none" stroke="#D6FE51" stroke-opacity="0.4" stroke-width="1.1" stroke-linejoin="round" />
    <path d="M-19.6 -2599.2L-19.6 -2575.8L-38.1 -2529.6L-66.4 -2482.8L-108.7 -2457.5L-163.8 -2437.0L-206.6 -2390.3L-256.3 -2297.7L-250.0 -2251.0L-197.9 -2157.5L-183.2 -2064.0L-140.4 -1956.9L-110.7 -1906.7L-81.0 -1803.5L23.2 -1737.2L53.4 -1690.5L42.2 -1597.5L48.6 -1550.7L101.6 -1457.2L128.4 -1363.7L151.8 -1317.0L186.4 -1268.3L248.7 -1223.4L366.1 -1162.6L442.5 -1082.7L457.6 -1036.0L417.7 -989.7L335.4 -950.7L247.7 -897.2L202.5 -850.9L182.5 -804.6L193.7 -757.9L274.5 -700.4L295.5 -664.4L350.0 -524.1L339.8 -384.4L373.4 -290.9L368.5 -244.6L341.2 -151.6L339.3 -104.8L344.7 -58.1L361.7 -17.2L421.6 -0.6L541.4 2.3L631.5 55.4L706.0 83.1L746.9 130.4L731.8 176.6L720.6 190.8L626.6 269.2L585.2 315.9L547.7 408.4L517.5 455.2L539.9 490.3L569.6 494.2L599.8 479.1L629.5 479.1L719.6 500.5L809.2 509.7L869.1 537.0L929.0 603.7L958.7 618.3L1018.6 615.9L1108.7 572.6L1138.9 549.7L1198.8 523.4L1228.5 519.5L1318.6 527.8L1378.5 519.5L1408.2 523.9L1465.2 553.1L1498.3 583.3L1550.9 693.3L1587.0 838.9L1616.7 891.5L1646.9 903.7L1736.5 879.4L1766.7 883.7L1856.7 867.2L1942.9 928.5L1976.1 942.2L2005.8 947.5L2095.9 927.1L2126.1 931.5L2185.5 965.6L2215.7 992.8L2271.7 1023.0L2305.3 1058.1L2335.0 1102.9L2364.7 1089.7L2394.9 1051.3L2410.0 1024.0L2438.7 931.0L2527.8 745.0L2545.8 716.7L2576.0 693.8L2726.0 683.1L2755.7 676.3L2875.5 676.8L2935.4 692.8L2995.3 684.1L3025.5 664.6L3085.4 678.2L3112.2 701.6L3144.8 744.5L3204.7 750.3L3244.2 702.1L3265.1 687.5L3294.8 684.6L3325.0 666.1L3334.3 656.3L3340.1 609.6L3275.3 423.1L3249.0 329.6L3186.2 189.3L3155.5 96.3L3064.5 -44.0L3038.7 -137.5L2980.7 -231.0L2954.4 -324.5L2875.5 -464.7L2870.7 -511.0L2874.1 -557.7L2880.4 -571.9L2940.3 -601.6L2970.5 -595.2L3000.2 -606.9L3030.4 -642.5L3060.6 -661.5L3107.8 -603.0L3090.3 -575.8L3029.9 -539.2L3017.2 -510.5L3025.0 -463.7L3107.8 -370.2L3154.1 -276.7L3238.3 -157.4L3268.0 -134.1L3329.4 -43.0L3369.3 4.2L3412.7 144.0L3446.8 214.1L3476.0 307.6L3505.7 374.8L3537.8 424.5L3595.3 484.9L3610.4 484.9" fill="none" stroke="#D6FE51" stroke-opacity="0.2" stroke-width="0.7" stroke-linejoin="round" />
    <path d="M-3.5 -2599.2L-3.5 -2575.8L-18.6 -2519.8L-48.8 -2459.4L-138.9 -2407.8L-161.3 -2390.3L-199.3 -2344.0L-214.4 -2297.3L-214.4 -2250.5L-187.6 -2204.2L-169.6 -2157.5L-165.7 -2110.7L-153.1 -2064.0L-81.0 -1905.2L-65.9 -1830.7L-51.3 -1813.7L74.4 -1736.7L85.6 -1690.0L62.7 -1597.0L76.8 -1550.2L124.5 -1457.2L146.9 -1363.7L156.7 -1345.2L186.9 -1306.7L276.5 -1231.7L386.0 -1176.2L455.7 -1094.4L472.7 -1082.7L485.4 -1047.6L485.4 -1030.6L425.0 -972.2L360.2 -943.4L275.0 -888.9L236.5 -850.9L215.1 -804.2L229.7 -757.9L293.0 -710.7L304.2 -690.7L333.9 -610.8L363.6 -551.9L370.5 -524.1L363.6 -477.4L367.5 -384.4L396.3 -290.9L396.3 -244.1L359.7 -151.1L362.2 -95.6L386.0 -58.1L422.1 -34.7L482.0 -25.5L571.6 -27.9L601.8 -16.2L653.9 36.4L750.8 83.6L799.0 130.4L780.5 177.1L744.5 223.4L660.2 289.6L640.3 315.9L622.7 362.7L637.3 408.9L659.7 444.0L719.6 465.4L779.5 462.5L839.4 480.0L899.3 513.1L919.3 550.2L958.7 585.7L988.9 593.0L1018.6 588.1L1168.6 508.8L1198.8 498.1L1258.7 493.7L1318.6 505.8L1378.5 493.7L1408.7 496.1L1498.3 539.4L1513.4 553.6L1574.3 693.3L1617.1 833.6L1646.9 869.6L1736.9 861.8L1766.7 866.7L1856.7 847.7L1946.4 881.8L1976.1 901.8L2006.3 913.0L2036.0 913.5L2095.9 895.4L2126.1 902.3L2186.0 933.9L2245.4 976.3L2275.6 982.6L2335.0 1032.8L2365.2 1031.3L2371.0 1023.5L2516.1 713.8L2546.3 679.7L2576.0 668.5L2635.9 668.0L2756.2 644.6L2935.9 653.9L3055.7 621.3L3085.4 634.9L3145.3 689.9L3175.0 707.5L3205.2 702.1L3235.4 667.0L3295.3 640.3L3310.4 609.6L3306.5 562.8L3236.4 348.1L3206.7 292.1L3136.6 95.8L3087.9 20.3L3035.7 -44.5L3013.3 -137.5L2952.0 -231.0L2934.5 -324.5L2909.6 -371.2L2875.5 -418.0L2853.1 -464.7L2844.4 -557.7L2850.7 -604.5L2880.4 -623.0L2940.3 -628.8L2990.5 -650.3L3015.8 -743.3L3030.9 -751.1L3060.6 -731.6L3096.6 -696.0L3111.7 -649.8L3141.4 -603.0L3135.1 -556.3L3120.0 -538.7L3060.1 -510.0L3055.2 -463.7L3119.5 -383.9L3208.6 -233.9L3246.1 -182.8L3298.2 -136.0L3354.2 -42.5L3387.4 -6.0L3431.7 144.0L3455.0 190.8L3476.5 264.3L3506.2 335.9L3535.9 387.0L3595.3 457.6L3610.4 458.1" fill="none" stroke="#D6FE51" stroke-opacity="0.4" stroke-width="1.1" stroke-linejoin="round" />
    <path d="M13.0 -2599.2L13.0 -2575.8L-19.1 -2450.2L-48.8 -2420.0L-112.1 -2389.8L-142.3 -2343.5L-161.8 -2297.3L-163.3 -2250.5L-139.9 -2134.1L-104.8 -2017.2L-78.5 -1970.5L-62.5 -1923.7L-50.8 -1863.4L-25.0 -1830.7L8.6 -1803.5L38.8 -1785.4L68.5 -1776.7L98.2 -1754.8L111.4 -1736.7L117.2 -1690.0L91.4 -1597.0L99.2 -1550.2L118.2 -1503.5L151.8 -1456.7L168.8 -1363.7L186.9 -1340.3L306.2 -1240.5L396.3 -1193.3L426.0 -1161.1L455.7 -1116.3L485.4 -1093.4L526.3 -1082.2L517.0 -1036.0L482.5 -989.2L395.3 -932.2L365.1 -923.0L322.7 -897.2L268.7 -850.4L247.3 -804.2L262.4 -757.4L304.7 -731.6L316.9 -710.7L334.4 -660.5L382.1 -570.4L388.0 -524.1L377.3 -430.6L383.6 -384.4L421.1 -290.9L425.0 -244.1L386.5 -151.1L395.8 -104.4L451.8 -55.7L482.0 -52.2L571.6 -67.8L601.8 -60.0L661.2 9.1L807.3 83.6L840.9 113.3L852.1 130.9L765.4 270.1L695.3 316.4L686.5 362.7L705.0 409.4L719.6 419.6L809.7 413.8L899.3 465.9L929.5 489.3L944.1 503.9L970.4 550.6L988.9 561.4L1108.7 517.0L1198.8 471.3L1229.0 464.4L1318.6 476.6L1408.7 471.3L1498.3 504.4L1543.1 553.6L1598.2 693.3L1624.0 786.8L1650.8 833.6L1677.0 845.3L1766.7 849.2L1796.8 846.2L1826.6 830.7L1856.7 827.7L2006.3 875.0L2096.3 863.3L2186.0 899.3L2230.8 930.0L2335.5 980.2L2365.2 965.6L2395.4 918.8L2462.6 791.2L2495.7 698.2L2516.1 666.5L2546.3 647.1L2635.9 644.1L2726.0 613.5L2876.0 623.2L2935.9 615.4L2995.8 588.1L3055.7 584.7L3085.9 592.0L3111.7 608.1L3145.3 648.0L3175.0 668.0L3235.4 623.7L3265.1 616.9L3274.4 609.1L3280.7 562.8L3265.6 492.7L3236.4 406.0L3196.9 329.1L3156.0 189.3L3116.1 95.8L3087.9 47.1L3041.1 2.3L3009.9 -44.5L2998.2 -95.6L2938.8 -189.1L2925.7 -231.5L2915.5 -324.5L2879.4 -378.0L2844.4 -418.0L2825.9 -464.7L2827.8 -511.5L2822.0 -557.7L2799.6 -604.5L2820.5 -645.4L2880.9 -657.1L2940.8 -658.1L2969.0 -697.0L2976.3 -743.3L2975.8 -790.0L3001.2 -809.5L3061.1 -791.0L3088.3 -742.8L3128.8 -696.0L3138.5 -649.3L3161.9 -602.5L3161.4 -556.3L3149.7 -521.2L3098.6 -463.3L3143.4 -369.8L3208.6 -265.5L3268.5 -191.5L3298.2 -171.1L3389.3 -42.5L3416.1 4.2L3433.1 97.7L3522.2 331.0L3595.3 432.8L3610.4 432.8" fill="none" stroke="#D6FE51" stroke-opacity="0.2" stroke-width="0.7" stroke-linejoin="round" />
    <path d="M35.4 -2598.7L35.4 -2575.8L15.9 -2529.1L3.3 -2436.0L-19.1 -2404.9L-113.1 -2343.5L-126.8 -2296.8L-131.1 -2250.5L-106.8 -2110.3L-77.1 -2017.2L-50.8 -1970.5L-28.4 -1877.0L8.6 -1830.2L38.8 -1812.2L98.7 -1791.8L128.4 -1756.7L137.2 -1736.7L146.9 -1690.0L139.1 -1643.2L120.1 -1597.0L121.6 -1550.2L144.5 -1503.5L187.4 -1456.7L183.9 -1410.0L197.1 -1363.7L306.2 -1263.4L396.3 -1216.6L426.0 -1190.3L455.7 -1140.7L485.9 -1111.9L515.6 -1108.0L563.3 -1082.2L545.3 -1035.5L515.1 -984.3L484.9 -959.5L425.0 -924.9L360.2 -896.7L312.5 -850.4L284.8 -804.2L334.4 -717.0L350.5 -663.9L406.0 -570.4L407.5 -523.6L393.3 -418.9L400.7 -383.9L423.1 -331.8L448.9 -290.9L460.1 -244.1L452.3 -151.1L482.0 -104.4L512.2 -90.2L601.8 -103.4L632.0 -76.6L676.3 -9.9L721.1 18.4L781.0 47.1L840.9 64.6L900.8 71.5L931.0 84.6L923.2 130.9L840.4 216.1L805.8 270.1L786.3 316.9L795.1 363.2L929.5 449.4L988.9 499.5L1019.1 514.6L1109.2 491.2L1169.1 458.6L1229.0 438.6L1259.2 437.2L1318.6 448.4L1408.7 446.4L1498.3 472.7L1528.5 496.6L1570.9 553.6L1621.0 693.8L1644.4 786.8L1677.0 817.0L1766.7 831.2L1796.8 828.7L1826.6 812.6L1856.7 807.3L1976.5 838.9L2006.3 839.9L2066.2 828.2L2096.3 832.1L2186.0 859.9L2245.9 898.8L2305.8 923.7L2335.5 924.7L2365.6 907.1L2395.8 866.7L2443.6 791.2L2460.6 744.5L2469.4 698.2L2486.4 665.1L2516.6 632.5L2546.3 624.2L2636.4 619.3L2726.5 580.8L2756.2 575.5L2845.8 595.9L2876.0 593.0L2935.9 576.5L2995.8 534.6L3085.9 556.5L3115.6 576.0L3145.3 613.0L3175.5 626.1L3205.2 609.1L3235.4 562.3L3247.1 516.1L3219.3 422.6L3176.5 329.1L3147.3 209.3L3087.9 78.8L3015.8 2.3L2987.5 -44.5L2968.5 -91.2L2908.6 -184.7L2904.3 -278.2L2890.6 -324.5L2817.6 -418.0L2803.9 -464.7L2803.5 -511.5L2794.2 -558.2L2770.8 -605.0L2757.7 -651.2L2790.8 -672.7L2940.8 -697.0L2945.2 -743.8L2940.8 -753.0L2911.1 -772.0L2881.4 -849.0L2851.7 -870.4L2821.5 -866.5L2781.5 -884.5L2761.6 -900.1L2731.9 -946.8L2722.1 -978.0L2732.4 -987.3L2792.3 -977.5L2822.0 -949.3L2881.9 -937.1L2941.3 -893.8L2971.5 -864.5L3034.8 -836.3L3061.1 -814.4L3102.0 -742.8L3145.8 -696.0L3177.9 -602.5L3179.9 -556.3L3149.7 -478.4L3136.6 -463.3L3139.5 -416.5L3209.1 -302.1L3298.2 -208.6L3414.1 -42.5L3444.8 51.0L3449.2 97.7L3491.6 191.2L3503.7 237.5L3542.2 331.0L3595.8 406.5L3610.4 407.0" fill="none" stroke="#D6FE51" stroke-opacity="0.4" stroke-width="1.1" stroke-linejoin="round" />
    <path d="M57.8 -2598.7L57.8 -2575.3L33.0 -2529.1L31.5 -2436.0L7.7 -2389.3L-79.5 -2304.6L-99.0 -2250.0L-105.3 -2203.8L-69.8 -2063.5L-52.2 -2016.8L-22.5 -1970.5L6.7 -1877.0L38.8 -1842.9L98.7 -1823.4L128.4 -1803.5L141.6 -1783.0L171.8 -1690.0L167.4 -1643.2L148.4 -1596.5L148.4 -1550.2L157.6 -1533.2L191.2 -1503.5L215.1 -1456.7L219.5 -1410.0L274.5 -1316.5L426.0 -1217.1L485.9 -1131.4L545.8 -1117.3L598.9 -1081.7L545.3 -986.3L515.1 -949.8L484.9 -926.4L421.1 -896.7L346.1 -850.4L331.0 -803.7L338.8 -756.9L368.5 -663.9L405.5 -617.1L428.4 -570.4L414.8 -430.6L419.2 -383.9L477.1 -290.4L488.8 -244.1L499.5 -150.6L512.2 -134.1L541.9 -122.9L601.8 -135.5L632.0 -123.8L691.4 -30.8L713.8 -9.9L751.3 8.6L871.1 43.2L900.8 39.8L960.7 55.4L973.4 84.6L935.9 177.6L855.0 270.6L831.2 316.9L852.6 363.6L869.6 378.7L899.8 395.8L959.2 445.0L1019.1 481.0L1049.3 481.0L1109.2 466.4L1199.3 420.1L1259.2 410.4L1348.8 423.5L1438.9 420.1L1498.8 433.8L1531.0 460.1L1599.6 553.6L1680.9 787.3L1706.8 798.0L1766.7 807.8L1796.8 808.3L1856.7 786.8L1976.5 812.2L2066.6 799.0L2096.3 802.9L2126.5 816.5L2186.0 820.0L2216.1 828.7L2276.0 870.6L2335.9 881.3L2365.6 866.7L2424.1 791.2L2445.5 698.2L2469.9 651.5L2516.6 603.7L2636.4 589.6L2696.3 557.5L2756.2 543.8L2786.4 546.3L2846.3 569.2L2935.9 534.6L2966.1 504.4L2996.3 488.3L3026.0 488.3L3145.8 547.7L3175.5 556.5L3208.6 515.6L3202.8 468.8L3151.6 329.1L3136.6 235.6L3074.2 95.8L3039.6 49.0L2993.4 1.8L2940.3 -91.2L2906.7 -138.0L2883.8 -184.7L2885.8 -278.2L2879.4 -294.8L2819.5 -378.5L2798.6 -418.5L2784.0 -465.2L2782.0 -511.5L2770.8 -558.2L2745.5 -605.0L2732.4 -651.7L2761.1 -684.4L2790.8 -703.3L2821.0 -704.8L2851.2 -718.0L2873.6 -744.3L2863.8 -790.5L2851.2 -813.9L2821.5 -824.6L2761.6 -858.7L2731.9 -887.9L2691.4 -978.0L2702.2 -1010.6L2732.4 -1021.8L2912.1 -985.3L2926.7 -976.5L2943.7 -929.8L2986.6 -883.0L3063.0 -836.3L3113.7 -742.8L3162.4 -696.0L3181.8 -649.3L3194.0 -555.8L3158.5 -462.8L3159.9 -416.5L3238.8 -304.5L3268.5 -273.3L3298.7 -252.4L3417.5 -76.1L3447.2 7.7L3466.7 97.7L3485.7 144.5L3506.7 180.5L3518.8 191.2L3564.6 331.0L3595.8 379.7L3610.9 379.7" fill="none" stroke="#D6FE51" stroke-opacity="0.2" stroke-width="0.7" stroke-linejoin="round" />
    <path d="M84.1 -2598.7L84.1 -2575.3L61.2 -2529.1L55.9 -2482.3L66.1 -2435.6L58.8 -2389.3L-19.6 -2322.1L-41.0 -2296.3L-66.9 -2250.0L-82.9 -2203.3L-50.3 -2072.8L5.7 -1970.0L20.3 -1923.3L43.7 -1877.0L69.0 -1858.5L128.9 -1839.5L143.5 -1829.7L158.6 -1806.4L194.7 -1689.5L198.1 -1643.2L187.8 -1596.5L195.1 -1549.7L217.5 -1529.8L234.6 -1503.0L251.6 -1456.2L254.6 -1410.0L306.7 -1322.3L456.2 -1226.9L485.9 -1166.5L545.8 -1141.1L605.7 -1107.5L623.2 -1081.7L544.8 -942.5L515.1 -907.9L454.7 -884.5L394.8 -849.9L361.2 -803.7L359.3 -756.9L389.0 -663.9L430.8 -616.7L450.8 -570.4L445.9 -476.9L453.2 -383.9L505.4 -290.4L520.9 -243.6L525.3 -196.9L542.4 -159.9L572.1 -155.5L602.3 -165.7L632.0 -160.8L661.7 -126.8L700.2 -56.6L751.3 -16.7L871.1 12.0L961.2 15.0L1010.9 38.3L1014.7 85.1L937.8 224.4L904.2 270.6L882.8 317.4L899.8 363.6L959.7 417.7L1019.1 449.8L1049.3 457.6L1139.4 428.4L1199.3 398.2L1259.2 385.6L1348.8 397.2L1468.6 387.5L1498.8 396.8L1528.5 413.8L1626.4 554.1L1647.8 624.2L1683.9 693.8L1692.1 740.6L1707.2 763.9L1767.1 784.4L1796.8 787.8L1856.7 767.4L1946.8 785.4L1976.5 785.9L2066.6 769.8L2096.3 773.7L2126.5 789.3L2216.1 789.8L2276.0 833.1L2305.8 845.3L2335.9 846.7L2365.6 837.5L2395.8 790.7L2424.1 697.7L2447.5 651.5L2483.0 605.2L2516.6 584.2L2636.4 555.5L2696.3 525.8L2726.5 517.5L2786.4 517.5L2846.3 534.6L2876.0 529.2L2912.1 514.1L2966.6 460.6L2996.3 450.8L3056.2 452.8L3116.1 468.8L3146.3 468.8L3150.7 422.1L3126.8 329.1L3112.2 235.6L3046.5 95.3L2971.0 1.8L2912.1 -91.7L2875.5 -138.4L2860.9 -185.2L2860.4 -278.2L2819.5 -340.5L2782.0 -418.5L2765.0 -465.2L2765.0 -511.5L2751.3 -558.2L2723.1 -605.0L2704.6 -651.7L2730.9 -701.9L2828.8 -744.3L2811.2 -791.0L2731.9 -848.5L2669.0 -978.0L2657.4 -1024.8L2672.5 -1037.9L2702.2 -1044.2L2762.1 -1036.9L2882.3 -1035.0L2921.8 -1023.3L2941.8 -1011.6L2971.9 -976.5L2977.8 -929.8L3021.1 -883.0L3087.9 -836.3L3102.0 -789.5L3126.8 -742.8L3178.4 -696.0L3201.8 -649.3L3208.1 -555.8L3173.6 -462.8L3183.3 -416.0L3269.0 -312.3L3328.4 -268.0L3370.3 -182.3L3431.2 -88.8L3450.2 -42.0L3484.3 97.7L3506.7 148.9L3556.3 191.2L3573.9 284.8L3589.4 331.5L3595.8 341.7L3610.9 341.7" fill="none" stroke="#D6FE51" stroke-opacity="0.4" stroke-width="1.1" stroke-linejoin="round" />
    <path d="M196.1 -2598.2L196.1 -2574.8L131.4 -2564.6L101.2 -2548.1L91.9 -2528.6L97.3 -2482.3L94.3 -2388.8L74.4 -2342.5L10.6 -2308.9L-19.6 -2276.8L-51.8 -2203.3L-49.8 -2151.2L-18.6 -2063.5L69.0 -1891.1L158.6 -1848.7L178.1 -1829.3L218.0 -1694.4L244.3 -1642.7L244.3 -1549.7L277.0 -1473.8L281.3 -1409.5L306.7 -1365.6L336.9 -1331.1L456.2 -1261.9L516.1 -1178.2L620.3 -1128.5L635.4 -1109.0L645.6 -1081.7L632.9 -1035.0L575.0 -960.5L544.8 -898.6L514.6 -876.2L443.5 -849.9L392.4 -803.7L390.4 -710.2L412.3 -663.4L456.2 -616.7L473.2 -569.9L470.3 -523.6L477.6 -430.1L502.4 -337.1L536.0 -290.4L557.5 -243.6L568.7 -196.9L632.0 -187.6L662.2 -164.7L721.6 -69.3L751.3 -43.5L901.3 -14.7L961.2 -15.7L1021.1 8.1L1053.2 38.3L1048.3 85.1L990.4 174.7L914.9 317.4L932.4 364.1L959.7 387.5L1019.6 420.6L1049.3 423.1L1139.4 404.1L1259.2 359.3L1379.0 371.4L1469.1 355.4L1498.8 365.1L1529.0 384.6L1558.7 420.1L1588.4 473.2L1647.8 540.9L1686.8 647.6L1733.5 741.1L1767.1 761.0L1796.8 764.4L1856.7 747.9L1976.5 763.9L2059.3 742.5L2081.7 742.5L2156.2 766.4L2216.1 766.9L2276.0 803.9L2306.2 813.6L2335.9 811.7L2366.1 793.7L2425.1 651.5L2454.8 604.7L2486.4 578.4L2606.7 539.9L2696.8 501.5L2756.7 493.2L2876.5 499.0L2906.2 486.4L2966.6 433.8L2996.3 418.7L3086.4 410.4L3095.6 375.3L3095.2 282.3L3045.0 142.1L2997.8 66.6L2932.5 1.8L2914.0 -44.9L2853.1 -138.4L2836.1 -185.2L2838.5 -231.9L2826.8 -278.2L2748.4 -465.2L2746.5 -512.0L2733.8 -558.2L2681.2 -651.7L2702.6 -698.5L2731.4 -731.1L2757.7 -744.7L2750.4 -791.5L2731.4 -806.1L2710.9 -838.2L2672.0 -938.6L2606.2 -1024.8L2603.8 -1071.5L2612.6 -1106.6L2732.4 -1059.8L2912.1 -1054.0L2971.9 -1033.5L3031.8 -1046.2L3062.0 -1042.3L3102.5 -1022.3L3033.8 -929.3L3051.8 -883.0L3102.5 -835.8L3116.1 -789.5L3141.4 -742.8L3180.4 -708.2L3218.9 -648.8L3222.7 -555.8L3193.0 -462.8L3209.1 -419.9L3269.0 -351.3L3328.9 -306.0L3352.8 -275.8L3393.2 -182.3L3452.1 -88.8L3470.6 -42.0L3507.1 106.5L3536.9 137.2L3566.6 154.7L3587.0 191.7L3596.3 249.7L3611.4 250.2" fill="none" stroke="#D6FE51" stroke-opacity="0.2" stroke-width="0.7" stroke-linejoin="round" />
    <path d="M1020.1 -2593.8L1020.1 -2570.5L940.2 -2497.4L879.9 -2469.7L820.0 -2460.9L760.1 -2439.9L752.3 -2432.2L745.0 -2385.9L729.9 -2362.5L699.7 -2356.2L670.0 -2365.9L647.6 -2386.4L580.4 -2484.3L550.6 -2515.9L490.7 -2536.4L400.7 -2547.1L311.0 -2571.9L280.9 -2571.4L251.1 -2570.9L221.0 -2556.8L161.1 -2545.1L131.4 -2533.0L126.0 -2528.6L117.2 -2435.6L115.3 -2342.1L100.2 -2319.2L40.3 -2291.4L10.6 -2270.5L-4.5 -2249.5L-19.6 -2203.3L-24.0 -2156.5L-13.3 -2109.8L6.2 -2063.5L57.8 -1970.0L76.3 -1923.3L98.7 -1901.3L166.4 -1876.0L188.8 -1858.5L207.3 -1829.3L229.2 -1736.2L289.1 -1642.7L277.4 -1549.2L292.1 -1503.0L307.2 -1404.1L336.9 -1362.7L396.3 -1319.4L456.2 -1290.7L486.4 -1268.7L516.1 -1217.1L576.0 -1175.2L635.4 -1145.0L651.9 -1128.5L670.4 -1081.7L661.2 -1035.0L588.1 -942.5L574.5 -884.0L544.8 -855.3L484.9 -841.7L454.7 -826.6L428.9 -803.2L412.3 -756.9L414.3 -710.2L436.2 -663.4L488.3 -616.7L498.5 -569.9L495.1 -476.9L501.0 -430.1L527.8 -336.6L602.3 -243.1L662.2 -196.4L691.9 -163.8L721.6 -108.7L751.8 -74.6L811.2 -55.7L901.3 -44.0L961.2 -50.3L1021.1 -21.6L1073.2 -7.9L1089.3 38.8L1076.6 85.1L974.8 271.1L967.5 317.4L979.7 364.1L1019.6 385.1L1079.5 393.3L1169.1 373.4L1229.5 335.9L1259.2 327.6L1379.0 343.2L1469.1 330.0L1498.8 338.3L1540.2 367.1L1576.7 413.8L1603.5 460.6L1652.2 507.3L1678.0 547.7L1692.6 600.8L1737.4 694.3L1767.1 735.2L1796.8 741.1L1857.2 718.2L1886.9 715.7L1946.8 737.6L1977.0 742.0L2036.9 726.0L2096.8 719.6L2156.7 743.0L2216.6 743.5L2276.0 773.2L2306.2 778.6L2335.9 770.8L2360.3 744.0L2429.9 604.7L2486.9 555.5L2726.5 474.7L2876.5 467.4L2906.7 454.7L2996.8 380.2L3026.5 374.8L3056.7 352.0L3061.6 328.6L3056.7 281.8L3021.6 142.1L2968.1 71.9L2937.9 48.6L2908.2 9.1L2892.1 -44.9L2832.7 -138.4L2809.8 -185.2L2815.6 -231.9L2786.9 -325.0L2732.4 -465.2L2727.5 -512.0L2714.3 -558.7L2678.3 -605.5L2658.8 -652.2L2671.0 -698.5L2714.3 -744.7L2710.0 -791.5L2649.6 -931.7L2607.2 -978.5L2576.0 -1025.2L2565.8 -1118.3L2582.8 -1149.4L2613.0 -1158.7L2702.6 -1089.0L2732.4 -1078.8L2822.4 -1072.5L2912.1 -1075.9L2942.2 -1063.7L3062.0 -1069.1L3144.3 -1022.3L3121.5 -1008.2L3066.9 -929.3L3073.7 -882.6L3115.6 -835.8L3130.7 -789.1L3157.5 -742.3L3202.3 -695.6L3232.5 -648.8L3239.8 -602.5L3237.8 -555.8L3216.9 -462.8L3239.3 -416.0L3358.6 -306.5L3418.0 -182.3L3447.7 -144.8L3474.5 -88.8L3492.5 -42.0L3511.5 51.5L3536.9 98.2L3596.8 145.0L3611.9 145.0" fill="none" stroke="#D6FE51" stroke-opacity="0.4" stroke-width="1.1" stroke-linejoin="round" />
  </g>
  <path d="M96.8 373.9L248.2 368.5L407.5 424.5L446.9 449.4L557.5 464.4L592.5 440.6L636.4 439.1L670.4 400.7L752.3 349.0L783.4 252.6L833.1 181.0L873.5 141.6L903.2 125.5L900.8 110.9L788.3 134.8L643.2 127.0L620.8 140.6L599.8 128.4L515.1 118.7L416.2 159.1L308.6 140.1L172.3 147.4L128.4 101.6L99.7 96.8L100.2 306.7Z" fill="#D6FE51" fill-opacity="0.05" />
  
    <g>
      <path d="M558.4 123.6L554.1 123.6L551.1 131.4L517.0 273.1L611.5 160.6L616.9 137.7L600.3 128.4L562.8 123.6Z" fill="#D6FE51" fill-opacity="0.4" stroke="#D6FE51" stroke-width="1.6" stroke-opacity="1"  stroke-linejoin="round" />
      <text x="573.6" y="177.4" font-size="13" text-anchor="middle" opacity="0.92">🌳</text><text x="573.0" y="178.2" font-size="13" text-anchor="middle" opacity="0.92">🌳</text><text x="550.9" y="139.0" font-size="13" text-anchor="middle" opacity="0.92">🌳</text>
      <rect x="541.5" y="142.2" width="60" height="16" rx="8" fill="#0B0D0A" opacity="0.72" />
      <text x="571.5" y="153.7" text-anchor="middle" font-family="'IBM Plex Mono',monospace" font-size="10" font-weight="700" fill="#D6FE51">$OAK</text>
    </g>
    <g>
      <path d="M128.9 102.6L124.5 102.6L124.5 196.1L120.1 229.2L132.8 371.9L233.1 369.5L224.9 304.2L241.9 250.7L258.5 231.7L344.7 183.9L364.6 163.5L353.9 146.9L316.4 140.1L170.3 146.9L170.3 142.6L162.0 140.1L162.0 135.2L141.1 116.7L141.1 111.9L128.9 105.1Z" fill="#D6FE51" fill-opacity="0.4" stroke="#D6FE51" stroke-width="1.6" stroke-opacity="1"  stroke-linejoin="round" />
      <text x="151.3" y="309.7" font-size="13" text-anchor="middle" opacity="0.92">🌰</text><text x="178.8" y="204.8" font-size="13" text-anchor="middle" opacity="0.92">🌰</text><text x="160.6" y="356.7" font-size="13" text-anchor="middle" opacity="0.92">🌰</text><text x="187.8" y="332.4" font-size="13" text-anchor="middle" opacity="0.92">🌰</text><text x="217.5" y="176.2" font-size="13" text-anchor="middle" opacity="0.92">🌰</text><text x="168.6" y="276.3" font-size="13" text-anchor="middle" opacity="0.92">🌰</text><text x="225.1" y="263.3" font-size="13" text-anchor="middle" opacity="0.92">🌰</text><text x="142.2" y="134.0" font-size="13" text-anchor="middle" opacity="0.92">🌰</text>
      <rect x="172.2" y="176.6" width="60" height="16" rx="8" fill="#0B0D0A" opacity="0.72" />
      <text x="202.2" y="188.1" text-anchor="middle" font-family="'IBM Plex Mono',monospace" font-size="10" font-weight="700" fill="#D6FE51">$NUT</text>
    </g>
    <g>
      <path d="M658.8 128.4L654.4 128.4L653.4 151.3L640.3 179.1L554.1 268.7L526.3 314.0L496.6 347.1L541.4 372.4L579.4 294.5L640.7 233.1L659.2 222.4L700.2 186.9L719.1 162.5L725.5 130.4L662.7 128.4Z" fill="#D6FE51" fill-opacity="0.4" stroke="#D6FE51" stroke-width="1.6" stroke-opacity="1"  stroke-linejoin="round" />
      <text x="523.4" y="348.1" font-size="13" text-anchor="middle" opacity="0.92">🥕</text><text x="528.2" y="353.4" font-size="13" text-anchor="middle" opacity="0.92">🥕</text><text x="548.8" y="300.3" font-size="13" text-anchor="middle" opacity="0.92">🥕</text><text x="689.3" y="149.9" font-size="13" text-anchor="middle" opacity="0.92">🥕</text><text x="641.7" y="204.1" font-size="13" text-anchor="middle" opacity="0.92">🥕</text><text x="662.5" y="165.6" font-size="13" text-anchor="middle" opacity="0.92">🥕</text>
      <rect x="597.5" y="208.5" width="60" height="16" rx="8" fill="#0B0D0A" opacity="0.72" />
      <text x="627.5" y="220.0" text-anchor="middle" font-family="'IBM Plex Mono',monospace" font-size="10" font-weight="700" fill="#D6FE51">$CARROT</text>
    </g>
    <g>
      <path d="M103.6 97.7L99.7 97.7L99.7 360.2L95.3 360.2L95.3 374.4L132.8 371.9L120.6 231.2L124.5 196.1L124.5 100.2L108.0 97.7Z" fill="#5BA8B5" fill-opacity="0.4" stroke="#5BA8B5" stroke-width="1.6" stroke-opacity="1"  stroke-linejoin="round" />
      <text x="110.9" y="195.2" font-size="13" text-anchor="middle" opacity="0.92">💧</text><text x="122.6" y="256.3" font-size="13" text-anchor="middle" opacity="0.92">💧</text><text x="116.8" y="273.4" font-size="13" text-anchor="middle" opacity="0.92">💧</text><text x="104.2" y="278.3" font-size="13" text-anchor="middle" opacity="0.92">💧</text>
      <rect x="80.4" y="220.7" width="60" height="16" rx="8" fill="#0B0D0A" opacity="0.72" />
      <text x="110.4" y="232.2" text-anchor="middle" font-family="'IBM Plex Mono',monospace" font-size="10" font-weight="700" fill="#5BA8B5">$SWALE</text>
    </g>
    <g>
      <path d="M470.8 137.7L420.6 158.6L358.3 149.4L364.1 165.0L348.1 181.0L257.0 233.1L238.0 257.5L225.3 301.8L233.1 369.5L254.1 369.5L270.6 376.8L258.5 334.4L258.5 311.5L276.5 279.4L296.9 260.4L352.9 237.5L427.9 235.6L455.2 224.9L479.5 196.6L490.7 167.4L485.4 147.9L473.2 138.7Z" fill="#D6FE51" fill-opacity="0.4" stroke="#D6FE51" stroke-width="1.6" stroke-opacity="1"  stroke-linejoin="round" />
      <text x="257.8" y="301.9" font-size="13" text-anchor="middle" opacity="0.92">🥬</text><text x="238.3" y="351.8" font-size="13" text-anchor="middle" opacity="0.92">🥬</text><text x="460.4" y="170.8" font-size="13" text-anchor="middle" opacity="0.92">🥬</text><text x="319.8" y="207.9" font-size="13" text-anchor="middle" opacity="0.92">🥬</text><text x="243.2" y="278.7" font-size="13" text-anchor="middle" opacity="0.92">🥬</text><text x="259.9" y="304.7" font-size="13" text-anchor="middle" opacity="0.92">🥬</text><text x="380.9" y="204.7" font-size="13" text-anchor="middle" opacity="0.92">🥬</text><text x="263.8" y="267.8" font-size="13" text-anchor="middle" opacity="0.92">🥬</text><text x="294.6" y="239.7" font-size="13" text-anchor="middle" opacity="0.92">🥬</text>
      <rect x="319.8" y="229.9" width="60" height="16" rx="8" fill="#0B0D0A" opacity="0.72" />
      <text x="349.8" y="241.4" text-anchor="middle" font-family="'IBM Plex Mono',monospace" font-size="10" font-weight="700" fill="#D6FE51">$TURNIP</text>
    </g>
    <g>
      <path d="M896.4 111.9L808.8 130.4L782.9 184.4L739.1 243.8L659.2 302.3L646.6 320.8L646.1 367.5L651.9 391.9L662.7 409.4L670.9 397.7L708.4 379.2L708.4 374.4L754.7 348.5L763.0 308.6L766.9 308.6L771.3 282.8L775.1 282.8L775.1 271.1L779.5 271.1L779.5 257.0L783.9 257.0L792.2 236.1L800.5 231.2L800.5 224.4L808.8 219.5L817.0 201.0L825.3 196.1L829.7 182.0L841.9 175.2L850.6 161.1L858.9 158.6L867.2 144.5L904.7 126.0L900.3 111.9Z" fill="#D4A84B" fill-opacity="0.16" stroke="#D4A84B" stroke-width="1.1" stroke-opacity="0.5" stroke-dasharray="5 4" stroke-linejoin="round" />
      <text x="724.2" y="299.4" font-size="13" text-anchor="middle" opacity="0.92">⛰️</text><text x="766.3" y="247.6" font-size="13" text-anchor="middle" opacity="0.92">⛰️</text><text x="713.8" y="306.0" font-size="13" text-anchor="middle" opacity="0.92">⛰️</text><text x="778.4" y="223.6" font-size="13" text-anchor="middle" opacity="0.92">⛰️</text><text x="709.0" y="370.7" font-size="13" text-anchor="middle" opacity="0.92">⛰️</text><text x="754.7" y="273.1" font-size="13" text-anchor="middle" opacity="0.92">⛰️</text><text x="737.5" y="298.9" font-size="13" text-anchor="middle" opacity="0.92">⛰️</text><text x="682.1" y="336.2" font-size="13" text-anchor="middle" opacity="0.92">⛰️</text><text x="817.6" y="143.8" font-size="13" text-anchor="middle" opacity="0.92">⛰️</text><text x="676.1" y="316.1" font-size="13" text-anchor="middle" opacity="0.92">⛰️</text>
      <rect x="747.3" y="244.0" width="60" height="16" rx="8" fill="#0B0D0A" opacity="0.72" />
      <text x="777.3" y="255.5" text-anchor="middle" font-family="'IBM Plex Mono',monospace" font-size="10" font-weight="700" fill="#D4A84B">$STONE</text>
    </g>
    <g>
      <path d="M516.6 118.7L470.8 135.2L484.4 146.4L491.2 165.4L479.5 196.6L453.7 226.3L427.9 235.6L344.2 239.9L298.9 258.9L275.5 280.9L258.0 315.9L258.5 334.4L270.6 376.8L341.2 402.6L352.9 399.7L372.4 361.2L390.4 348.1L413.8 338.8L448.9 343.2L467.4 334.9L484.4 318.8L515.6 275.5L554.1 123.6L520.9 118.7Z" fill="#D6FE51" fill-opacity="0.4" stroke="#D6FE51" stroke-width="1.6" stroke-opacity="1"  stroke-linejoin="round" />
      <text x="491.2" y="236.3" font-size="13" text-anchor="middle" opacity="0.92">🍇</text><text x="437.1" y="282.2" font-size="13" text-anchor="middle" opacity="0.92">🍇</text><text x="511.5" y="165.8" font-size="13" text-anchor="middle" opacity="0.92">🍇</text><text x="519.3" y="198.8" font-size="13" text-anchor="middle" opacity="0.92">🍇</text><text x="319.2" y="344.5" font-size="13" text-anchor="middle" opacity="0.92">🍇</text><text x="320.8" y="320.9" font-size="13" text-anchor="middle" opacity="0.92">🍇</text><text x="404.2" y="244.3" font-size="13" text-anchor="middle" opacity="0.92">🍇</text><text x="525.0" y="210.1" font-size="13" text-anchor="middle" opacity="0.92">🍇</text><text x="363.0" y="317.2" font-size="13" text-anchor="middle" opacity="0.92">🍇</text><text x="506.9" y="229.0" font-size="13" text-anchor="middle" opacity="0.92">🍇</text>
      <rect x="382.2" y="258.5" width="60" height="16" rx="8" fill="#0B0D0A" opacity="0.72" />
      <text x="412.2" y="270.0" text-anchor="middle" font-family="'IBM Plex Mono',monospace" font-size="10" font-weight="700" fill="#D6FE51">$VINE</text>
    </g>
    <g>
      <path d="M646.1 126.0L629.5 132.8L625.2 140.1L616.9 140.1L611.5 160.6L601.3 175.7L541.9 240.9L470.8 332.0L448.9 343.2L411.4 339.3L382.1 352.9L371.4 363.2L350.0 402.6L353.9 407.0L387.5 416.7L390.4 406.5L412.3 383.6L464.4 375.3L474.7 369.5L526.3 314.0L555.5 267.2L640.3 179.1L654.4 146.9L654.4 128.4L646.1 128.4Z" fill="#D6FE51" fill-opacity="0.4" stroke="#D6FE51" stroke-width="1.6" stroke-opacity="1"  stroke-linejoin="round" />
      <text x="396.4" y="369.4" font-size="13" text-anchor="middle" opacity="0.92">🥔</text><text x="456.5" y="366.6" font-size="13" text-anchor="middle" opacity="0.92">🥔</text><text x="444.3" y="345.9" font-size="13" text-anchor="middle" opacity="0.92">🥔</text><text x="391.1" y="391.2" font-size="13" text-anchor="middle" opacity="0.92">🥔</text><text x="520.4" y="288.3" font-size="13" text-anchor="middle" opacity="0.92">🥔</text><text x="475.6" y="366.3" font-size="13" text-anchor="middle" opacity="0.92">🥔</text><text x="401.6" y="372.0" font-size="13" text-anchor="middle" opacity="0.92">🥔</text><text x="467.4" y="339.4" font-size="13" text-anchor="middle" opacity="0.92">🥔</text><text x="574.2" y="212.3" font-size="13" text-anchor="middle" opacity="0.92">🥔</text><text x="502.0" y="293.9" font-size="13" text-anchor="middle" opacity="0.92">🥔</text>
      <rect x="484.7" y="262.9" width="60" height="16" rx="8" fill="#0B0D0A" opacity="0.72" />
      <text x="514.7" y="274.4" text-anchor="middle" font-family="'IBM Plex Mono',monospace" font-size="10" font-weight="700" fill="#D6FE51">$SPUD</text>
    </g>
    <g>
      <path d="M729.4 130.4L725.5 130.4L719.1 162.5L703.1 183.9L661.2 221.0L640.7 233.1L576.9 297.9L527.3 403.6L491.7 454.2L541.9 463.5L562.8 463.5L562.8 458.6L583.3 449.4L583.3 444.5L591.6 440.1L637.8 440.1L637.8 435.2L662.7 411.9L646.6 371.9L647.1 318.8L676.8 286.2L739.1 243.8L782.9 184.4L808.8 130.4L792.2 135.2L733.8 130.4Z" fill="#D4A84B" fill-opacity="0.16" stroke="#D4A84B" stroke-width="1.1" stroke-opacity="0.5" stroke-dasharray="5 4" stroke-linejoin="round" />
      <text x="605.1" y="369.9" font-size="13" text-anchor="middle" opacity="0.92">⛰️</text><text x="558.6" y="456.7" font-size="13" text-anchor="middle" opacity="0.92">⛰️</text><text x="679.4" y="227.2" font-size="13" text-anchor="middle" opacity="0.92">⛰️</text><text x="755.5" y="155.1" font-size="13" text-anchor="middle" opacity="0.92">⛰️</text><text x="596.4" y="383.8" font-size="13" text-anchor="middle" opacity="0.92">⛰️</text><text x="527.1" y="457.0" font-size="13" text-anchor="middle" opacity="0.92">⛰️</text><text x="680.1" y="209.2" font-size="13" text-anchor="middle" opacity="0.92">⛰️</text><text x="638.8" y="277.1" font-size="13" text-anchor="middle" opacity="0.92">⛰️</text><text x="569.7" y="431.3" font-size="13" text-anchor="middle" opacity="0.92">⛰️</text><text x="615.7" y="385.8" font-size="13" text-anchor="middle" opacity="0.92">⛰️</text>
      <rect x="622.5" y="300.7" width="60" height="16" rx="8" fill="#0B0D0A" opacity="0.72" />
      <text x="652.5" y="312.2" text-anchor="middle" font-family="'IBM Plex Mono',monospace" font-size="10" font-weight="700" fill="#D4A84B">$STONE</text>
    </g>
    <g>
      <path d="M495.6 349.0L466.9 374.8L409.9 384.6L390.4 406.5L387.5 418.7L408.4 423.5L445.9 449.4L491.7 454.2L527.3 403.6L541.4 374.4L497.1 350.0Z" fill="#D6FE51" fill-opacity="0.4" stroke="#D6FE51" stroke-width="1.6" stroke-opacity="1"  stroke-linejoin="round" />
      <text x="502.2" y="415.0" font-size="13" text-anchor="middle" opacity="0.92">🫘</text><text x="510.9" y="377.8" font-size="13" text-anchor="middle" opacity="0.92">🫘</text><text x="458.7" y="406.1" font-size="13" text-anchor="middle" opacity="0.92">🫘</text><text x="400.6" y="401.0" font-size="13" text-anchor="middle" opacity="0.92">🫘</text><text x="495.5" y="362.4" font-size="13" text-anchor="middle" opacity="0.92">🫘</text>
      <rect x="430.2" y="391.0" width="60" height="16" rx="8" fill="#0B0D0A" opacity="0.72" />
      <text x="460.2" y="402.5" text-anchor="middle" font-family="'IBM Plex Mono',monospace" font-size="10" font-weight="700" fill="#D6FE51">$BEAN</text>
    </g>
  <path d="M96.8 373.9L248.2 368.5L407.5 424.5L446.9 449.4L557.5 464.4L592.5 440.6L636.4 439.1L670.4 400.7L752.3 349.0L783.4 252.6L833.1 181.0L873.5 141.6L903.2 125.5L900.8 110.9L788.3 134.8L643.2 127.0L620.8 140.6L599.8 128.4L515.1 118.7L416.2 159.1L308.6 140.1L172.3 147.4L128.4 101.6L99.7 96.8L100.2 306.7Z" fill="none" stroke="#D6FE51" stroke-width="2.6" stroke-opacity="0.9" stroke-linejoin="round" />
  <path d="M79.3 11.5L80.4 96.8L78.1 236.9L88.2 362.9L105.4 472.0" fill="none" stroke="#5BA8B5" stroke-width="3.2" stroke-opacity="0.65" stroke-linecap="round" stroke-linejoin="round" />
</svg>