<svg xmlns="http://www.w3.org/2000/svg" viewBox="-20 0 1240 1100" font-family="Inter, -apple-system, BlinkMacSystemFont, 'Segoe UI', Roboto, sans-serif">
  <defs>
    <marker id="arrowDown" viewBox="0 0 7 10" refX="3.5" refY="10" markerWidth="7" markerHeight="10" orient="0">
      <polygon points="0 0, 7 0, 3.5 10" fill="#0847F7"/>
    </marker>
    <marker id="arrowRight" viewBox="0 0 10 7" refX="10" refY="3.5" markerWidth="10" markerHeight="7" orient="0">
      <polygon points="0 0, 10 3.5, 0 7" fill="#1a1a1a"/>
    </marker>
    <marker id="arrowLeft" viewBox="0 0 10 7" refX="0" refY="3.5" markerWidth="10" markerHeight="7" orient="0">
      <polygon points="10 0, 0 3.5, 10 7" fill="#1a1a1a"/>
    </marker>
    <marker id="flowArrow" viewBox="0 0 10 7" refX="10" refY="3.5" markerWidth="10" markerHeight="7" orient="auto">
      <polygon points="0 0, 10 3.5, 0 7" fill="#0847F7"/>
    </marker>
    <marker id="flowArrowGreen" viewBox="0 0 10 7" refX="10" refY="3.5" markerWidth="10" markerHeight="7" orient="auto">
      <polygon points="0 0, 10 3.5, 0 7" fill="#16A34A"/>
    </marker>
    <marker id="flowArrowOrange" viewBox="0 0 10 7" refX="10" refY="3.5" markerWidth="10" markerHeight="7" orient="auto">
      <polygon points="0 0, 10 3.5, 0 7" fill="#EA580C"/>
    </marker>
    <marker id="flowArrowPurple" viewBox="0 0 10 7" refX="10" refY="3.5" markerWidth="10" markerHeight="7" orient="auto">
      <polygon points="0 0, 10 3.5, 0 7" fill="#7C3AED"/>
    </marker>
  </defs>

  <rect x="-20" width="1250" height="1100" fill="white"/>

  <!-- TOP HEADER BANNER -->
  <rect x="-20" y="0" width="1250" height="70" fill="#0847F7"/>
  <g transform="translate(1130,8) scale(0.13)">
    <path d="M212.521332,290.474915 C216.026886,293.578308 219.322052,296.383972 222.522064,299.294250 C246.724380,321.305176 240.959717,358.669464 210.941635,374.454926 C184.330643,388.448761 150.493912,376.351196 139.356140,348.861145 C132.007019,330.722229 137.307526,309.935028 153.288895,297.728394 C170.754272,284.388275 178.548080,266.483978 179.853516,245.218597 C180.271378,238.411499 180.149384,231.556915 179.979416,224.731400 C179.704697,213.700165 172.631454,208.843750 162.525558,213.085983 C146.624115,219.761078 134.772034,230.160370 130.069855,247.764099 C126.775711,260.096527 115.278198,267.565643 103.298645,266.709991 C90.673042,265.808197 80.772224,257.257599 78.395973,245.203415 C74.986389,227.907440 90.072647,212.085281 108.328331,214.581711 C124.465866,216.788483 139.076263,213.570160 152.659683,204.883270 C153.640869,204.255783 154.628738,203.633926 155.570190,202.949844 C164.245544,196.646042 163.920959,190.078781 154.402817,185.055939 C137.097687,175.923828 119.010185,170.310944 99.227829,175.000275 C91.991035,176.715714 85.091179,179.956177 77.819023,181.399536 C55.177525,185.893356 31.899712,168.176132 29.194962,144.854752 C26.514469,121.742516 44.553093,100.230537 67.714584,98.918144 C88.774246,97.724846 105.761673,107.864021 111.662323,126.968140 C117.885674,147.117020 131.128784,160.201843 149.427246,169.064240 C154.202042,171.376785 159.109528,173.548019 164.161819,175.124847 C172.451981,177.712204 178.290359,174.859848 179.237686,166.384857 C181.245087,148.425873 182.133347,130.260727 170.344818,114.623222 C167.072876,110.282974 163.200592,106.232811 159.000763,102.783806 C144.013870,90.476219 138.468826,74.397957 143.906677,57.632801 C149.524445,40.312874 165.616028,28.091072 183.953751,27.216412 C207.676666,26.084894 226.928665,40.454231 231.303680,63.474380 C234.074249,78.052315 228.982788,90.655457 217.674240,100.003166 C206.274933,109.425880 196.693283,119.976334 194.869156,135.052124 C193.619614,145.379181 193.787811,155.994949 194.494431,166.402039 C194.999908,173.846878 201.256699,177.794769 208.152130,175.581558 C226.552719,169.675583 243.316544,160.954590 254.171051,144.101913 C257.272125,139.287231 259.372894,133.680283 261.141907,128.182297 C267.417511,108.678108 284.018829,97.648224 305.785278,98.942902 C324.215332,100.039116 340.923798,114.938301 343.780029,133.706451 C346.135376,149.183456 341.224304,162.574829 328.886292,172.352875 C316.618256,182.075439 302.077057,185.867691 287.615265,179.463058 C264.337555,169.154144 242.768265,173.267792 221.384979,183.860229 C209.065811,189.962646 208.936813,196.890152 220.388611,204.482590 C234.036942,213.531326 248.822662,216.926697 265.099243,214.557739 C276.897339,212.840607 287.793793,218.720581 292.972046,228.881821 C297.972198,238.693588 296.626465,249.794830 288.758881,258.007843 C281.872650,265.196381 273.243683,268.130188 263.297852,266.019073 C252.893829,263.810699 245.825165,257.388519 243.248672,247.271866 C238.614639,229.076233 225.831207,219.109482 209.658676,212.446274 C202.248154,209.393051 195.445404,212.720963 194.667419,220.562256 C192.436142,243.051636 192.932022,265.279205 207.353485,284.573975 C208.843903,286.568024 210.622177,288.346893 212.521332,290.474915z" fill="white"/>
  </g>
  <text x="30" y="28" fill="white" font-size="12" font-weight="400" letter-spacing="2.5">CHAINLINK CRE</text>
  <text x="30" y="54" fill="white" font-size="22" font-weight="700">r00t.fund &#x2014; Cross-Workflow Orchestration Overview</text>

  <g transform="translate(0,70)">

  <!-- ============ LEGEND ============ -->
  <rect x="30" y="12" width="520" height="28" rx="4" fill="#F9FAFB"/>
  <circle cx="50" cy="26" r="6" fill="#0847F7"/>
  <text x="62" y="30" fill="#1a1a1a" font-size="10">CRE Workflow</text>
  <circle cx="155" cy="26" r="6" fill="#16A34A"/>
  <text x="167" y="30" fill="#1a1a1a" font-size="10">Regen/Environmental</text>
  <circle cx="280" cy="26" r="6" fill="#EA580C"/>
  <text x="292" y="30" fill="#1a1a1a" font-size="10">DeFi/Risk</text>
  <circle cx="370" cy="26" r="6" fill="#7C3AED"/>
  <text x="382" y="30" fill="#1a1a1a" font-size="10">Governance</text>
  <text x="468" y="30" fill="#6B7280" font-size="10">&#x25CB; = CRE Forwarder</text>

  <!-- ==================================================================== -->
  <!-- LEFT COLUMN: W1, W3, W5, W7 (x: 30-310, stacked vertically)        -->
  <!-- ==================================================================== -->

  <!-- ===== W1: Carbon Credit Verification ===== -->
  <rect x="30" y="50" width="280" height="195" rx="0" fill="#8AA6F9" fill-opacity="0.12" stroke="#0847F7" stroke-width="2"/>
  <rect x="30" y="50" width="280" height="30" fill="#0847F7"/>
  <g transform="translate(38,53) scale(0.085)">
    <path d="M123.5 0L0 70.9726V212.918L123.5 283.89L247 212.918V70.9726L123.5 0ZM194.679 182.837L123.523 223.728L52.3663 182.837V101.054L123.523 60.1621L194.679 101.054V182.837Z" fill="white"/>
  </g>
  <text x="68" y="71" fill="white" font-size="11" font-weight="600">W1 Carbon Credit</text>
  <!-- Steps -->
  <text x="75" y="99" fill="#6B7280" font-size="8" font-style="italic" text-anchor="end">5m</text>
  <rect x="78" y="88" width="186" height="22" rx="4" fill="white" stroke="#0847F7" stroke-width="1.5"/>
  <text x="171" y="103" text-anchor="middle" fill="#1a1a1a" font-size="10" font-weight="500">CRON Trigger</text>
  <line x1="171" y1="110" x2="171" y2="122" stroke="#0847F7" stroke-width="1.2" marker-end="url(#arrowDown)"/>
  <rect x="78" y="125" width="186" height="22" rx="4" fill="white" stroke="#0847F7" stroke-width="1.5"/>
  <text x="171" y="140" text-anchor="middle" fill="#1a1a1a" font-size="10" font-weight="500">HTTP Fetch</text>
  <line x1="171" y1="147" x2="171" y2="159" stroke="#0847F7" stroke-width="1.2" marker-end="url(#arrowDown)"/>
  <rect x="78" y="162" width="186" height="22" rx="4" fill="white" stroke="#0847F7" stroke-width="1.5"/>
  <text x="171" y="177" text-anchor="middle" fill="#1a1a1a" font-size="10" font-weight="500">Chain Write</text>
  <!-- CRE Forwarder mini -->
  <line x1="171" y1="184" x2="171" y2="198" stroke="#0847F7" stroke-width="1" stroke-dasharray="4,3" marker-end="url(#arrowDown)"/>
  <path d="M163,203 L179,203 L179,224 L159,224 L159,207 Z" fill="white" stroke="#1a1a1a" stroke-width="1" stroke-linejoin="round"/>
  <path d="M159,207 L163,207 L163,203" fill="#e5e7eb" stroke="#1a1a1a" stroke-width="0.8" stroke-linejoin="round"/>
  <text x="169" y="218" text-anchor="middle" fill="#1a1a1a" font-size="7">&lt;/&gt;</text>
  <circle cx="179" cy="203" r="7" fill="white" stroke="#1a1a1a" stroke-width="0.8"/>
  <g transform="translate(175,199) scale(0.033)">
    <path d="M123.5 0L0 70.9726V212.918L123.5 283.89L247 212.918V70.9726L123.5 0ZM194.679 182.837L123.523 223.728L52.3663 182.837V101.054L123.523 60.1621L194.679 101.054V182.837Z" fill="#0847F7"/>
  </g>
  <text x="75" y="140" fill="#6B7280" font-size="8" font-style="italic" text-anchor="end">regs</text>
  <text x="75" y="177" fill="#6B7280" font-size="8" font-style="italic" text-anchor="end">attest</text>

  <!-- ===== W3: AI Agent Orchestrator ===== -->
  <rect x="30" y="260" width="280" height="195" rx="0" fill="#8AA6F9" fill-opacity="0.12" stroke="#0847F7" stroke-width="2"/>
  <rect x="30" y="260" width="280" height="30" fill="#0847F7"/>
  <g transform="translate(38,263) scale(0.085)">
    <path d="M123.5 0L0 70.9726V212.918L123.5 283.89L247 212.918V70.9726L123.5 0ZM194.679 182.837L123.523 223.728L52.3663 182.837V101.054L123.523 60.1621L194.679 101.054V182.837Z" fill="white"/>
  </g>
  <text x="68" y="281" fill="white" font-size="11" font-weight="600">W3 AI Orchestrator</text>
  <text x="75" y="309" fill="#6B7280" font-size="8" font-style="italic" text-anchor="end">30m</text>
  <rect x="78" y="298" width="186" height="22" rx="4" fill="white" stroke="#0847F7" stroke-width="1.5"/>
  <text x="171" y="313" text-anchor="middle" fill="#1a1a1a" font-size="10" font-weight="500">CRON Trigger</text>
  <line x1="171" y1="320" x2="171" y2="332" stroke="#0847F7" stroke-width="1.2" marker-end="url(#arrowDown)"/>
  <rect x="78" y="335" width="186" height="22" rx="4" fill="white" stroke="#0847F7" stroke-width="1.5"/>
  <text x="171" y="350" text-anchor="middle" fill="#1a1a1a" font-size="10" font-weight="500">HTTP / LLM</text>
  <line x1="171" y1="357" x2="171" y2="369" stroke="#0847F7" stroke-width="1.2" marker-end="url(#arrowDown)"/>
  <rect x="78" y="372" width="186" height="22" rx="4" fill="white" stroke="#0847F7" stroke-width="1.5"/>
  <text x="171" y="387" text-anchor="middle" fill="#1a1a1a" font-size="10" font-weight="500">Chain Write</text>
  <line x1="171" y1="394" x2="171" y2="408" stroke="#0847F7" stroke-width="1" stroke-dasharray="4,3" marker-end="url(#arrowDown)"/>
  <path d="M163,413 L179,413 L179,434 L159,434 L159,417 Z" fill="white" stroke="#1a1a1a" stroke-width="1" stroke-linejoin="round"/>
  <path d="M159,417 L163,417 L163,413" fill="#e5e7eb" stroke="#1a1a1a" stroke-width="0.8" stroke-linejoin="round"/>
  <text x="169" y="428" text-anchor="middle" fill="#1a1a1a" font-size="7">&lt;/&gt;</text>
  <circle cx="179" cy="413" r="7" fill="white" stroke="#1a1a1a" stroke-width="0.8"/>
  <g transform="translate(175,409) scale(0.033)">
    <path d="M123.5 0L0 70.9726V212.918L123.5 283.89L247 212.918V70.9726L123.5 0ZM194.679 182.837L123.523 223.728L52.3663 182.837V101.054L123.523 60.1621L194.679 101.054V182.837Z" fill="#0847F7"/>
  </g>
  <text x="75" y="350" fill="#6B7280" font-size="8" font-style="italic" text-anchor="end">Groq</text>
  <text x="75" y="387" fill="#6B7280" font-size="8" font-style="italic" text-anchor="end">verdict</text>

  <!-- ===== W5: Protocol Health Monitor ===== -->
  <rect x="30" y="470" width="280" height="195" rx="0" fill="#8AA6F9" fill-opacity="0.12" stroke="#0847F7" stroke-width="2"/>
  <rect x="30" y="470" width="280" height="30" fill="#0847F7"/>
  <g transform="translate(38,473) scale(0.085)">
    <path d="M123.5 0L0 70.9726V212.918L123.5 283.89L247 212.918V70.9726L123.5 0ZM194.679 182.837L123.523 223.728L52.3663 182.837V101.054L123.523 60.1621L194.679 101.054V182.837Z" fill="white"/>
  </g>
  <text x="68" y="491" fill="white" font-size="11" font-weight="600">W5 Health Monitor</text>
  <text x="75" y="519" fill="#6B7280" font-size="8" font-style="italic" text-anchor="end">1h</text>
  <rect x="78" y="508" width="186" height="22" rx="4" fill="white" stroke="#0847F7" stroke-width="1.5"/>
  <text x="171" y="523" text-anchor="middle" fill="#1a1a1a" font-size="10" font-weight="500">Chain Read</text>
  <line x1="171" y1="530" x2="171" y2="542" stroke="#0847F7" stroke-width="1.2" marker-end="url(#arrowDown)"/>
  <rect x="78" y="545" width="186" height="22" rx="4" fill="white" stroke="#0847F7" stroke-width="1.5"/>
  <text x="171" y="560" text-anchor="middle" fill="#1a1a1a" font-size="10" font-weight="500">Compute</text>
  <line x1="171" y1="567" x2="171" y2="579" stroke="#0847F7" stroke-width="1.2" marker-end="url(#arrowDown)"/>
  <rect x="78" y="582" width="186" height="22" rx="4" fill="white" stroke="#0847F7" stroke-width="1.5"/>
  <text x="171" y="597" text-anchor="middle" fill="#1a1a1a" font-size="10" font-weight="500">Chain Write</text>
  <line x1="171" y1="604" x2="171" y2="618" stroke="#0847F7" stroke-width="1" stroke-dasharray="4,3" marker-end="url(#arrowDown)"/>
  <path d="M163,623 L179,623 L179,644 L159,644 L159,627 Z" fill="white" stroke="#1a1a1a" stroke-width="1" stroke-linejoin="round"/>
  <path d="M159,627 L163,627 L163,623" fill="#e5e7eb" stroke="#1a1a1a" stroke-width="0.8" stroke-linejoin="round"/>
  <text x="169" y="638" text-anchor="middle" fill="#1a1a1a" font-size="7">&lt;/&gt;</text>
  <circle cx="179" cy="623" r="7" fill="white" stroke="#1a1a1a" stroke-width="0.8"/>
  <g transform="translate(175,619) scale(0.033)">
    <path d="M123.5 0L0 70.9726V212.918L123.5 283.89L247 212.918V70.9726L123.5 0ZM194.679 182.837L123.523 223.728L52.3663 182.837V101.054L123.523 60.1621L194.679 101.054V182.837Z" fill="#0847F7"/>
  </g>
  <text x="75" y="560" fill="#6B7280" font-size="8" font-style="italic" text-anchor="end">risk</text>
  <text x="75" y="597" fill="#6B7280" font-size="8" font-style="italic" text-anchor="end">breaker</text>

  <!-- ===== W7: Serra da Estrela ===== -->
  <rect x="30" y="680" width="280" height="195" rx="0" fill="#16A34A" fill-opacity="0.08" stroke="#16A34A" stroke-width="2"/>
  <rect x="30" y="680" width="280" height="30" fill="#16A34A"/>
  <g transform="translate(38,683) scale(0.085)">
    <path d="M123.5 0L0 70.9726V212.918L123.5 283.89L247 212.918V70.9726L123.5 0ZM194.679 182.837L123.523 223.728L52.3663 182.837V101.054L123.523 60.1621L194.679 101.054V182.837Z" fill="white"/>
  </g>
  <text x="68" y="701" fill="white" font-size="11" font-weight="600">W7 Serra da Estrela</text>
  <text x="75" y="729" fill="#6B7280" font-size="8" font-style="italic" text-anchor="end">6h</text>
  <rect x="78" y="718" width="186" height="22" rx="4" fill="white" stroke="#16A34A" stroke-width="1.5"/>
  <text x="171" y="733" text-anchor="middle" fill="#1a1a1a" font-size="10" font-weight="500">HTTP Fetch</text>
  <line x1="171" y1="740" x2="171" y2="752" stroke="#16A34A" stroke-width="1.2" marker-end="url(#arrowDown)"/>
  <rect x="78" y="755" width="186" height="22" rx="4" fill="white" stroke="#16A34A" stroke-width="1.5"/>
  <text x="171" y="770" text-anchor="middle" fill="#1a1a1a" font-size="10" font-weight="500">Compute</text>
  <line x1="171" y1="777" x2="171" y2="789" stroke="#16A34A" stroke-width="1.2" marker-end="url(#arrowDown)"/>
  <rect x="78" y="792" width="186" height="22" rx="4" fill="white" stroke="#16A34A" stroke-width="1.5"/>
  <text x="171" y="807" text-anchor="middle" fill="#1a1a1a" font-size="10" font-weight="500">Chain Write</text>
  <line x1="171" y1="814" x2="171" y2="828" stroke="#16A34A" stroke-width="1" stroke-dasharray="4,3" marker-end="url(#arrowDown)"/>
  <path d="M163,833 L179,833 L179,854 L159,854 L159,837 Z" fill="white" stroke="#1a1a1a" stroke-width="1" stroke-linejoin="round"/>
  <path d="M159,837 L163,837 L163,833" fill="#e5e7eb" stroke="#1a1a1a" stroke-width="0.8" stroke-linejoin="round"/>
  <text x="169" y="848" text-anchor="middle" fill="#1a1a1a" font-size="7">&lt;/&gt;</text>
  <circle cx="179" cy="833" r="7" fill="white" stroke="#1a1a1a" stroke-width="0.8"/>
  <g transform="translate(175,829) scale(0.033)">
    <path d="M123.5 0L0 70.9726V212.918L123.5 283.89L247 212.918V70.9726L123.5 0ZM194.679 182.837L123.523 223.728L52.3663 182.837V101.054L123.523 60.1621L194.679 101.054V182.837Z" fill="#0847F7"/>
  </g>
  <text x="75" y="733" fill="#6B7280" font-size="8" font-style="italic" text-anchor="end">sat.</text>
  <text x="75" y="770" fill="#6B7280" font-size="8" font-style="italic" text-anchor="end">FRI</text>
  <text x="75" y="807" fill="#6B7280" font-size="8" font-style="italic" text-anchor="end">feed</text>

  <!-- ==================================================================== -->
  <!-- RIGHT COLUMN: W2, W4, W6, W8 (x: 490-770, stacked vertically)      -->
  <!-- ==================================================================== -->

  <!-- ===== W2: Proof of Reserve ===== -->
  <rect x="490" y="50" width="280" height="195" rx="0" fill="#8AA6F9" fill-opacity="0.12" stroke="#0847F7" stroke-width="2"/>
  <rect x="490" y="50" width="280" height="30" fill="#0847F7"/>
  <g transform="translate(498,53) scale(0.085)">
    <path d="M123.5 0L0 70.9726V212.918L123.5 283.89L247 212.918V70.9726L123.5 0ZM194.679 182.837L123.523 223.728L52.3663 182.837V101.054L123.523 60.1621L194.679 101.054V182.837Z" fill="white"/>
  </g>
  <text x="528" y="71" fill="white" font-size="11" font-weight="600">W2 Proof of Reserve</text>
  <text x="535" y="99" fill="#6B7280" font-size="8" font-style="italic" text-anchor="end">12h</text>
  <rect x="538" y="88" width="186" height="22" rx="4" fill="white" stroke="#0847F7" stroke-width="1.5"/>
  <text x="631" y="103" text-anchor="middle" fill="#1a1a1a" font-size="10" font-weight="500">Chain Read</text>
  <line x1="631" y1="110" x2="631" y2="122" stroke="#0847F7" stroke-width="1.2" marker-end="url(#arrowDown)"/>
  <rect x="538" y="125" width="186" height="22" rx="4" fill="white" stroke="#0847F7" stroke-width="1.5"/>
  <text x="631" y="140" text-anchor="middle" fill="#1a1a1a" font-size="10" font-weight="500">HTTP Fetch</text>
  <line x1="631" y1="147" x2="631" y2="159" stroke="#0847F7" stroke-width="1.2" marker-end="url(#arrowDown)"/>
  <rect x="538" y="162" width="186" height="22" rx="4" fill="white" stroke="#0847F7" stroke-width="1.5"/>
  <text x="631" y="177" text-anchor="middle" fill="#1a1a1a" font-size="10" font-weight="500">Chain Write</text>
  <line x1="631" y1="184" x2="631" y2="198" stroke="#0847F7" stroke-width="1" stroke-dasharray="4,3" marker-end="url(#arrowDown)"/>
  <path d="M623,203 L639,203 L639,224 L619,224 L619,207 Z" fill="white" stroke="#1a1a1a" stroke-width="1" stroke-linejoin="round"/>
  <path d="M619,207 L623,207 L623,203" fill="#e5e7eb" stroke="#1a1a1a" stroke-width="0.8" stroke-linejoin="round"/>
  <text x="629" y="218" text-anchor="middle" fill="#1a1a1a" font-size="7">&lt;/&gt;</text>
  <circle cx="639" cy="203" r="7" fill="white" stroke="#1a1a1a" stroke-width="0.8"/>
  <g transform="translate(635,199) scale(0.033)">
    <path d="M123.5 0L0 70.9726V212.918L123.5 283.89L247 212.918V70.9726L123.5 0ZM194.679 182.837L123.523 223.728L52.3663 182.837V101.054L123.523 60.1621L194.679 101.054V182.837Z" fill="#0847F7"/>
  </g>
  <text x="535" y="140" fill="#6B7280" font-size="8" font-style="italic" text-anchor="end">PoR</text>
  <text x="535" y="177" fill="#6B7280" font-size="8" font-style="italic" text-anchor="end">report</text>

  <!-- ===== W4: Prediction Markets ===== -->
  <rect x="490" y="260" width="280" height="195" rx="0" fill="#16A34A" fill-opacity="0.08" stroke="#16A34A" stroke-width="2"/>
  <rect x="490" y="260" width="280" height="30" fill="#16A34A"/>
  <g transform="translate(498,263) scale(0.085)">
    <path d="M123.5 0L0 70.9726V212.918L123.5 283.89L247 212.918V70.9726L123.5 0ZM194.679 182.837L123.523 223.728L52.3663 182.837V101.054L123.523 60.1621L194.679 101.054V182.837Z" fill="white"/>
  </g>
  <text x="528" y="281" fill="white" font-size="11" font-weight="600">W4 Prediction Markets</text>
  <text x="535" y="309" fill="#6B7280" font-size="8" font-style="italic" text-anchor="end">6h</text>
  <rect x="538" y="298" width="186" height="22" rx="4" fill="white" stroke="#16A34A" stroke-width="1.5"/>
  <text x="631" y="313" text-anchor="middle" fill="#1a1a1a" font-size="10" font-weight="500">Chain Read</text>
  <line x1="631" y1="320" x2="631" y2="332" stroke="#16A34A" stroke-width="1.2" marker-end="url(#arrowDown)"/>
  <rect x="538" y="335" width="186" height="22" rx="4" fill="white" stroke="#16A34A" stroke-width="1.5"/>
  <text x="631" y="350" text-anchor="middle" fill="#1a1a1a" font-size="10" font-weight="500">Compute</text>
  <line x1="631" y1="357" x2="631" y2="369" stroke="#16A34A" stroke-width="1.2" marker-end="url(#arrowDown)"/>
  <rect x="538" y="372" width="186" height="22" rx="4" fill="white" stroke="#16A34A" stroke-width="1.5"/>
  <text x="631" y="387" text-anchor="middle" fill="#1a1a1a" font-size="10" font-weight="500">Chain Write</text>
  <line x1="631" y1="394" x2="631" y2="408" stroke="#16A34A" stroke-width="1" stroke-dasharray="4,3" marker-end="url(#arrowDown)"/>
  <path d="M623,413 L639,413 L639,434 L619,434 L619,417 Z" fill="white" stroke="#1a1a1a" stroke-width="1" stroke-linejoin="round"/>
  <path d="M619,417 L623,417 L623,413" fill="#e5e7eb" stroke="#1a1a1a" stroke-width="0.8" stroke-linejoin="round"/>
  <text x="629" y="428" text-anchor="middle" fill="#1a1a1a" font-size="7">&lt;/&gt;</text>
  <circle cx="639" cy="413" r="7" fill="white" stroke="#1a1a1a" stroke-width="0.8"/>
  <g transform="translate(635,409) scale(0.033)">
    <path d="M123.5 0L0 70.9726V212.918L123.5 283.89L247 212.918V70.9726L123.5 0ZM194.679 182.837L123.523 223.728L52.3663 182.837V101.054L123.523 60.1621L194.679 101.054V182.837Z" fill="#0847F7"/>
  </g>
  <text x="535" y="350" fill="#6B7280" font-size="8" font-style="italic" text-anchor="end">settle</text>
  <text x="535" y="387" fill="#6B7280" font-size="8" font-style="italic" text-anchor="end">payout</text>

  <!-- ===== W6: Compliance Oracle ===== -->
  <rect x="490" y="470" width="280" height="195" rx="0" fill="#8AA6F9" fill-opacity="0.12" stroke="#0847F7" stroke-width="2"/>
  <rect x="490" y="470" width="280" height="30" fill="#0847F7"/>
  <g transform="translate(498,473) scale(0.085)">
    <path d="M123.5 0L0 70.9726V212.918L123.5 283.89L247 212.918V70.9726L123.5 0ZM194.679 182.837L123.523 223.728L52.3663 182.837V101.054L123.523 60.1621L194.679 101.054V182.837Z" fill="white"/>
  </g>
  <text x="528" y="491" fill="white" font-size="11" font-weight="600">W6 Compliance Oracle</text>
  <text x="535" y="519" fill="#6B7280" font-size="8" font-style="italic" text-anchor="end">24h</text>
  <rect x="538" y="508" width="186" height="22" rx="4" fill="white" stroke="#0847F7" stroke-width="1.5"/>
  <text x="631" y="523" text-anchor="middle" fill="#1a1a1a" font-size="10" font-weight="500">Chain Read</text>
  <line x1="631" y1="530" x2="631" y2="542" stroke="#0847F7" stroke-width="1.2" marker-end="url(#arrowDown)"/>
  <rect x="538" y="545" width="186" height="22" rx="4" fill="white" stroke="#0847F7" stroke-width="1.5"/>
  <text x="631" y="560" text-anchor="middle" fill="#1a1a1a" font-size="10" font-weight="500">Compute</text>
  <line x1="631" y1="567" x2="631" y2="579" stroke="#0847F7" stroke-width="1.2" marker-end="url(#arrowDown)"/>
  <rect x="538" y="582" width="186" height="22" rx="4" fill="white" stroke="#0847F7" stroke-width="1.5"/>
  <text x="631" y="597" text-anchor="middle" fill="#1a1a1a" font-size="10" font-weight="500">Chain Write</text>
  <line x1="631" y1="604" x2="631" y2="618" stroke="#0847F7" stroke-width="1" stroke-dasharray="4,3" marker-end="url(#arrowDown)"/>
  <path d="M623,623 L639,623 L639,644 L619,644 L619,627 Z" fill="white" stroke="#1a1a1a" stroke-width="1" stroke-linejoin="round"/>
  <path d="M619,627 L623,627 L623,623" fill="#e5e7eb" stroke="#1a1a1a" stroke-width="0.8" stroke-linejoin="round"/>
  <text x="629" y="638" text-anchor="middle" fill="#1a1a1a" font-size="7">&lt;/&gt;</text>
  <circle cx="639" cy="623" r="7" fill="white" stroke="#1a1a1a" stroke-width="0.8"/>
  <g transform="translate(635,619) scale(0.033)">
    <path d="M123.5 0L0 70.9726V212.918L123.5 283.89L247 212.918V70.9726L123.5 0ZM194.679 182.837L123.523 223.728L52.3663 182.837V101.054L123.523 60.1621L194.679 101.054V182.837Z" fill="#0847F7"/>
  </g>
  <text x="535" y="560" fill="#6B7280" font-size="8" font-style="italic" text-anchor="end">MiCA</text>
  <text x="535" y="597" fill="#6B7280" font-size="8" font-style="italic" text-anchor="end">attest</text>

  <!-- ===== W8: World ID ===== -->
  <rect x="490" y="680" width="280" height="195" rx="0" fill="#7C3AED" fill-opacity="0.08" stroke="#7C3AED" stroke-width="2"/>
  <rect x="490" y="680" width="280" height="30" fill="#7C3AED"/>
  <g transform="translate(498,683) scale(0.085)">
    <path d="M123.5 0L0 70.9726V212.918L123.5 283.89L247 212.918V70.9726L123.5 0ZM194.679 182.837L123.523 223.728L52.3663 182.837V101.054L123.523 60.1621L194.679 101.054V182.837Z" fill="white"/>
  </g>
  <text x="528" y="701" fill="white" font-size="11" font-weight="600">W8 World ID</text>
  <text x="535" y="729" fill="#6B7280" font-size="8" font-style="italic" text-anchor="end">5m</text>
  <rect x="538" y="718" width="186" height="22" rx="4" fill="white" stroke="#7C3AED" stroke-width="1.5"/>
  <text x="631" y="733" text-anchor="middle" fill="#1a1a1a" font-size="10" font-weight="500">Chain Read</text>
  <line x1="631" y1="740" x2="631" y2="752" stroke="#7C3AED" stroke-width="1.2" marker-end="url(#arrowDown)"/>
  <rect x="538" y="755" width="186" height="22" rx="4" fill="white" stroke="#7C3AED" stroke-width="1.5"/>
  <text x="631" y="770" text-anchor="middle" fill="#1a1a1a" font-size="10" font-weight="500">HTTP / API</text>
  <line x1="631" y1="777" x2="631" y2="789" stroke="#7C3AED" stroke-width="1.2" marker-end="url(#arrowDown)"/>
  <rect x="538" y="792" width="186" height="22" rx="4" fill="white" stroke="#7C3AED" stroke-width="1.5"/>
  <text x="631" y="807" text-anchor="middle" fill="#1a1a1a" font-size="10" font-weight="500">Chain Write</text>
  <line x1="631" y1="814" x2="631" y2="828" stroke="#7C3AED" stroke-width="1" stroke-dasharray="4,3" marker-end="url(#arrowDown)"/>
  <path d="M623,833 L639,833 L639,854 L619,854 L619,837 Z" fill="white" stroke="#1a1a1a" stroke-width="1" stroke-linejoin="round"/>
  <path d="M619,837 L623,837 L623,833" fill="#e5e7eb" stroke="#1a1a1a" stroke-width="0.8" stroke-linejoin="round"/>
  <text x="629" y="848" text-anchor="middle" fill="#1a1a1a" font-size="7">&lt;/&gt;</text>
  <circle cx="639" cy="833" r="7" fill="white" stroke="#1a1a1a" stroke-width="0.8"/>
  <g transform="translate(635,829) scale(0.033)">
    <path d="M123.5 0L0 70.9726V212.918L123.5 283.89L247 212.918V70.9726L123.5 0ZM194.679 182.837L123.523 223.728L52.3663 182.837V101.054L123.523 60.1621L194.679 101.054V182.837Z" fill="#0847F7"/>
  </g>
  <text x="535" y="770" fill="#6B7280" font-size="8" font-style="italic" text-anchor="end">WLD</text>
  <text x="535" y="807" fill="#6B7280" font-size="8" font-style="italic" text-anchor="end">gate</text>

  <!-- ==================================================================== -->
  <!-- CROSS-WORKFLOW DATA FLOW ARROWS (the visual highlight)               -->
  <!-- ==================================================================== -->

  <!-- W1 -> W2: solid blue arrow labeled "carbon credits" -->
  <path d="M310,145 L490,145" fill="none" stroke="#0847F7" stroke-width="2.5" marker-end="url(#flowArrow)"/>
  <rect x="357" y="130" width="94" height="18" rx="3" fill="white" stroke="#0847F7" stroke-width="0.8"/>
  <text x="404" y="143" text-anchor="middle" fill="#0847F7" font-size="9" font-weight="600">carbon credits</text>

  <!-- W3 -> W5: solid blue arrow labeled "AI risk level" -->
  <path d="M171,455 L171,470" fill="none" stroke="#0847F7" stroke-width="2.5" marker-end="url(#flowArrow)"/>
  <rect x="179" y="453" width="80" height="18" rx="3" fill="white" stroke="#0847F7" stroke-width="0.8"/>
  <text x="219" y="466" text-anchor="middle" fill="#0847F7" font-size="9" font-weight="600">AI risk level</text>

  <!-- W1 -> W5: dashed blue arrow labeled "regen attestation" (routed left outside boxes) -->
  <path d="M30,200 L0,200 L0,510 L30,510" fill="none" stroke="#0847F7" stroke-width="2" stroke-dasharray="8,4" marker-end="url(#flowArrow)"/>
  <rect x="-15" y="336" width="34" height="40" rx="3" fill="white" stroke="#0847F7" stroke-width="0.8"/>
  <text x="2" y="352" text-anchor="middle" fill="#0847F7" font-size="8" font-weight="600">regen</text>
  <text x="2" y="364" text-anchor="middle" fill="#0847F7" font-size="8" font-weight="500">attest</text>

  <!-- W3 -> W1: dashed blue arrow labeled "AI verdict" (routed far right in gap, above carbon credits) -->
  <path d="M310,300 L460,300 L460,120 L310,120" fill="none" stroke="#0847F7" stroke-width="2.5" stroke-dasharray="8,4" marker-end="url(#flowArrow)"/>
  <rect x="463" y="195" width="75" height="18" rx="3" fill="white" stroke="#0847F7" stroke-width="0.8"/>
  <text x="501" y="208" text-anchor="middle" fill="#0847F7" font-size="9" font-weight="600">AI verdict</text>

  <!-- W7 -> W4: solid green arrow labeled "env. data feed" -->
  <path d="M310,770 L440,770 L440,400 L490,400" fill="none" stroke="#16A34A" stroke-width="2.5" marker-end="url(#flowArrowGreen)"/>
  <rect x="443" y="605" width="95" height="18" rx="3" fill="white" stroke="#16A34A" stroke-width="0.8"/>
  <text x="491" y="618" text-anchor="middle" fill="#16A34A" font-size="9" font-weight="600">env. data feed</text>

  <!-- W7 -> W3: dashed green arrow labeled "satellite data" (up from W7 to W3) -->
  <path d="M310,720 L395,720 L395,350 L310,350" fill="none" stroke="#16A34A" stroke-width="2.5" stroke-dasharray="8,4" marker-end="url(#flowArrowGreen)"/>
  <rect x="398" y="485" width="85" height="18" rx="3" fill="white" stroke="#16A34A" stroke-width="0.8"/>
  <text x="441" y="498" text-anchor="middle" fill="#16A34A" font-size="9" font-weight="600">satellite data</text>

  <!-- W8 -> Governance label with purple arrow -->
  <path d="M770,770 L790,770" fill="none" stroke="#7C3AED" stroke-width="2.5" marker-end="url(#flowArrowPurple)"/>
  <rect x="793" y="760" width="72" height="20" rx="4" fill="#7C3AED" fill-opacity="0.1" stroke="#7C3AED" stroke-width="1.2"/>
  <text x="829" y="774" text-anchor="middle" fill="#7C3AED" font-size="9" font-weight="600">Governance</text>

  <!-- ==================================================================== -->
  <!-- TENDERLY REGION (far right, on-chain contracts)                      -->
  <!-- ==================================================================== -->

  <rect x="880" y="50" width="330" height="830" rx="8" fill="#F5F3FF" fill-opacity="0.35" stroke="#6837EE" stroke-width="2" stroke-dasharray="8,5"/>
  <text x="1045" y="74" text-anchor="middle" fill="#6837EE" font-size="13" font-weight="600">On-Chain Contracts (Tenderly VNet)</text>

  <!-- Contract: ConfidentialFundingVault.sol (W1) -->
  <rect x="930" y="95" width="230" height="65" rx="6" fill="white" stroke="#e5e7eb" stroke-width="1.5"/>
  <text x="1045" y="115" text-anchor="middle" fill="#1a1a1a" font-size="12" font-weight="600">ConfidentialFundingVault.sol</text>
  <g transform="translate(1125,100) scale(0.05)">
    <path d="M212.521332,290.474915 C216.026886,293.578308 219.322052,296.383972 222.522064,299.294250 C246.724380,321.305176 240.959717,358.669464 210.941635,374.454926 C184.330643,388.448761 150.493912,376.351196 139.356140,348.861145 C132.007019,330.722229 137.307526,309.935028 153.288895,297.728394 C170.754272,284.388275 178.548080,266.483978 179.853516,245.218597 C180.271378,238.411499 180.149384,231.556915 179.979416,224.731400 C179.704697,213.700165 172.631454,208.843750 162.525558,213.085983 C146.624115,219.761078 134.772034,230.160370 130.069855,247.764099 C126.775711,260.096527 115.278198,267.565643 103.298645,266.709991 C90.673042,265.808197 80.772224,257.257599 78.395973,245.203415 C74.986389,227.907440 90.072647,212.085281 108.328331,214.581711 C124.465866,216.788483 139.076263,213.570160 152.659683,204.883270 C153.640869,204.255783 154.628738,203.633926 155.570190,202.949844 C164.245544,196.646042 163.920959,190.078781 154.402817,185.055939 C137.097687,175.923828 119.010185,170.310944 99.227829,175.000275 C91.991035,176.715714 85.091179,179.956177 77.819023,181.399536 C55.177525,185.893356 31.899712,168.176132 29.194962,144.854752 C26.514469,121.742516 44.553093,100.230537 67.714584,98.918144 C88.774246,97.724846 105.761673,107.864021 111.662323,126.968140 C117.885674,147.117020 131.128784,160.201843 149.427246,169.064240 C154.202042,171.376785 159.109528,173.548019 164.161819,175.124847 C172.451981,177.712204 178.290359,174.859848 179.237686,166.384857 C181.245087,148.425873 182.133347,130.260727 170.344818,114.623222 C167.072876,110.282974 163.200592,106.232811 159.000763,102.783806 C144.013870,90.476219 138.468826,74.397957 143.906677,57.632801 C149.524445,40.312874 165.616028,28.091072 183.953751,27.216412 C207.676666,26.084894 226.928665,40.454231 231.303680,63.474380 C234.074249,78.052315 228.982788,90.655457 217.674240,100.003166 C206.274933,109.425880 196.693283,119.976334 194.869156,135.052124 C193.619614,145.379181 193.787811,155.994949 194.494431,166.402039 C194.999908,173.846878 201.256699,177.794769 208.152130,175.581558 C226.552719,169.675583 243.316544,160.954590 254.171051,144.101913 C257.272125,139.287231 259.372894,133.680283 261.141907,128.182297 C267.417511,108.678108 284.018829,97.648224 305.785278,98.942902 C324.215332,100.039116 340.923798,114.938301 343.780029,133.706451 C346.135376,149.183456 341.224304,162.574829 328.886292,172.352875 C316.618256,182.075439 302.077057,185.867691 287.615265,179.463058 C264.337555,169.154144 242.768265,173.267792 221.384979,183.860229 C209.065811,189.962646 208.936813,196.890152 220.388611,204.482590 C234.036942,213.531326 248.822662,216.926697 265.099243,214.557739 C276.897339,212.840607 287.793793,218.720581 292.972046,228.881821 C297.972198,238.693588 296.626465,249.794830 288.758881,258.007843 C281.872650,265.196381 273.243683,268.130188 263.297852,266.019073 C252.893829,263.810699 245.825165,257.388519 243.248672,247.271866 C238.614639,229.076233 225.831207,219.109482 209.658676,212.446274 C202.248154,209.393051 195.445404,212.720963 194.667419,220.562256 C192.436142,243.051636 192.932022,265.279205 207.353485,284.573975 C208.843903,286.568024 210.622177,288.346893 212.521332,290.474915z" fill="#1a1a1a"/>
  </g>
  <rect x="975" y="126" width="140" height="22" rx="4" fill="#1a1a1a"/>
  <text x="1045" y="141" text-anchor="middle" fill="white" font-size="9" font-weight="500">receiveReport() &#x2190; W1</text>

  <!-- Contract: RegenProofOfReserve.sol (W2) -->
  <rect x="930" y="175" width="230" height="65" rx="6" fill="white" stroke="#e5e7eb" stroke-width="1.5"/>
  <text x="1045" y="195" text-anchor="middle" fill="#1a1a1a" font-size="12" font-weight="600">RegenProofOfReserve.sol</text>
  <g transform="translate(1125,180) scale(0.05)">
    <path d="M212.521332,290.474915 C216.026886,293.578308 219.322052,296.383972 222.522064,299.294250 C246.724380,321.305176 240.959717,358.669464 210.941635,374.454926 C184.330643,388.448761 150.493912,376.351196 139.356140,348.861145 C132.007019,330.722229 137.307526,309.935028 153.288895,297.728394 C170.754272,284.388275 178.548080,266.483978 179.853516,245.218597 C180.271378,238.411499 180.149384,231.556915 179.979416,224.731400 C179.704697,213.700165 172.631454,208.843750 162.525558,213.085983 C146.624115,219.761078 134.772034,230.160370 130.069855,247.764099 C126.775711,260.096527 115.278198,267.565643 103.298645,266.709991 C90.673042,265.808197 80.772224,257.257599 78.395973,245.203415 C74.986389,227.907440 90.072647,212.085281 108.328331,214.581711 C124.465866,216.788483 139.076263,213.570160 152.659683,204.883270 C153.640869,204.255783 154.628738,203.633926 155.570190,202.949844 C164.245544,196.646042 163.920959,190.078781 154.402817,185.055939 C137.097687,175.923828 119.010185,170.310944 99.227829,175.000275 C91.991035,176.715714 85.091179,179.956177 77.819023,181.399536 C55.177525,185.893356 31.899712,168.176132 29.194962,144.854752 C26.514469,121.742516 44.553093,100.230537 67.714584,98.918144 C88.774246,97.724846 105.761673,107.864021 111.662323,126.968140 C117.885674,147.117020 131.128784,160.201843 149.427246,169.064240 C154.202042,171.376785 159.109528,173.548019 164.161819,175.124847 C172.451981,177.712204 178.290359,174.859848 179.237686,166.384857 C181.245087,148.425873 182.133347,130.260727 170.344818,114.623222 C167.072876,110.282974 163.200592,106.232811 159.000763,102.783806 C144.013870,90.476219 138.468826,74.397957 143.906677,57.632801 C149.524445,40.312874 165.616028,28.091072 183.953751,27.216412 C207.676666,26.084894 226.928665,40.454231 231.303680,63.474380 C234.074249,78.052315 228.982788,90.655457 217.674240,100.003166 C206.274933,109.425880 196.693283,119.976334 194.869156,135.052124 C193.619614,145.379181 193.787811,155.994949 194.494431,166.402039 C194.999908,173.846878 201.256699,177.794769 208.152130,175.581558 C226.552719,169.675583 243.316544,160.954590 254.171051,144.101913 C257.272125,139.287231 259.372894,133.680283 261.141907,128.182297 C267.417511,108.678108 284.018829,97.648224 305.785278,98.942902 C324.215332,100.039116 340.923798,114.938301 343.780029,133.706451 C346.135376,149.183456 341.224304,162.574829 328.886292,172.352875 C316.618256,182.075439 302.077057,185.867691 287.615265,179.463058 C264.337555,169.154144 242.768265,173.267792 221.384979,183.860229 C209.065811,189.962646 208.936813,196.890152 220.388611,204.482590 C234.036942,213.531326 248.822662,216.926697 265.099243,214.557739 C276.897339,212.840607 287.793793,218.720581 292.972046,228.881821 C297.972198,238.693588 296.626465,249.794830 288.758881,258.007843 C281.872650,265.196381 273.243683,268.130188 263.297852,266.019073 C252.893829,263.810699 245.825165,257.388519 243.248672,247.271866 C238.614639,229.076233 225.831207,219.109482 209.658676,212.446274 C202.248154,209.393051 195.445404,212.720963 194.667419,220.562256 C192.436142,243.051636 192.932022,265.279205 207.353485,284.573975 C208.843903,286.568024 210.622177,288.346893 212.521332,290.474915z" fill="#1a1a1a"/>
  </g>
  <rect x="975" y="206" width="140" height="22" rx="4" fill="#1a1a1a"/>
  <text x="1045" y="221" text-anchor="middle" fill="white" font-size="9" font-weight="500">receiveReport() &#x2190; W2</text>

  <!-- Contract: AIAgentOrchestrator.sol (W3) -->
  <rect x="930" y="255" width="230" height="65" rx="6" fill="white" stroke="#e5e7eb" stroke-width="1.5"/>
  <text x="1045" y="275" text-anchor="middle" fill="#1a1a1a" font-size="12" font-weight="600">AIAgentOrchestrator.sol</text>
  <g transform="translate(1125,260) scale(0.05)">
    <path d="M212.521332,290.474915 C216.026886,293.578308 219.322052,296.383972 222.522064,299.294250 C246.724380,321.305176 240.959717,358.669464 210.941635,374.454926 C184.330643,388.448761 150.493912,376.351196 139.356140,348.861145 C132.007019,330.722229 137.307526,309.935028 153.288895,297.728394 C170.754272,284.388275 178.548080,266.483978 179.853516,245.218597 C180.271378,238.411499 180.149384,231.556915 179.979416,224.731400 C179.704697,213.700165 172.631454,208.843750 162.525558,213.085983 C146.624115,219.761078 134.772034,230.160370 130.069855,247.764099 C126.775711,260.096527 115.278198,267.565643 103.298645,266.709991 C90.673042,265.808197 80.772224,257.257599 78.395973,245.203415 C74.986389,227.907440 90.072647,212.085281 108.328331,214.581711 C124.465866,216.788483 139.076263,213.570160 152.659683,204.883270 C153.640869,204.255783 154.628738,203.633926 155.570190,202.949844 C164.245544,196.646042 163.920959,190.078781 154.402817,185.055939 C137.097687,175.923828 119.010185,170.310944 99.227829,175.000275 C91.991035,176.715714 85.091179,179.956177 77.819023,181.399536 C55.177525,185.893356 31.899712,168.176132 29.194962,144.854752 C26.514469,121.742516 44.553093,100.230537 67.714584,98.918144 C88.774246,97.724846 105.761673,107.864021 111.662323,126.968140 C117.885674,147.117020 131.128784,160.201843 149.427246,169.064240 C154.202042,171.376785 159.109528,173.548019 164.161819,175.124847 C172.451981,177.712204 178.290359,174.859848 179.237686,166.384857 C181.245087,148.425873 182.133347,130.260727 170.344818,114.623222 C167.072876,110.282974 163.200592,106.232811 159.000763,102.783806 C144.013870,90.476219 138.468826,74.397957 143.906677,57.632801 C149.524445,40.312874 165.616028,28.091072 183.953751,27.216412 C207.676666,26.084894 226.928665,40.454231 231.303680,63.474380 C234.074249,78.052315 228.982788,90.655457 217.674240,100.003166 C206.274933,109.425880 196.693283,119.976334 194.869156,135.052124 C193.619614,145.379181 193.787811,155.994949 194.494431,166.402039 C194.999908,173.846878 201.256699,177.794769 208.152130,175.581558 C226.552719,169.675583 243.316544,160.954590 254.171051,144.101913 C257.272125,139.287231 259.372894,133.680283 261.141907,128.182297 C267.417511,108.678108 284.018829,97.648224 305.785278,98.942902 C324.215332,100.039116 340.923798,114.938301 343.780029,133.706451 C346.135376,149.183456 341.224304,162.574829 328.886292,172.352875 C316.618256,182.075439 302.077057,185.867691 287.615265,179.463058 C264.337555,169.154144 242.768265,173.267792 221.384979,183.860229 C209.065811,189.962646 208.936813,196.890152 220.388611,204.482590 C234.036942,213.531326 248.822662,216.926697 265.099243,214.557739 C276.897339,212.840607 287.793793,218.720581 292.972046,228.881821 C297.972198,238.693588 296.626465,249.794830 288.758881,258.007843 C281.872650,265.196381 273.243683,268.130188 263.297852,266.019073 C252.893829,263.810699 245.825165,257.388519 243.248672,247.271866 C238.614639,229.076233 225.831207,219.109482 209.658676,212.446274 C202.248154,209.393051 195.445404,212.720963 194.667419,220.562256 C192.436142,243.051636 192.932022,265.279205 207.353485,284.573975 C208.843903,286.568024 210.622177,288.346893 212.521332,290.474915z" fill="#1a1a1a"/>
  </g>
  <rect x="975" y="286" width="140" height="22" rx="4" fill="#1a1a1a"/>
  <text x="1045" y="301" text-anchor="middle" fill="white" font-size="9" font-weight="500">receiveReport() &#x2190; W3</text>

  <!-- Contract: RegenPredictionMarket.sol (W4) -->
  <rect x="930" y="335" width="230" height="65" rx="6" fill="white" stroke="#e5e7eb" stroke-width="1.5"/>
  <text x="1045" y="355" text-anchor="middle" fill="#1a1a1a" font-size="12" font-weight="600">RegenPredictionMarket.sol</text>
  <g transform="translate(1125,340) scale(0.05)">
    <path d="M212.521332,290.474915 C216.026886,293.578308 219.322052,296.383972 222.522064,299.294250 C246.724380,321.305176 240.959717,358.669464 210.941635,374.454926 C184.330643,388.448761 150.493912,376.351196 139.356140,348.861145 C132.007019,330.722229 137.307526,309.935028 153.288895,297.728394 C170.754272,284.388275 178.548080,266.483978 179.853516,245.218597 C180.271378,238.411499 180.149384,231.556915 179.979416,224.731400 C179.704697,213.700165 172.631454,208.843750 162.525558,213.085983 C146.624115,219.761078 134.772034,230.160370 130.069855,247.764099 C126.775711,260.096527 115.278198,267.565643 103.298645,266.709991 C90.673042,265.808197 80.772224,257.257599 78.395973,245.203415 C74.986389,227.907440 90.072647,212.085281 108.328331,214.581711 C124.465866,216.788483 139.076263,213.570160 152.659683,204.883270 C153.640869,204.255783 154.628738,203.633926 155.570190,202.949844 C164.245544,196.646042 163.920959,190.078781 154.402817,185.055939 C137.097687,175.923828 119.010185,170.310944 99.227829,175.000275 C91.991035,176.715714 85.091179,179.956177 77.819023,181.399536 C55.177525,185.893356 31.899712,168.176132 29.194962,144.854752 C26.514469,121.742516 44.553093,100.230537 67.714584,98.918144 C88.774246,97.724846 105.761673,107.864021 111.662323,126.968140 C117.885674,147.117020 131.128784,160.201843 149.427246,169.064240 C154.202042,171.376785 159.109528,173.548019 164.161819,175.124847 C172.451981,177.712204 178.290359,174.859848 179.237686,166.384857 C181.245087,148.425873 182.133347,130.260727 170.344818,114.623222 C167.072876,110.282974 163.200592,106.232811 159.000763,102.783806 C144.013870,90.476219 138.468826,74.397957 143.906677,57.632801 C149.524445,40.312874 165.616028,28.091072 183.953751,27.216412 C207.676666,26.084894 226.928665,40.454231 231.303680,63.474380 C234.074249,78.052315 228.982788,90.655457 217.674240,100.003166 C206.274933,109.425880 196.693283,119.976334 194.869156,135.052124 C193.619614,145.379181 193.787811,155.994949 194.494431,166.402039 C194.999908,173.846878 201.256699,177.794769 208.152130,175.581558 C226.552719,169.675583 243.316544,160.954590 254.171051,144.101913 C257.272125,139.287231 259.372894,133.680283 261.141907,128.182297 C267.417511,108.678108 284.018829,97.648224 305.785278,98.942902 C324.215332,100.039116 340.923798,114.938301 343.780029,133.706451 C346.135376,149.183456 341.224304,162.574829 328.886292,172.352875 C316.618256,182.075439 302.077057,185.867691 287.615265,179.463058 C264.337555,169.154144 242.768265,173.267792 221.384979,183.860229 C209.065811,189.962646 208.936813,196.890152 220.388611,204.482590 C234.036942,213.531326 248.822662,216.926697 265.099243,214.557739 C276.897339,212.840607 287.793793,218.720581 292.972046,228.881821 C297.972198,238.693588 296.626465,249.794830 288.758881,258.007843 C281.872650,265.196381 273.243683,268.130188 263.297852,266.019073 C252.893829,263.810699 245.825165,257.388519 243.248672,247.271866 C238.614639,229.076233 225.831207,219.109482 209.658676,212.446274 C202.248154,209.393051 195.445404,212.720963 194.667419,220.562256 C192.436142,243.051636 192.932022,265.279205 207.353485,284.573975 C208.843903,286.568024 210.622177,288.346893 212.521332,290.474915z" fill="#1a1a1a"/>
  </g>
  <rect x="975" y="366" width="140" height="22" rx="4" fill="#1a1a1a"/>
  <text x="1045" y="381" text-anchor="middle" fill="white" font-size="9" font-weight="500">settleMarket() &#x2190; W4</text>

  <!-- Contract: ProtocolHealthMonitor.sol (W5) -->
  <rect x="930" y="415" width="230" height="65" rx="6" fill="white" stroke="#e5e7eb" stroke-width="1.5"/>
  <text x="1045" y="435" text-anchor="middle" fill="#1a1a1a" font-size="12" font-weight="600">ProtocolHealthMonitor.sol</text>
  <g transform="translate(1125,420) scale(0.05)">
    <path d="M212.521332,290.474915 C216.026886,293.578308 219.322052,296.383972 222.522064,299.294250 C246.724380,321.305176 240.959717,358.669464 210.941635,374.454926 C184.330643,388.448761 150.493912,376.351196 139.356140,348.861145 C132.007019,330.722229 137.307526,309.935028 153.288895,297.728394 C170.754272,284.388275 178.548080,266.483978 179.853516,245.218597 C180.271378,238.411499 180.149384,231.556915 179.979416,224.731400 C179.704697,213.700165 172.631454,208.843750 162.525558,213.085983 C146.624115,219.761078 134.772034,230.160370 130.069855,247.764099 C126.775711,260.096527 115.278198,267.565643 103.298645,266.709991 C90.673042,265.808197 80.772224,257.257599 78.395973,245.203415 C74.986389,227.907440 90.072647,212.085281 108.328331,214.581711 C124.465866,216.788483 139.076263,213.570160 152.659683,204.883270 C153.640869,204.255783 154.628738,203.633926 155.570190,202.949844 C164.245544,196.646042 163.920959,190.078781 154.402817,185.055939 C137.097687,175.923828 119.010185,170.310944 99.227829,175.000275 C91.991035,176.715714 85.091179,179.956177 77.819023,181.399536 C55.177525,185.893356 31.899712,168.176132 29.194962,144.854752 C26.514469,121.742516 44.553093,100.230537 67.714584,98.918144 C88.774246,97.724846 105.761673,107.864021 111.662323,126.968140 C117.885674,147.117020 131.128784,160.201843 149.427246,169.064240 C154.202042,171.376785 159.109528,173.548019 164.161819,175.124847 C172.451981,177.712204 178.290359,174.859848 179.237686,166.384857 C181.245087,148.425873 182.133347,130.260727 170.344818,114.623222 C167.072876,110.282974 163.200592,106.232811 159.000763,102.783806 C144.013870,90.476219 138.468826,74.397957 143.906677,57.632801 C149.524445,40.312874 165.616028,28.091072 183.953751,27.216412 C207.676666,26.084894 226.928665,40.454231 231.303680,63.474380 C234.074249,78.052315 228.982788,90.655457 217.674240,100.003166 C206.274933,109.425880 196.693283,119.976334 194.869156,135.052124 C193.619614,145.379181 193.787811,155.994949 194.494431,166.402039 C194.999908,173.846878 201.256699,177.794769 208.152130,175.581558 C226.552719,169.675583 243.316544,160.954590 254.171051,144.101913 C257.272125,139.287231 259.372894,133.680283 261.141907,128.182297 C267.417511,108.678108 284.018829,97.648224 305.785278,98.942902 C324.215332,100.039116 340.923798,114.938301 343.780029,133.706451 C346.135376,149.183456 341.224304,162.574829 328.886292,172.352875 C316.618256,182.075439 302.077057,185.867691 287.615265,179.463058 C264.337555,169.154144 242.768265,173.267792 221.384979,183.860229 C209.065811,189.962646 208.936813,196.890152 220.388611,204.482590 C234.036942,213.531326 248.822662,216.926697 265.099243,214.557739 C276.897339,212.840607 287.793793,218.720581 292.972046,228.881821 C297.972198,238.693588 296.626465,249.794830 288.758881,258.007843 C281.872650,265.196381 273.243683,268.130188 263.297852,266.019073 C252.893829,263.810699 245.825165,257.388519 243.248672,247.271866 C238.614639,229.076233 225.831207,219.109482 209.658676,212.446274 C202.248154,209.393051 195.445404,212.720963 194.667419,220.562256 C192.436142,243.051636 192.932022,265.279205 207.353485,284.573975 C208.843903,286.568024 210.622177,288.346893 212.521332,290.474915z" fill="#1a1a1a"/>
  </g>
  <rect x="975" y="446" width="140" height="22" rx="4" fill="#1a1a1a"/>
  <text x="1045" y="461" text-anchor="middle" fill="white" font-size="9" font-weight="500">receiveReport() &#x2190; W5</text>

  <!-- Contract: ComplianceOracle.sol (W6) -->
  <rect x="930" y="495" width="230" height="65" rx="6" fill="white" stroke="#e5e7eb" stroke-width="1.5"/>
  <text x="1045" y="515" text-anchor="middle" fill="#1a1a1a" font-size="12" font-weight="600">ComplianceOracle.sol</text>
  <g transform="translate(1125,500) scale(0.05)">
    <path d="M212.521332,290.474915 C216.026886,293.578308 219.322052,296.383972 222.522064,299.294250 C246.724380,321.305176 240.959717,358.669464 210.941635,374.454926 C184.330643,388.448761 150.493912,376.351196 139.356140,348.861145 C132.007019,330.722229 137.307526,309.935028 153.288895,297.728394 C170.754272,284.388275 178.548080,266.483978 179.853516,245.218597 C180.271378,238.411499 180.149384,231.556915 179.979416,224.731400 C179.704697,213.700165 172.631454,208.843750 162.525558,213.085983 C146.624115,219.761078 134.772034,230.160370 130.069855,247.764099 C126.775711,260.096527 115.278198,267.565643 103.298645,266.709991 C90.673042,265.808197 80.772224,257.257599 78.395973,245.203415 C74.986389,227.907440 90.072647,212.085281 108.328331,214.581711 C124.465866,216.788483 139.076263,213.570160 152.659683,204.883270 C153.640869,204.255783 154.628738,203.633926 155.570190,202.949844 C164.245544,196.646042 163.920959,190.078781 154.402817,185.055939 C137.097687,175.923828 119.010185,170.310944 99.227829,175.000275 C91.991035,176.715714 85.091179,179.956177 77.819023,181.399536 C55.177525,185.893356 31.899712,168.176132 29.194962,144.854752 C26.514469,121.742516 44.553093,100.230537 67.714584,98.918144 C88.774246,97.724846 105.761673,107.864021 111.662323,126.968140 C117.885674,147.117020 131.128784,160.201843 149.427246,169.064240 C154.202042,171.376785 159.109528,173.548019 164.161819,175.124847 C172.451981,177.712204 178.290359,174.859848 179.237686,166.384857 C181.245087,148.425873 182.133347,130.260727 170.344818,114.623222 C167.072876,110.282974 163.200592,106.232811 159.000763,102.783806 C144.013870,90.476219 138.468826,74.397957 143.906677,57.632801 C149.524445,40.312874 165.616028,28.091072 183.953751,27.216412 C207.676666,26.084894 226.928665,40.454231 231.303680,63.474380 C234.074249,78.052315 228.982788,90.655457 217.674240,100.003166 C206.274933,109.425880 196.693283,119.976334 194.869156,135.052124 C193.619614,145.379181 193.787811,155.994949 194.494431,166.402039 C194.999908,173.846878 201.256699,177.794769 208.152130,175.581558 C226.552719,169.675583 243.316544,160.954590 254.171051,144.101913 C257.272125,139.287231 259.372894,133.680283 261.141907,128.182297 C267.417511,108.678108 284.018829,97.648224 305.785278,98.942902 C324.215332,100.039116 340.923798,114.938301 343.780029,133.706451 C346.135376,149.183456 341.224304,162.574829 328.886292,172.352875 C316.618256,182.075439 302.077057,185.867691 287.615265,179.463058 C264.337555,169.154144 242.768265,173.267792 221.384979,183.860229 C209.065811,189.962646 208.936813,196.890152 220.388611,204.482590 C234.036942,213.531326 248.822662,216.926697 265.099243,214.557739 C276.897339,212.840607 287.793793,218.720581 292.972046,228.881821 C297.972198,238.693588 296.626465,249.794830 288.758881,258.007843 C281.872650,265.196381 273.243683,268.130188 263.297852,266.019073 C252.893829,263.810699 245.825165,257.388519 243.248672,247.271866 C238.614639,229.076233 225.831207,219.109482 209.658676,212.446274 C202.248154,209.393051 195.445404,212.720963 194.667419,220.562256 C192.436142,243.051636 192.932022,265.279205 207.353485,284.573975 C208.843903,286.568024 210.622177,288.346893 212.521332,290.474915z" fill="#1a1a1a"/>
  </g>
  <rect x="975" y="526" width="140" height="22" rx="4" fill="#1a1a1a"/>
  <text x="1045" y="541" text-anchor="middle" fill="white" font-size="9" font-weight="500">receiveReport() &#x2190; W6</text>

  <!-- Contract: SerraEstrelaNativeForest.sol (W7) -->
  <rect x="930" y="575" width="230" height="65" rx="6" fill="white" stroke="#e5e7eb" stroke-width="1.5"/>
  <text x="1045" y="595" text-anchor="middle" fill="#1a1a1a" font-size="12" font-weight="600">SerraEstrelaNativeForest.sol</text>
  <g transform="translate(1125,580) scale(0.05)">
    <path d="M212.521332,290.474915 C216.026886,293.578308 219.322052,296.383972 222.522064,299.294250 C246.724380,321.305176 240.959717,358.669464 210.941635,374.454926 C184.330643,388.448761 150.493912,376.351196 139.356140,348.861145 C132.007019,330.722229 137.307526,309.935028 153.288895,297.728394 C170.754272,284.388275 178.548080,266.483978 179.853516,245.218597 C180.271378,238.411499 180.149384,231.556915 179.979416,224.731400 C179.704697,213.700165 172.631454,208.843750 162.525558,213.085983 C146.624115,219.761078 134.772034,230.160370 130.069855,247.764099 C126.775711,260.096527 115.278198,267.565643 103.298645,266.709991 C90.673042,265.808197 80.772224,257.257599 78.395973,245.203415 C74.986389,227.907440 90.072647,212.085281 108.328331,214.581711 C124.465866,216.788483 139.076263,213.570160 152.659683,204.883270 C153.640869,204.255783 154.628738,203.633926 155.570190,202.949844 C164.245544,196.646042 163.920959,190.078781 154.402817,185.055939 C137.097687,175.923828 119.010185,170.310944 99.227829,175.000275 C91.991035,176.715714 85.091179,179.956177 77.819023,181.399536 C55.177525,185.893356 31.899712,168.176132 29.194962,144.854752 C26.514469,121.742516 44.553093,100.230537 67.714584,98.918144 C88.774246,97.724846 105.761673,107.864021 111.662323,126.968140 C117.885674,147.117020 131.128784,160.201843 149.427246,169.064240 C154.202042,171.376785 159.109528,173.548019 164.161819,175.124847 C172.451981,177.712204 178.290359,174.859848 179.237686,166.384857 C181.245087,148.425873 182.133347,130.260727 170.344818,114.623222 C167.072876,110.282974 163.200592,106.232811 159.000763,102.783806 C144.013870,90.476219 138.468826,74.397957 143.906677,57.632801 C149.524445,40.312874 165.616028,28.091072 183.953751,27.216412 C207.676666,26.084894 226.928665,40.454231 231.303680,63.474380 C234.074249,78.052315 228.982788,90.655457 217.674240,100.003166 C206.274933,109.425880 196.693283,119.976334 194.869156,135.052124 C193.619614,145.379181 193.787811,155.994949 194.494431,166.402039 C194.999908,173.846878 201.256699,177.794769 208.152130,175.581558 C226.552719,169.675583 243.316544,160.954590 254.171051,144.101913 C257.272125,139.287231 259.372894,133.680283 261.141907,128.182297 C267.417511,108.678108 284.018829,97.648224 305.785278,98.942902 C324.215332,100.039116 340.923798,114.938301 343.780029,133.706451 C346.135376,149.183456 341.224304,162.574829 328.886292,172.352875 C316.618256,182.075439 302.077057,185.867691 287.615265,179.463058 C264.337555,169.154144 242.768265,173.267792 221.384979,183.860229 C209.065811,189.962646 208.936813,196.890152 220.388611,204.482590 C234.036942,213.531326 248.822662,216.926697 265.099243,214.557739 C276.897339,212.840607 287.793793,218.720581 292.972046,228.881821 C297.972198,238.693588 296.626465,249.794830 288.758881,258.007843 C281.872650,265.196381 273.243683,268.130188 263.297852,266.019073 C252.893829,263.810699 245.825165,257.388519 243.248672,247.271866 C238.614639,229.076233 225.831207,219.109482 209.658676,212.446274 C202.248154,209.393051 195.445404,212.720963 194.667419,220.562256 C192.436142,243.051636 192.932022,265.279205 207.353485,284.573975 C208.843903,286.568024 210.622177,288.346893 212.521332,290.474915z" fill="#1a1a1a"/>
  </g>
  <rect x="975" y="606" width="140" height="22" rx="4" fill="#1a1a1a"/>
  <text x="1045" y="621" text-anchor="middle" fill="white" font-size="9" font-weight="500">receiveReport() &#x2190; W7</text>

  <!-- Contract: WorldIDGatekeeper.sol (W8) -->
  <rect x="930" y="655" width="230" height="65" rx="6" fill="white" stroke="#e5e7eb" stroke-width="1.5"/>
  <text x="1045" y="675" text-anchor="middle" fill="#1a1a1a" font-size="12" font-weight="600">WorldIDGatekeeper.sol</text>
  <g transform="translate(1125,660) scale(0.05)">
    <path d="M212.521332,290.474915 C216.026886,293.578308 219.322052,296.383972 222.522064,299.294250 C246.724380,321.305176 240.959717,358.669464 210.941635,374.454926 C184.330643,388.448761 150.493912,376.351196 139.356140,348.861145 C132.007019,330.722229 137.307526,309.935028 153.288895,297.728394 C170.754272,284.388275 178.548080,266.483978 179.853516,245.218597 C180.271378,238.411499 180.149384,231.556915 179.979416,224.731400 C179.704697,213.700165 172.631454,208.843750 162.525558,213.085983 C146.624115,219.761078 134.772034,230.160370 130.069855,247.764099 C126.775711,260.096527 115.278198,267.565643 103.298645,266.709991 C90.673042,265.808197 80.772224,257.257599 78.395973,245.203415 C74.986389,227.907440 90.072647,212.085281 108.328331,214.581711 C124.465866,216.788483 139.076263,213.570160 152.659683,204.883270 C153.640869,204.255783 154.628738,203.633926 155.570190,202.949844 C164.245544,196.646042 163.920959,190.078781 154.402817,185.055939 C137.097687,175.923828 119.010185,170.310944 99.227829,175.000275 C91.991035,176.715714 85.091179,179.956177 77.819023,181.399536 C55.177525,185.893356 31.899712,168.176132 29.194962,144.854752 C26.514469,121.742516 44.553093,100.230537 67.714584,98.918144 C88.774246,97.724846 105.761673,107.864021 111.662323,126.968140 C117.885674,147.117020 131.128784,160.201843 149.427246,169.064240 C154.202042,171.376785 159.109528,173.548019 164.161819,175.124847 C172.451981,177.712204 178.290359,174.859848 179.237686,166.384857 C181.245087,148.425873 182.133347,130.260727 170.344818,114.623222 C167.072876,110.282974 163.200592,106.232811 159.000763,102.783806 C144.013870,90.476219 138.468826,74.397957 143.906677,57.632801 C149.524445,40.312874 165.616028,28.091072 183.953751,27.216412 C207.676666,26.084894 226.928665,40.454231 231.303680,63.474380 C234.074249,78.052315 228.982788,90.655457 217.674240,100.003166 C206.274933,109.425880 196.693283,119.976334 194.869156,135.052124 C193.619614,145.379181 193.787811,155.994949 194.494431,166.402039 C194.999908,173.846878 201.256699,177.794769 208.152130,175.581558 C226.552719,169.675583 243.316544,160.954590 254.171051,144.101913 C257.272125,139.287231 259.372894,133.680283 261.141907,128.182297 C267.417511,108.678108 284.018829,97.648224 305.785278,98.942902 C324.215332,100.039116 340.923798,114.938301 343.780029,133.706451 C346.135376,149.183456 341.224304,162.574829 328.886292,172.352875 C316.618256,182.075439 302.077057,185.867691 287.615265,179.463058 C264.337555,169.154144 242.768265,173.267792 221.384979,183.860229 C209.065811,189.962646 208.936813,196.890152 220.388611,204.482590 C234.036942,213.531326 248.822662,216.926697 265.099243,214.557739 C276.897339,212.840607 287.793793,218.720581 292.972046,228.881821 C297.972198,238.693588 296.626465,249.794830 288.758881,258.007843 C281.872650,265.196381 273.243683,268.130188 263.297852,266.019073 C252.893829,263.810699 245.825165,257.388519 243.248672,247.271866 C238.614639,229.076233 225.831207,219.109482 209.658676,212.446274 C202.248154,209.393051 195.445404,212.720963 194.667419,220.562256 C192.436142,243.051636 192.932022,265.279205 207.353485,284.573975 C208.843903,286.568024 210.622177,288.346893 212.521332,290.474915z" fill="#1a1a1a"/>
  </g>
  <rect x="975" y="686" width="140" height="22" rx="4" fill="#1a1a1a"/>
  <text x="1045" y="701" text-anchor="middle" fill="white" font-size="9" font-weight="500">verifyIdentity() &#x2190; W8</text>

  <!-- Contract: LaunchpadGovernance.sol (shared read) -->
  <rect x="930" y="735" width="230" height="65" rx="6" fill="white" stroke="#e5e7eb" stroke-width="1.5"/>
  <text x="1045" y="755" text-anchor="middle" fill="#1a1a1a" font-size="12" font-weight="600">LaunchpadGovernance.sol</text>
  <g transform="translate(1125,740) scale(0.05)">
    <path d="M212.521332,290.474915 C216.026886,293.578308 219.322052,296.383972 222.522064,299.294250 C246.724380,321.305176 240.959717,358.669464 210.941635,374.454926 C184.330643,388.448761 150.493912,376.351196 139.356140,348.861145 C132.007019,330.722229 137.307526,309.935028 153.288895,297.728394 C170.754272,284.388275 178.548080,266.483978 179.853516,245.218597 C180.271378,238.411499 180.149384,231.556915 179.979416,224.731400 C179.704697,213.700165 172.631454,208.843750 162.525558,213.085983 C146.624115,219.761078 134.772034,230.160370 130.069855,247.764099 C126.775711,260.096527 115.278198,267.565643 103.298645,266.709991 C90.673042,265.808197 80.772224,257.257599 78.395973,245.203415 C74.986389,227.907440 90.072647,212.085281 108.328331,214.581711 C124.465866,216.788483 139.076263,213.570160 152.659683,204.883270 C153.640869,204.255783 154.628738,203.633926 155.570190,202.949844 C164.245544,196.646042 163.920959,190.078781 154.402817,185.055939 C137.097687,175.923828 119.010185,170.310944 99.227829,175.000275 C91.991035,176.715714 85.091179,179.956177 77.819023,181.399536 C55.177525,185.893356 31.899712,168.176132 29.194962,144.854752 C26.514469,121.742516 44.553093,100.230537 67.714584,98.918144 C88.774246,97.724846 105.761673,107.864021 111.662323,126.968140 C117.885674,147.117020 131.128784,160.201843 149.427246,169.064240 C154.202042,171.376785 159.109528,173.548019 164.161819,175.124847 C172.451981,177.712204 178.290359,174.859848 179.237686,166.384857 C181.245087,148.425873 182.133347,130.260727 170.344818,114.623222 C167.072876,110.282974 163.200592,106.232811 159.000763,102.783806 C144.013870,90.476219 138.468826,74.397957 143.906677,57.632801 C149.524445,40.312874 165.616028,28.091072 183.953751,27.216412 C207.676666,26.084894 226.928665,40.454231 231.303680,63.474380 C234.074249,78.052315 228.982788,90.655457 217.674240,100.003166 C206.274933,109.425880 196.693283,119.976334 194.869156,135.052124 C193.619614,145.379181 193.787811,155.994949 194.494431,166.402039 C194.999908,173.846878 201.256699,177.794769 208.152130,175.581558 C226.552719,169.675583 243.316544,160.954590 254.171051,144.101913 C257.272125,139.287231 259.372894,133.680283 261.141907,128.182297 C267.417511,108.678108 284.018829,97.648224 305.785278,98.942902 C324.215332,100.039116 340.923798,114.938301 343.780029,133.706451 C346.135376,149.183456 341.224304,162.574829 328.886292,172.352875 C316.618256,182.075439 302.077057,185.867691 287.615265,179.463058 C264.337555,169.154144 242.768265,173.267792 221.384979,183.860229 C209.065811,189.962646 208.936813,196.890152 220.388611,204.482590 C234.036942,213.531326 248.822662,216.926697 265.099243,214.557739 C276.897339,212.840607 287.793793,218.720581 292.972046,228.881821 C297.972198,238.693588 296.626465,249.794830 288.758881,258.007843 C281.872650,265.196381 273.243683,268.130188 263.297852,266.019073 C252.893829,263.810699 245.825165,257.388519 243.248672,247.271866 C238.614639,229.076233 225.831207,219.109482 209.658676,212.446274 C202.248154,209.393051 195.445404,212.720963 194.667419,220.562256 C192.436142,243.051636 192.932022,265.279205 207.353485,284.573975 C208.843903,286.568024 210.622177,288.346893 212.521332,290.474915z" fill="#1a1a1a"/>
  </g>
  <rect x="940" y="766" width="210" height="22" rx="4" fill="#1a1a1a"/>
  <text x="1045" y="781" text-anchor="middle" fill="white" font-size="9" font-weight="500">proposalCount() / getProposal()</text>

  <!-- Tenderly logo + Custom Testnet -->
  <g transform="translate(1028,820) scale(0.1)">
    <path d="M174.71,239.01v107.34l-88.28-49.28v-83.15c-.03-56.72-17.73-91.51-40.1-117.23C23.97,70.98.32,51.19.32,51.19l93.59,54.04c26.71,15.31,80.77,61.1,80.8,133.78Z" fill="#6837ee"/>
    <path d="M93.91,105.24L.32,51.19,87.5,0l71.97,41.94c49.1,28.58,88.15,30.89,121.69,24.59,33.53-6.3,65.51-16.16,65.51-16.16l-94.15,52.91c-26.72,15.29-95.69,38.59-158.61,1.96Z" fill="#cfc0ff"/>
    <path d="M252.52,103.27l94.15-52.91v100.92l-72.52,40.99c-49.45,27.98-71.07,60.5-82.47,92.59-11.4,32.08-16.97,61.49-16.97,61.49v-107.34c.18-30.73,14.44-99.88,77.81-135.74Z" fill="#9273ff"/>
  </g>
  <text x="1045" y="868" text-anchor="middle" fill="#191919" font-size="13" font-weight="600">Custom Testnet</text>

  <!-- ==================================================================== -->
  <!-- EXTERNAL DATA SOURCES (bottom section)                               -->
  <!-- ==================================================================== -->

  <line x1="30" y1="895" x2="780" y2="895" stroke="#E5E7EB" stroke-width="1" stroke-dasharray="4,4"/>
  <text x="30" y="920" fill="#6B7280" font-size="13" font-weight="600">External Data Sources</text>

  <!-- Copernicus -->
  <rect x="30" y="932" width="115" height="52" rx="8" fill="#EFF6FF" fill-opacity="0.5" stroke="#0847F7" stroke-width="1.5" stroke-dasharray="6,4"/>
  <circle cx="45" cy="952" r="4" fill="#0847F7"/>
  <text x="53" y="956" fill="#0847F7" font-size="10" font-weight="600">Copernicus</text>
  <text x="45" y="972" fill="#6B7280" font-size="8">Sentinel-2 NDVI &#x2192; W7</text>

  <!-- SoilGrids -->
  <rect x="155" y="932" width="115" height="52" rx="8" fill="#EFF6FF" fill-opacity="0.5" stroke="#0847F7" stroke-width="1.5" stroke-dasharray="6,4"/>
  <circle cx="170" cy="952" r="4" fill="#22C55E"/>
  <text x="178" y="956" fill="#0847F7" font-size="10" font-weight="600">SoilGrids</text>
  <text x="170" y="972" fill="#6B7280" font-size="8">Soil carbon &#x2192; W7</text>

  <!-- GFW -->
  <rect x="280" y="932" width="115" height="52" rx="8" fill="#EFF6FF" fill-opacity="0.5" stroke="#0847F7" stroke-width="1.5" stroke-dasharray="6,4"/>
  <circle cx="295" cy="952" r="4" fill="#16A34A"/>
  <text x="303" y="956" fill="#0847F7" font-size="10" font-weight="600">GFW</text>
  <text x="295" y="972" fill="#6B7280" font-size="8">Tree canopy &#x2192; W3</text>

  <!-- Open-Meteo -->
  <rect x="405" y="932" width="115" height="52" rx="8" fill="#EFF6FF" fill-opacity="0.5" stroke="#0847F7" stroke-width="1.5" stroke-dasharray="6,4"/>
  <circle cx="420" cy="952" r="4" fill="#F97316"/>
  <text x="428" y="956" fill="#0847F7" font-size="10" font-weight="600">Open-Meteo</text>
  <text x="420" y="972" fill="#6B7280" font-size="8">Weather &#x2192; W7</text>

  <!-- Groq LLM -->
  <rect x="530" y="932" width="115" height="52" rx="8" fill="#EFF6FF" fill-opacity="0.5" stroke="#0847F7" stroke-width="1.5" stroke-dasharray="6,4"/>
  <circle cx="545" cy="952" r="4" fill="#0847F7"/>
  <text x="553" y="956" fill="#0847F7" font-size="10" font-weight="600">Groq LLM</text>
  <text x="545" y="972" fill="#6B7280" font-size="8">Llama 3.3 70B &#x2192; W3</text>

  <!-- Worldcoin API -->
  <rect x="655" y="932" width="115" height="52" rx="8" fill="#EFF6FF" fill-opacity="0.5" stroke="#7C3AED" stroke-width="1.5" stroke-dasharray="6,4"/>
  <circle cx="670" cy="952" r="4" fill="#7C3AED"/>
  <text x="678" y="956" fill="#7C3AED" font-size="10" font-weight="600">Worldcoin</text>
  <text x="670" y="972" fill="#6B7280" font-size="8">World ID &#x2192; W8</text>

  <!-- ==================================================================== -->
  <!-- DATA FLOW SUMMARY TABLE (bottom)                                     -->
  <!-- ==================================================================== -->

  <rect x="30" y="995" width="740" height="28" rx="4" fill="#F9FAFB" stroke="#E5E7EB" stroke-width="1"/>
  <text x="45" y="1013" fill="#0847F7" font-size="9" font-weight="600">W1&#x2192;W2</text>
  <text x="85" y="1013" fill="#6B7280" font-size="9">credits</text>
  <text x="145" y="1013" fill="#0847F7" font-size="9" font-weight="600">W3&#x2192;W5</text>
  <text x="185" y="1013" fill="#6B7280" font-size="9">AI risk</text>
  <text x="245" y="1013" fill="#0847F7" font-size="9" font-weight="600">W1&#x2192;W5</text>
  <text x="285" y="1013" fill="#6B7280" font-size="9">attestation</text>
  <text x="365" y="1013" fill="#0847F7" font-size="9" font-weight="600">W3&#x2192;W1</text>
  <text x="405" y="1013" fill="#6B7280" font-size="9">AI verdict</text>
  <text x="485" y="1013" fill="#16A34A" font-size="9" font-weight="600">W7&#x2192;W4</text>
  <text x="525" y="1013" fill="#6B7280" font-size="9">env. feed</text>
  <text x="600" y="1013" fill="#16A34A" font-size="9" font-weight="600">W7&#x2192;W3</text>
  <text x="640" y="1013" fill="#6B7280" font-size="9">satellite</text>
  <text x="710" y="1013" fill="#7C3AED" font-size="9" font-weight="600">W8&#x2192;Gov</text>

  </g>
</svg>