<svg xmlns="http://www.w3.org/2000/svg" viewBox="0 0 1100 830" font-family="Inter, -apple-system, BlinkMacSystemFont, 'Segoe UI', Roboto, sans-serif">
  <defs>
    <marker id="arrowDown" viewBox="0 0 7 10" refX="3.5" refY="10" markerWidth="7" markerHeight="10" orient="0">
      <polygon points="0 0, 7 0, 3.5 10" fill="#0847F7"/>
    </marker>
    <marker id="arrowRight" viewBox="0 0 10 7" refX="10" refY="3.5" markerWidth="10" markerHeight="7" orient="0">
      <polygon points="0 0, 10 3.5, 0 7" fill="#1a1a1a"/>
    </marker>
    <marker id="arrowLeft" viewBox="0 0 10 7" refX="0" refY="3.5" markerWidth="10" markerHeight="7" orient="0">
      <polygon points="10 0, 0 3.5, 10 7" fill="#1a1a1a"/>
    </marker>
    <marker id="arrowDownGreen" viewBox="0 0 7 10" refX="3.5" refY="10" markerWidth="7" markerHeight="10" orient="0">
      <polygon points="0 0, 7 0, 3.5 10" fill="#16A34A"/>
    </marker>
    <marker id="arrowDownRed" viewBox="0 0 7 10" refX="3.5" refY="10" markerWidth="7" markerHeight="10" orient="0">
      <polygon points="0 0, 7 0, 3.5 10" fill="#DC2626"/>
    </marker>
    <clipPath id="hexClip">
      <polygon points="503,5 950,265 950,780 503,1040 53,780 53,265"/>
    </clipPath>
  </defs>

  <rect width="1100" height="830" fill="white"/>

  <!-- ============================================================ -->
  <!-- HEADER BANNER -->
  <!-- ============================================================ -->
  <rect x="0" y="0" width="1100" height="70" fill="#0847F7"/>
  <g transform="translate(1020,8) scale(0.13)">
    <path d="M123.5 0L0 70.9726V212.918L123.5 283.89L247 212.918V70.9726L123.5 0ZM194.679 182.837L123.523 223.728L52.3663 182.837V101.054L123.523 60.1621L194.679 101.054V182.837Z" fill="white"/>
  </g>
  <text x="30" y="28" fill="white" font-size="12" font-weight="400" letter-spacing="2.5">CHAINLINK CRE</text>
  <text x="30" y="54" fill="white" font-size="22" font-weight="700">Workflow 6 — Compliant Private Transfers</text>

  <g transform="translate(0,70)">

  <!-- ============================================================ -->
  <!-- ACE IDENTITY MANAGER LABEL (top center) -->
  <!-- ============================================================ -->
  <rect x="385" y="400" width="150" height="22" rx="11" fill="#0847F7"/>
  <text x="460" y="415" text-anchor="middle" fill="white" font-size="10" font-weight="600">ACE Identity Manager</text>


  <!-- ============================================================ -->
  <!-- CRE WORKFLOW BOX (left column) -->
  <!-- ============================================================ -->
  <rect x="30" y="125" width="340" height="500" rx="0" fill="#8AA6F9" fill-opacity="0.12" stroke="#0847F7" stroke-width="2"/>
  <rect x="30" y="125" width="340" height="48" fill="#0847F7"/>
  <g transform="translate(44,129) scale(0.12)">
    <path d="M123.5 0L0 70.9726V212.918L123.5 283.89L247 212.918V70.9726L123.5 0ZM194.679 182.837L123.523 223.728L52.3663 182.837V101.054L123.523 60.1621L194.679 101.054V182.837Z" fill="white"/>
  </g>
  <text x="82" y="156" fill="white" font-size="18" font-weight="600">CRE Workflow</text>

  <!-- CRON Trigger (centered) -->
  <rect x="110" y="178" width="180" height="28" rx="14" fill="white" stroke="#0847F7" stroke-width="1.5"/>
  <text x="200" y="196" text-anchor="middle" fill="#1a1a1a" font-size="13" font-weight="500">CRON Trigger</text>
  <text x="200" y="217" text-anchor="middle" fill="#6B7280" font-size="11" font-style="italic">every 60s</text>

  <!-- Down arrow from CRON to step 1 -->
  <line x1="200" y1="225" x2="200" y2="240" stroke="#0847F7" stroke-width="1.5" marker-end="url(#arrowDown)"/>

  <!-- Step 1: Read Vault -->
  <rect x="80" y="235" width="230" height="40" rx="4" fill="white" stroke="#0847F7" stroke-width="1.5"/>
  <text x="195" y="260" text-anchor="middle" fill="#1a1a1a" font-size="14" font-weight="500">Read Vault</text>

  <!-- Down arrow to step 2 -->
  <line x1="195" y1="275" x2="195" y2="325" stroke="#0847F7" stroke-width="1.5" marker-end="url(#arrowDown)"/>

  <!-- Step 2: Read Policy -->
  <rect x="80" y="335" width="230" height="40" rx="4" fill="white" stroke="#0847F7" stroke-width="1.5"/>
  <text x="195" y="360" text-anchor="middle" fill="#1a1a1a" font-size="14" font-weight="500">Read Policy</text>

  <!-- Down arrow to step 3 -->
  <line x1="195" y1="375" x2="195" y2="430" stroke="#0847F7" stroke-width="1.5" marker-end="url(#arrowDown)"/>

  <!-- Step 3: Write Decision -->
  <rect x="80" y="440" width="230" height="40" rx="4" fill="white" stroke="#0847F7" stroke-width="1.5"/>
  <text x="195" y="465" text-anchor="middle" fill="#1a1a1a" font-size="14" font-weight="500">Write Decision</text>

  <!-- Dashed down arrow to forwarder -->
  <line x1="195" y1="480" x2="195" y2="520" stroke="#0847F7" stroke-width="1.5" stroke-dasharray="6,4" marker-end="url(#arrowDown)"/>

  <!-- CRE Forwarder -->
  <path d="M180,530 L210,530 L210,572 L170,572 L170,540 Z" fill="white" stroke="#1a1a1a" stroke-width="1.2" stroke-linejoin="round"/>
  <path d="M170,540 L180,540 L180,530" fill="#e5e7eb" stroke="#1a1a1a" stroke-width="1" stroke-linejoin="round"/>
  <text x="190" y="560" text-anchor="middle" fill="#1a1a1a" font-size="11">&lt;/&gt;</text>
  <circle cx="210" cy="530" r="10" fill="white" stroke="#1a1a1a" stroke-width="1.2"/>
  <g transform="translate(204,524) scale(0.05)">
    <path d="M123.5 0L0 70.9726V212.918L123.5 283.89L247 212.918V70.9726L123.5 0ZM194.679 182.837L123.523 223.728L52.3663 182.837V101.054L123.523 60.1621L194.679 101.054V182.837Z" fill="#0847F7"/>
  </g>
  <text x="190" y="590" text-anchor="middle" fill="#1a1a1a" font-size="11" font-weight="600">CRE Forwarder</text>

  <!-- ============================================================ -->
  <!-- CHAIN REGION (right column) -->
  <!-- ============================================================ -->
  <rect x="580" y="125" width="490" height="500" rx="8" fill="#F5F3FF" fill-opacity="0.35" stroke="#6837EE" stroke-width="2" stroke-dasharray="8,5"/>

  <!-- USER ENTRY POINT label -->
  <text x="825" y="150" text-anchor="middle" fill="#0847F7" font-size="11" font-weight="700" letter-spacing="1.5">USER ENTRY POINT</text>

  <!-- CompliantPrivateVault.sol — aligned with Step 1 (center y=255) -->
  <rect x="610" y="180" width="440" height="100" rx="6" fill="white" stroke="#0847F7" stroke-width="2"/>
  <rect x="610" y="180" width="5" height="100" rx="2" fill="#0847F7"/>
  <text x="830" y="210" text-anchor="middle" fill="#1a1a1a" font-size="15" font-weight="600">CompliantPrivateVault.sol</text>
  <rect x="635" y="228" width="140" height="22" rx="4" fill="#1a1a1a"/>
  <text x="705" y="243" text-anchor="middle" fill="white" font-size="10" font-weight="500">requestDeposit()</text>
  <text x="830" y="267" fill="#6B7280" font-size="10" font-style="italic" text-anchor="middle">ETH held in escrow until compliance clears</text>

  <!-- R00tPolicyEngine.sol — aligned with Step 2 (center y=355) -->
  <rect x="610" y="318" width="440" height="75" rx="6" fill="white" stroke="#e5e7eb" stroke-width="1.5"/>
  <text x="830" y="348" text-anchor="middle" fill="#1a1a1a" font-size="15" font-weight="600">R00tPolicyEngine.sol</text>
  <rect x="635" y="362" width="240" height="22" rx="4" fill="#1a1a1a"/>
  <text x="755" y="377" text-anchor="middle" fill="white" font-size="10" font-weight="500">checkPrivateTransferAllowed()</text>

  <!-- Label showing what happens after decision -->
  <text x="825" y="420" text-anchor="middle" fill="#6B7280" font-size="10" font-style="italic">authorizeTransfer() / denyTransfer()</text>

  <!-- Fork rail (thin gray line connecting the two outcomes) -->
  <line x1="650" y1="460" x2="980" y2="460" stroke="#e5e7eb" stroke-width="1.5"/>

  <!-- authorized pill + green drop -->
  <rect x="680" y="445" width="90" height="22" rx="11" fill="#16A34A"/>
  <text x="725" y="460" text-anchor="middle" fill="white" font-size="10" font-weight="600">authorized</text>
  <line x1="725" y1="467" x2="725" y2="500" stroke="#16A34A" stroke-width="2" marker-end="url(#arrowDownGreen)"/>

  <!-- denied pill + red drop -->
  <rect x="910" y="445" width="60" height="22" rx="11" fill="#DC2626"/>
  <text x="940" y="460" text-anchor="middle" fill="white" font-size="10" font-weight="600">denied</text>
  <line x1="940" y1="467" x2="940" y2="500" stroke="#DC2626" stroke-width="2" marker-end="url(#arrowDownRed)"/>

  <!-- ZkAMMPair.sol (authorized destination) -->
  <rect x="610" y="510" width="230" height="85" rx="6" fill="white" stroke="#16A34A" stroke-width="2"/>
  <rect x="610" y="510" width="5" height="85" rx="2" fill="#16A34A"/>
  <text x="725" y="537" text-anchor="middle" fill="#1a1a1a" font-size="14" font-weight="600">ZkAMMPair.sol</text>
  <text x="725" y="555" text-anchor="middle" fill="#16A34A" font-size="10" font-weight="600">DESTINATION</text>
  <rect x="640" y="565" width="168" height="20" rx="4" fill="#1a1a1a"/>
  <text x="724" y="579" text-anchor="middle" fill="white" font-size="9" font-weight="500">insertCommitmentFromCRE()</text>

  <!-- Refund box (denied path) -->
  <rect x="860" y="510" width="190" height="85" rx="6" fill="white" stroke="#DC2626" stroke-width="1.5"/>
  <text x="955" y="540" text-anchor="middle" fill="#DC2626" font-size="14" font-weight="600">Refund</text>
  <text x="955" y="560" text-anchor="middle" fill="#6B7280" font-size="11">ETH returned</text>
  <text x="955" y="576" text-anchor="middle" fill="#6B7280" font-size="11">to user</text>

  <!-- ============================================================ -->
  <!-- HORIZONTAL ARROWS -->
  <!-- ============================================================ -->

  <!-- Arrow 1: CompliantPrivateVault → Read Vault (y=255, RIGHT to LEFT) -->
  <line x1="610" y1="255" x2="310" y2="255" stroke="#1a1a1a" stroke-width="1.5" marker-end="url(#arrowLeft)"/>
  <text x="460" y="248" text-anchor="middle" fill="#6B7280" font-size="9" font-style="italic">pending deposits</text>

  <!-- Arrow 2: R00tPolicyEngine → Read Policy (y=355, RIGHT to LEFT) with Chainlink symbol -->
  <line x1="610" y1="355" x2="512" y2="355" stroke="#1a1a1a" stroke-width="1.5"/>
  <line x1="408" y1="355" x2="310" y2="355" stroke="#1a1a1a" stroke-width="1.5" marker-end="url(#arrowLeft)"/>
  <text x="460" y="300" text-anchor="middle" fill="#6B7280" font-size="9" font-style="italic">compliance rules</text>
  <!-- Chainlink hexagon symbol: blue bg + white evenodd pattern -->
  <g transform="translate(415,308) scale(0.09)" clip-path="url(#hexClip)">
    <!-- Blue hexagon background (so holes in Path 2 show blue) -->
    <polygon points="503,5 950,265 950,780 503,1040 53,780 53,265" fill="#0847F7"/>
    <!-- Path 1: hex ring (blue, blends with bg) -->
    <path d="M 507.21 1032.87 C504.29,1034.59 501.59,1035.97 501.21,1035.94 C500.82,1035.91 495.10,1032.71 488.50,1028.82 C481.90,1024.93 454.23,1008.92 427.00,993.24 C399.77,977.55 372.33,961.69 366.00,957.98 C359.67,954.28 336.95,941.13 315.50,928.76 C275.02,905.42 263.71,898.89 247.25,889.35 C241.89,886.24 228.50,878.51 217.50,872.17 C177.34,849.02 152.77,834.83 118.50,815.01 C99.25,803.88 77.54,791.38 70.25,787.24 L 57.00 779.71 L 57.00 265.38 L 69.75 258.00 C96.78,242.33 132.93,221.47 142.50,216.01 C148.00,212.87 159.70,206.13 168.50,201.02 C188.59,189.37 208.61,177.80 245.50,156.51 C261.45,147.31 281.92,135.48 291.00,130.22 C356.29,92.39 376.06,81.00 376.41,81.00 C376.59,81.00 380.96,78.46 386.12,75.36 C391.28,72.25 397.30,68.73 399.50,67.52 C401.70,66.32 407.77,62.85 413.00,59.80 C430.43,49.64 442.36,42.74 458.50,33.48 C467.30,28.43 480.53,20.84 487.89,16.62 C495.26,12.39 501.56,9.06 501.89,9.21 C503.53,9.98 518.32,18.42 534.50,27.82 C544.40,33.57 562.85,44.22 575.50,51.49 C599.48,65.27 623.28,79.00 660.50,100.52 C687.65,116.21 701.80,124.39 727.50,139.21 C751.90,153.29 765.75,161.30 790.50,175.68 C800.95,181.75 818.72,192.02 830.00,198.49 C884.42,229.74 912.07,245.80 938.50,261.49 L 945.50 265.65 L 945.75 522.57 L 945.99 779.50 L 942.75 781.37 C940.96,782.40 936.12,785.14 932.00,787.46 C927.88,789.78 917.30,795.87 908.50,800.99 C886.85,813.59 877.82,818.82 848.00,836.00 C833.97,844.08 814.85,855.12 805.50,860.53 C796.15,865.94 780.17,875.16 770.00,881.02 C747.36,894.07 642.85,954.44 612.00,972.30 C599.62,979.47 585.45,987.65 580.50,990.49 C564.96,999.40 512.75,1029.60 507.21,1032.87 ZM 487.00 881.14 C493.33,884.88 499.10,887.95 499.83,887.97 C500.56,887.99 516.54,879.15 535.33,868.34 C554.12,857.53 571.97,847.26 575.00,845.52 L 580.50 842.37 L 581.00 796.98 L 581.50 751.59 L 592.00 745.45 C597.78,742.08 617.04,730.90 634.81,720.63 C652.58,710.35 667.91,701.45 668.87,700.85 C670.32,699.94 674.80,702.15 694.56,713.53 C707.73,721.11 723.67,730.29 730.00,733.92 C736.33,737.55 742.61,741.30 743.97,742.26 C745.33,743.22 747.36,743.99 748.47,743.99 C749.59,743.98 768.28,733.72 790.00,721.18 L 829.50 698.39 L 829.50 603.84 L 805.00 589.75 C791.53,582.00 774.20,572.01 766.50,567.55 L 752.50 559.44 L 752.24 507.85 C752.04,467.34 752.25,456.04 753.24,455.23 C754.66,454.08 767.34,446.69 802.50,426.54 C815.70,418.98 827.29,412.09 828.25,411.24 C829.87,409.81 830.00,406.23 830.00,363.36 L 830.00 317.03 L 826.25 314.66 C824.19,313.37 810.58,305.43 796.00,297.02 C781.42,288.62 764.89,279.08 759.26,275.82 L 749.03 269.89 L 742.26 273.62 C738.54,275.67 731.22,279.89 726.00,282.99 C704.23,295.90 671.64,314.33 670.59,314.33 C669.97,314.33 661.37,309.60 651.48,303.81 C641.59,298.03 622.70,287.10 609.50,279.52 C596.30,271.95 584.49,265.12 583.26,264.36 L 581.02 262.97 L 580.76 217.79 L 580.50 172.61 L 572.00 167.66 C567.33,164.94 556.30,158.58 547.50,153.51 C538.70,148.45 524.87,140.41 516.76,135.65 C508.65,130.89 501.13,127.00 500.05,127.00 C498.96,127.00 494.79,128.96 490.79,131.34 C486.78,133.73 476.08,139.95 467.00,145.17 C422.32,170.83 419.80,172.38 418.78,174.95 C418.12,176.63 417.99,192.11 418.42,220.15 L 419.06 262.79 L 411.78 267.04 C407.78,269.37 391.67,278.70 376.00,287.77 C360.33,296.84 343.72,306.45 339.11,309.13 C334.49,311.81 330.05,314.00 329.25,314.00 C327.69,314.00 323.51,311.69 293.00,293.96 C282.27,287.72 269.23,280.21 264.00,277.25 C258.77,274.30 253.81,271.41 252.97,270.83 C251.77,270.01 247.48,272.04 233.47,280.04 C203.53,297.14 172.57,315.14 171.25,316.22 C170.28,317.01 170.00,327.77 170.01,363.87 L 170.02 410.50 L 206.55 431.50 C226.65,443.05 244.19,453.32 245.54,454.32 L 248.00 456.15 L 248.00 507.45 C248.00,547.27 247.72,558.99 246.75,559.79 C246.06,560.36 240.77,563.49 235.00,566.75 C229.23,570.01 212.35,579.67 197.50,588.21 L 170.50 603.74 L 170.50 698.43 L 203.00 717.18 C248.06,743.18 249.55,744.00 251.32,744.00 C252.19,744.00 258.21,740.91 264.70,737.14 C271.19,733.37 284.15,725.89 293.50,720.52 C302.85,715.15 314.66,708.29 319.73,705.29 L 328.97 699.82 L 347.23 710.31 C383.56,731.15 411.57,747.36 415.13,749.59 L 418.75 751.87 L 418.80 796.56 C418.83,821.14 419.23,841.60 419.68,842.03 C420.13,842.45 432.88,849.90 448.00,858.57 C463.12,867.24 480.67,877.40 487.00,881.14Z" fill="#0847F7"/>
    <!-- Path 2: evenodd white — network lines white, holes show blue bg -->
    <path fill-rule="evenodd" d="M 0.00 521.00 L 0.00 0.00 L 503.00 0.00 L 1006.00 0.00 L 1006.00 521.00 L 1006.00 1042.00 L 503.00 1042.00 L 0.00 1042.00 L 0.00 521.00 ZM 507.21 1032.87 C512.75,1029.60 564.96,999.40 580.50,990.49 C585.45,987.65 599.62,979.47 612.00,972.30 C642.85,954.44 747.36,894.07 770.00,881.02 C780.17,875.16 796.15,865.94 805.50,860.53 C814.85,855.12 833.97,844.08 848.00,836.00 C877.82,818.82 886.85,813.59 908.50,800.99 C917.30,795.87 927.88,789.78 932.00,787.46 C936.12,785.14 940.96,782.40 942.75,781.37 L 945.99 779.50 L 945.75 522.57 L 945.50 265.65 L 938.50 261.49 C912.07,245.80 884.42,229.74 830.00,198.49 C818.72,192.02 800.95,181.75 790.50,175.68 C765.75,161.30 751.90,153.29 727.50,139.21 C701.80,124.39 687.65,116.21 660.50,100.52 C623.28,79.00 599.48,65.27 575.50,51.49 C562.85,44.22 544.40,33.57 534.50,27.82 C518.32,18.42 503.53,9.98 501.89,9.21 C501.56,9.06 495.26,12.39 487.89,16.62 C480.53,20.84 467.30,28.43 458.50,33.48 C442.36,42.74 430.43,49.64 413.00,59.80 C407.77,62.85 401.70,66.32 399.50,67.52 C397.30,68.73 391.28,72.25 386.12,75.36 C380.96,78.46 376.59,81.00 376.41,81.00 C376.06,81.00 356.29,92.39 291.00,130.22 C281.92,135.48 261.45,147.31 245.50,156.51 C208.61,177.80 188.59,189.37 168.50,201.02 C159.70,206.13 148.00,212.87 142.50,216.01 C132.93,221.47 96.78,242.33 69.75,258.00 L 57.00 265.38 L 57.00 522.54 L 57.00 779.71 L 70.25 787.24 C77.54,791.38 99.25,803.88 118.50,815.01 C152.77,834.83 177.34,849.02 217.50,872.17 C228.50,878.51 241.89,886.24 247.25,889.35 C263.71,898.89 275.02,905.42 315.50,928.76 C336.95,941.13 359.67,954.28 366.00,957.98 C372.33,961.69 399.77,977.55 427.00,993.24 C454.23,1008.92 481.90,1024.93 488.50,1028.82 C495.10,1032.71 500.82,1035.91 501.21,1035.94 C501.59,1035.97 504.29,1034.59 507.21,1032.87 ZM 487.00 881.14 C480.67,877.40 463.12,867.24 448.00,858.57 C432.88,849.90 420.13,842.45 419.68,842.03 C419.23,841.60 418.83,821.14 418.80,796.56 L 418.75 751.87 L 415.13 749.59 C411.57,747.36 383.56,731.15 347.23,710.31 L 328.97 699.82 L 319.73 705.29 C314.66,708.29 302.85,715.15 293.50,720.52 C284.15,725.89 271.19,733.37 264.70,737.14 C258.21,740.91 252.19,744.00 251.32,744.00 C249.55,744.00 248.06,743.18 203.00,717.18 L 170.50 698.43 L 170.50 651.09 L 170.50 603.74 L 197.50 588.21 C212.35,579.67 229.23,570.01 235.00,566.75 C240.77,563.49 246.06,560.36 246.75,559.79 C247.72,558.99 248.00,547.27 248.00,507.45 L 248.00 456.15 L 245.54 454.32 C244.19,453.32 226.65,443.05 206.55,431.50 L 170.02 410.50 L 170.01 363.87 C170.00,327.77 170.28,317.01 171.25,316.22 C172.57,315.14 203.53,297.14 233.47,280.04 C247.48,272.04 251.77,270.01 252.97,270.83 C253.81,271.41 258.77,274.30 264.00,277.25 C269.23,280.21 282.27,287.72 293.00,293.96 C323.51,311.69 327.69,314.00 329.25,314.00 C330.05,314.00 334.49,311.81 339.11,309.13 C343.72,306.45 360.33,296.84 376.00,287.77 C391.67,278.70 407.78,269.37 411.78,267.04 L 419.06 262.79 L 418.42 220.15 C417.99,192.11 418.12,176.63 418.78,174.95 C419.80,172.38 422.32,170.83 467.00,145.17 C476.08,139.95 486.78,133.73 490.79,131.34 C494.79,128.96 498.96,127.00 500.05,127.00 C501.13,127.00 508.65,130.89 516.76,135.65 C524.87,140.41 538.70,148.45 547.50,153.51 C556.30,158.58 567.33,164.94 572.00,167.66 L 580.50 172.61 L 580.76 217.79 L 581.02 262.97 L 583.26 264.36 C584.49,265.12 596.30,271.95 609.50,279.52 C622.70,287.10 641.59,298.03 651.48,303.81 C661.37,309.60 669.97,314.33 670.59,314.33 C671.64,314.33 704.23,295.90 726.00,282.99 C731.22,279.89 738.54,275.67 742.26,273.62 L 749.03 269.89 L 759.26 275.82 C764.89,279.08 781.42,288.62 796.00,297.02 C810.58,305.43 824.19,313.37 826.25,314.66 L 830.00 317.03 L 830.00 363.36 C830.00,406.23 829.87,409.81 828.25,411.24 C827.29,412.09 815.70,418.98 802.50,426.54 C767.34,446.69 754.66,454.08 753.24,455.23 C752.25,456.04 752.04,467.34 752.24,507.85 L 752.50 559.44 L 766.50 567.55 C774.20,572.01 791.53,582.00 805.00,589.75 L 829.50 603.84 L 829.50 651.11 L 829.50 698.39 L 790.00 721.18 C768.28,733.72 749.59,743.98 748.47,743.99 C747.36,743.99 745.33,743.22 743.97,742.26 C742.61,741.30 736.33,737.55 730.00,733.92 C723.67,730.29 707.73,721.11 694.56,713.53 C674.80,702.15 670.32,699.94 668.87,700.85 C667.91,701.45 652.58,710.35 634.81,720.63 C617.04,730.90 597.78,742.08 592.00,745.45 L 581.50 751.59 L 581.00 796.98 L 580.50 842.37 L 575.00 845.52 C571.97,847.26 554.12,857.53 535.33,868.34 C516.54,879.15 500.56,887.99 499.83,887.97 C499.10,887.95 493.33,884.88 487.00,881.14 ZM 521.30 869.12 C530.76,863.69 546.60,854.56 556.50,848.84 L 574.50 838.42 L 574.76 796.58 L 575.02 754.74 L 572.76 756.28 C571.52,757.13 555.32,766.52 536.76,777.16 L 503.02 796.50 L 503.01 837.75 C503.01,860.44 503.25,879.00 503.55,879.00 C503.86,879.00 511.85,874.56 521.30,869.12 ZM 439.02 736.26 C448.36,730.90 455.99,726.06 455.97,725.51 C455.95,724.95 446.82,708.75 435.68,689.50 L 415.42 654.50 L 373.69 654.24 L 331.96 653.98 L 332.23 674.21 L 332.50 694.44 L 356.50 708.32 C369.70,715.95 388.38,726.71 398.00,732.22 C407.62,737.73 416.62,743.06 418.00,744.06 C419.38,745.07 420.85,745.91 421.27,745.94 C421.69,745.97 429.68,741.61 439.02,736.26 ZM 599.37 733.81 C629.58,716.39 658.80,699.48 663.75,696.56 L 668.00 694.05 L 668.00 674.02 L 668.00 654.00 L 626.25 654.03 L 584.50 654.07 L 564.17 689.66 C547.33,719.13 544.06,725.48 545.17,726.55 C546.39,727.73 577.03,745.93 577.87,745.98 C578.07,745.99 587.75,740.52 599.37,733.81 ZM 267.00 728.50 C270.58,726.43 284.08,718.65 297.00,711.23 C309.92,703.80 321.74,696.86 323.25,695.79 L 326.00 693.86 L 326.00 652.82 C326.00,620.39 325.74,611.89 324.75,612.30 C324.06,612.58 307.98,621.81 289.00,632.82 L 254.50 652.83 L 254.24 694.51 L 253.98 736.18 L 257.24 734.22 C259.03,733.15 263.42,730.57 267.00,728.50 ZM 781.50 718.76 C796.35,710.25 811.88,701.29 816.00,698.85 L 823.50 694.41 L 823.76 653.09 C824.00,614.70 823.90,611.82 822.34,612.42 C821.41,612.78 817.24,615.09 813.08,617.55 C808.91,620.02 793.58,628.90 779.00,637.30 L 752.50 652.57 L 752.24 694.42 C752.03,727.99 752.23,736.06 753.24,735.25 C753.93,734.69 766.65,727.27 781.50,718.76 ZM 483.25 710.73 L 497.00 702.70 L 497.00 678.35 L 497.00 654.00 L 459.89 654.00 C428.37,654.00 422.87,654.21 423.33,655.41 C423.82,656.70 455.57,712.10 460.22,719.79 L 462.21 723.07 L 465.85 720.91 C467.86,719.72 475.69,715.14 483.25,710.73 ZM 548.46 704.73 C571.94,664.09 576.21,656.62 576.70,655.34 C577.12,654.23 570.77,654.00 540.11,654.00 L 503.00 654.00 L 503.00 679.00 C503.00,696.47 503.33,704.00 504.10,704.00 C504.70,704.00 512.23,708.05 520.83,713.00 C529.43,717.95 536.92,721.99 537.48,721.98 C538.04,721.98 542.98,714.21 548.46,704.73 ZM 411.00 647.21 C411.00,646.84 400.52,628.47 391.50,613.00 C387.81,606.67 382.54,597.56 379.78,592.75 C377.03,587.94 374.49,584.00 374.14,584.01 C373.79,584.02 364.27,589.33 353.00,595.81 L 332.50 607.61 L 332.23 627.55 L 331.96 647.50 L 371.48 647.50 C393.22,647.50 411.00,647.37 411.00,647.21 ZM 496.77 623.20 L 497.04 599.13 L 494.58 597.81 C489.41,595.05 476.45,587.62 456.85,576.19 C423.18,556.55 421.19,555.54 419.21,557.19 C417.26,558.80 410.92,562.58 392.75,572.96 C385.74,576.97 380.00,580.36 380.00,580.50 C380.00,580.91 417.17,645.41 418.04,646.50 C418.54,647.14 432.83,647.46 457.66,647.39 L 496.50 647.27 L 496.77 623.20 ZM 588.93 634.54 C593.02,627.37 601.72,612.34 608.26,601.13 C614.81,589.93 619.79,580.43 619.33,580.02 C618.88,579.62 610.40,574.65 600.50,569.00 C590.60,563.34 581.58,558.11 580.45,557.37 C578.58,556.15 575.98,557.42 551.45,571.60 C536.63,580.17 520.45,589.45 515.50,592.24 C501.69,600.00 503.00,596.68 503.00,623.90 L 503.00 647.50 L 542.25 647.54 L 581.50 647.59 L 588.93 634.54 ZM 667.49 637.50 C667.85,632.00 668.00,623.01 667.82,617.53 L 667.50 607.55 L 646.59 595.55 C629.56,585.77 625.52,583.82 624.79,585.02 C618.91,594.75 589.00,646.67 589.00,647.17 C589.00,647.54 606.51,647.77 627.92,647.67 L 666.84 647.50 L 667.49 637.50 ZM 350.17 590.25 C361.60,583.79 370.96,578.25 370.97,577.95 C370.99,577.65 368.16,572.47 364.68,566.45 C361.20,560.43 353.30,546.72 347.11,536.00 C340.92,525.28 335.33,515.97 334.68,515.32 C333.77,514.42 330.82,518.81 322.00,534.19 C299.93,572.65 295.00,581.51 295.25,582.26 C295.48,582.95 327.88,601.90 328.95,601.97 C329.20,601.99 338.75,596.71 350.17,590.25 ZM 677.56 598.41 C680.83,596.44 688.34,592.13 694.25,588.83 C700.16,585.53 705.00,582.48 705.00,582.06 C705.00,581.64 699.97,572.56 693.83,561.90 C687.68,551.23 678.95,536.04 674.42,528.15 L 666.19 513.80 L 662.79 519.15 C654.27,532.53 628.66,578.39 629.53,578.69 C630.06,578.88 639.28,584.17 650.00,590.46 C660.72,596.74 669.98,601.91 670.56,601.94 C671.14,601.97 674.29,600.39 677.56,598.41 ZM 507.77 589.60 C509.82,588.28 523.42,580.36 538.00,571.99 C552.58,563.63 566.86,555.39 569.75,553.68 L 575.00 550.58 L 575.00 509.29 C575.00,486.58 574.85,468.00 574.67,468.00 C574.16,468.00 516.81,501.08 507.75,506.59 L 503.00 509.49 L 503.00 550.74 C503.00,573.43 503.23,592.00 503.52,592.00 C503.81,592.00 505.72,590.92 507.77,589.60 ZM 302.71 555.50 C309.30,543.95 318.18,528.52 322.44,521.22 C327.37,512.77 329.96,507.34 329.56,506.30 C328.84,504.43 295.00,445.47 291.35,439.74 L 288.96 435.99 L 284.23 438.45 C281.63,439.81 273.88,444.23 267.00,448.27 L 254.50 455.61 L 254.25 507.56 L 254.01 559.50 L 262.75 564.28 C267.56,566.90 275.32,571.28 279.98,574.00 C286.59,577.86 288.72,578.69 289.60,577.73 C290.22,577.05 296.12,567.05 302.71,555.50 ZM 726.00 570.51 C731.78,567.13 738.64,563.13 741.26,561.63 L 746.02 558.91 L 745.76 507.32 L 745.50 455.73 L 731.69 447.49 C711.57,435.48 710.95,435.19 709.86,437.00 C709.36,437.83 700.10,453.99 689.29,472.93 L 669.64 507.35 L 672.14 511.93 C674.66,516.53 703.69,566.79 708.45,574.79 C711.39,579.73 709.51,580.19 726.00,570.51 ZM 398.43 562.41 L 418.67 550.81 L 418.49 507.85 C418.34,472.41 418.06,464.65 416.91,463.54 C414.95,461.68 377.03,439.62 376.61,440.11 C376.42,440.32 371.86,448.15 366.46,457.50 C361.06,466.85 355.22,476.98 353.47,480.00 C351.72,483.02 347.44,490.41 343.96,496.42 L 337.64 507.34 L 339.65 510.92 C341.33,513.92 374.29,570.95 375.67,573.25 C375.92,573.66 376.58,574.00 377.15,574.00 C377.72,574.00 387.30,568.78 398.43,562.41 ZM 642.94 540.86 C653.48,522.64 661.89,507.15 661.62,506.45 C661.35,505.75 654.26,493.33 645.87,478.84 C637.48,464.35 629.08,449.66 627.20,446.18 C625.33,442.71 623.28,440.08 622.65,440.34 C622.02,440.59 612.50,446.00 601.50,452.35 L 581.50 463.90 L 581.24 507.28 L 580.98 550.67 L 601.24 562.31 C612.38,568.71 622.01,573.96 622.64,573.97 C623.27,573.99 632.40,559.09 642.94,540.86 ZM 688.97 461.11 C704.39,434.34 705.22,432.63 703.46,431.34 C702.43,430.59 697.07,427.42 691.56,424.30 C686.04,421.18 679.98,417.57 678.09,416.29 C672.16,412.27 670.80,412.37 661.78,417.53 C652.74,422.69 629.72,436.15 629.14,436.60 C628.80,436.87 650.77,475.36 661.25,492.85 L 666.26 501.21 L 669.44 495.35 C671.19,492.13 679.98,476.72 688.97,461.11 ZM 345.24 481.75 C351.00,471.71 359.19,457.49 363.44,450.14 C367.69,442.79 370.80,436.46 370.34,436.08 C368.11,434.24 330.09,413.00 329.01,413.00 C328.33,413.00 323.89,415.30 319.14,418.12 C314.39,420.93 307.00,425.30 302.73,427.83 C297.14,431.13 295.11,432.85 295.53,433.94 C295.85,434.77 303.81,448.74 313.22,464.98 C322.63,481.21 331.04,495.73 331.91,497.24 C332.79,498.75 333.79,499.99 334.13,499.99 C334.48,500.00 339.48,491.79 345.24,481.75 ZM 605.00 442.99 C612.97,438.45 619.65,434.61 619.83,434.45 C620.14,434.19 593.19,386.94 585.08,373.50 L 581.45 367.50 L 542.23 367.24 L 503.00 366.98 L 503.02 391.24 L 503.03 415.50 L 508.77 418.65 C511.92,420.38 528.87,430.12 546.44,440.29 L 578.38 458.79 L 584.44 455.01 C587.77,452.94 597.03,447.52 605.00,442.99 ZM 449.14 442.83 C463.64,434.49 480.33,424.93 486.22,421.58 L 496.95 415.50 L 496.97 391.25 L 497.00 367.00 L 457.64 367.00 L 418.28 367.00 L 414.97 373.25 C413.15,376.69 410.68,381.08 409.48,383.00 C404.45,391.10 379.92,434.25 380.20,434.52 C380.36,434.69 386.35,438.18 393.50,442.28 C400.65,446.39 409.65,451.59 413.50,453.85 C417.35,456.11 421.01,457.97 421.64,457.98 C422.27,457.99 434.65,451.17 449.14,442.83 ZM 259.91 445.10 C262.44,443.51 271.25,438.38 279.50,433.70 C287.75,429.02 301.48,421.15 310.00,416.20 L 325.50 407.21 L 325.76 366.03 C325.97,332.65 325.78,324.91 324.72,325.17 C323.09,325.58 266.35,358.04 259.25,362.63 L 254.00 366.02 L 254.00 407.01 C254.00,429.55 254.30,448.00 254.66,448.00 C255.03,448.00 257.39,446.70 259.91,445.10 ZM 762.66 442.20 C768.07,439.01 784.09,429.72 798.25,421.55 L 824.00 406.70 L 824.00 365.27 C824.00,342.48 823.66,323.98 823.23,324.17 C822.81,324.35 818.20,327.01 812.98,330.09 C807.77,333.16 792.70,341.87 779.50,349.45 C766.30,357.02 754.71,363.91 753.75,364.76 C752.14,366.19 752.00,369.51 752.00,407.15 C752.00,429.62 752.18,448.00 752.41,448.00 C752.63,448.00 757.24,445.39 762.66,442.20 ZM 392.75 399.53 C402.79,382.22 411.00,367.82 411.00,367.53 C411.00,367.24 393.23,367.00 371.50,367.00 L 332.00 367.00 L 332.00 386.93 L 332.00 406.86 L 339.75 411.13 C344.01,413.48 353.35,418.91 360.50,423.20 C367.65,427.49 373.73,431.00 374.00,431.00 C374.27,431.00 382.71,416.84 392.75,399.53 ZM 634.36 426.13 C638.84,423.45 648.24,418.00 655.25,414.02 L 668.00 406.79 L 668.00 386.89 L 668.00 367.00 L 628.50 367.00 C606.78,367.00 589.00,367.23 589.00,367.50 C589.00,367.78 593.77,376.22 599.60,386.25 C605.43,396.29 613.61,410.46 617.77,417.75 C621.94,425.04 625.55,431.00 625.79,431.00 C626.03,431.00 629.88,428.81 634.36,426.13 ZM 417.62 356.75 C420.67,350.80 453.13,294.55 455.17,291.67 C456.27,290.12 457.02,288.72 456.84,288.56 C455.53,287.48 422.50,269.00 421.87,269.00 C421.44,269.00 402.95,279.49 380.79,292.32 C358.63,305.14 338.59,316.70 336.25,318.00 L 332.00 320.37 L 332.00 340.18 L 332.00 360.00 L 373.97 360.00 L 415.95 360.00 L 417.62 356.75 ZM 496.99 335.75 C496.98,311.62 496.97,311.49 494.74,310.40 C493.51,309.79 485.80,305.42 477.61,300.68 C469.41,295.94 462.38,292.27 461.97,292.52 C461.56,292.77 458.07,298.50 454.22,305.24 C450.37,311.98 441.77,326.90 435.11,338.39 C428.45,349.89 423.00,359.45 423.00,359.64 C423.00,359.84 439.65,360.00 460.00,360.00 L 497.00 360.00 L 496.99 335.75 ZM 575.89 357.75 C573.72,353.62 547.72,308.59 543.96,302.44 C541.92,299.11 539.93,295.37 539.54,294.12 C539.04,292.54 538.32,292.05 537.16,292.49 C535.77,293.03 512.61,306.23 505.25,310.68 C503.02,312.04 503.00,312.23 503.00,336.02 L 503.00 360.00 L 540.04 360.00 L 577.07 360.00 L 575.89 357.75 ZM 667.49 340.44 C667.89,329.69 668.05,320.71 667.83,320.50 C667.62,320.28 654.41,312.62 638.47,303.46 C622.54,294.30 602.65,282.80 594.29,277.90 C585.92,273.01 578.66,269.00 578.16,269.00 C577.67,269.00 572.14,271.99 565.88,275.65 C559.62,279.31 552.14,283.68 549.25,285.37 C546.36,287.05 544.00,288.72 544.00,289.08 C544.00,289.44 551.48,302.73 560.62,318.62 C569.76,334.50 578.80,350.31 580.71,353.75 L 584.18 360.00 L 625.47 360.00 L 666.76 360.00 L 667.49 340.44 ZM 524.30 292.34 C535.41,285.93 551.25,276.80 559.50,272.05 L 574.50 263.41 L 574.76 222.09 C574.99,185.81 574.84,180.85 573.53,181.35 C571.77,182.03 525.29,208.66 516.23,214.18 C512.79,216.28 509.70,218.00 509.39,218.00 C509.07,218.00 507.50,218.93 505.90,220.07 L 503.00 222.14 L 503.00 263.07 C503.00,285.58 503.25,304.00 503.55,304.00 C503.85,304.00 513.19,298.75 524.30,292.34 ZM 526.25 843.26 L 519.00 842.91 L 519.00 829.17 L 519.00 815.44 L 528.75 803.23 L 538.50 791.02 L 543.50 791.02 C546.25,791.02 550.86,791.30 553.75,791.65 L 559.00 792.28 L 559.00 805.74 L 559.00 819.19 L 551.86 828.35 C541.47,841.67 539.05,844.03 536.05,843.80 C534.65,843.69 530.24,843.45 526.25,843.26 ZM 540.27 831.73 C540.54,831.03 543.06,827.70 545.88,824.33 L 551.00 818.21 L 551.00 810.68 L 551.00 803.14 L 545.29 802.43 L 539.58 801.72 L 535.71 806.11 C527.74,815.15 526.87,817.05 527.20,824.62 L 527.50 831.50 L 532.00 832.10 C539.33,833.08 539.76,833.06 540.27,831.73 ZM 274.25 699.27 L 270.00 698.89 L 270.00 685.36 L 270.00 671.84 L 279.54 659.95 C284.78,653.42 289.55,647.78 290.12,647.42 C290.70,647.07 295.41,647.09 300.59,647.48 L 310.00 648.19 L 310.00 662.10 L 310.00 676.02 L 300.45 688.01 L 290.90 700.00 L 284.70 699.83 C281.29,699.73 276.59,699.48 274.25,699.27 ZM 296.23 681.73 L 301.96 674.50 L 301.98 666.75 L 302.00 659.00 L 297.08 659.00 C294.38,659.00 291.45,658.73 290.58,658.39 C289.71,658.06 289.00,658.30 289.00,658.92 C289.00,659.55 286.52,662.98 283.49,666.55 L 277.99 673.04 L 278.65 680.27 C279.01,684.25 279.80,687.83 280.40,688.23 C281.01,688.64 283.52,688.97 286.00,688.97 C290.39,688.97 290.64,688.79 296.23,681.73 ZM 772.25 699.29 L 768.00 698.89 L 768.00 685.11 L 768.00 671.34 L 777.61 659.42 C782.89,652.86 787.37,647.34 787.55,647.14 C787.74,646.94 792.41,647.10 797.95,647.50 L 808.00 648.22 L 808.00 662.18 L 808.00 676.14 L 803.57 681.32 C801.13,684.17 796.72,689.42 793.76,693.00 L 788.38 699.50 L 782.44 699.60 C779.17,699.65 774.59,699.51 772.25,699.29 ZM 793.50 682.30 C799.44,674.44 800.12,672.42 799.33,664.90 L 798.73 659.18 L 793.62 658.77 C790.80,658.55 787.87,658.85 787.10,659.43 C786.32,660.02 783.51,663.38 780.85,666.90 C776.08,673.19 776.00,673.42 776.00,680.58 C776.00,687.76 776.04,687.87 778.75,688.28 C787.50,689.61 788.18,689.33 793.50,682.30 ZM 533.50 556.34 C531.30,556.16 527.14,555.75 524.25,555.43 L 519.00 554.86 L 519.00 541.54 L 519.00 528.22 L 528.75 515.67 L 538.50 503.13 L 547.50 503.65 C552.45,503.93 557.06,504.34 557.75,504.55 C558.67,504.84 559.00,508.50 559.00,518.41 L 559.00 531.89 L 548.93 544.44 C543.39,551.35 538.55,556.92 538.18,556.83 C537.81,556.74 535.70,556.52 533.50,556.34 ZM 541.56 542.25 C542.54,540.74 545.09,537.42 547.22,534.88 C551.04,530.32 551.09,530.16 550.80,522.88 L 550.50 515.50 L 544.39 515.21 L 538.28 514.91 L 532.64 522.27 C527.01,529.63 527.00,529.65 527.00,536.75 C527.00,544.68 526.88,544.58 535.64,544.86 C539.12,544.98 540.05,544.57 541.56,542.25 ZM 278.00 412.07 L 270.50 411.50 L 270.22 397.89 L 269.95 384.28 L 279.72 372.14 L 289.49 360.00 L 297.49 360.01 C310.88,360.04 310.00,358.99 310.00,374.89 L 310.00 388.55 L 300.25 400.73 C292.23,410.73 290.06,412.88 288.00,412.77 C286.62,412.70 282.12,412.38 278.00,412.07 ZM 296.35 393.75 L 302.08 386.51 L 301.79 379.00 L 301.50 371.50 L 295.50 371.29 L 289.50 371.08 L 283.67 378.54 L 277.84 386.00 L 278.54 392.75 C278.93,396.46 279.44,399.84 279.68,400.25 C279.92,400.66 282.48,401.00 285.37,401.00 L 290.63 401.00 L 296.35 393.75 ZM 778.50 412.30 C767.15,411.70 768.00,412.91 768.00,397.38 L 768.00 383.79 L 777.62 371.90 L 787.25 360.00 L 793.87 360.01 C797.52,360.02 802.19,360.30 804.25,360.64 L 808.00 361.26 L 808.00 374.67 L 808.00 388.09 L 803.25 393.94 C800.64,397.16 796.11,402.77 793.19,406.40 C790.01,410.35 787.20,412.92 786.19,412.81 C785.26,412.71 781.80,412.48 778.50,412.30 ZM 793.36 394.82 L 799.00 388.15 L 799.00 379.57 L 799.00 371.00 L 793.25 371.00 L 787.50 371.01 L 781.71 378.16 L 775.92 385.32 L 776.21 392.91 L 776.50 400.50 L 781.50 401.08 C784.25,401.41 786.77,401.63 787.11,401.58 C787.45,401.54 790.26,398.50 793.36,394.82 ZM 525.75 268.26 L 519.00 267.91 L 519.01 254.20 L 519.02 240.50 L 528.76 228.28 C539.71,214.55 538.49,215.14 552.85,216.64 L 559.00 217.28 L 558.96 230.89 L 558.93 244.50 L 549.21 256.73 C538.34,270.41 541.11,269.05 525.75,268.26 ZM 544.94 250.58 L 551.00 243.16 L 551.00 235.71 L 551.00 228.26 L 547.25 227.64 C540.08,226.46 538.65,226.85 535.72,230.77 C534.19,232.82 531.59,236.28 529.93,238.45 C527.15,242.11 526.94,242.94 527.21,249.45 L 527.50 256.50 L 531.00 257.12 C538.40,258.43 538.60,258.34 544.94,250.58 Z" fill="#FFFFFF"/>
  </g>

  <!-- Arrow 3: CRE Forwarder → fork rail (right-angle path) -->
  <path d="M 220,551 L 460,551 L 460,460 L 650,460" fill="none" stroke="#1a1a1a" stroke-width="1.5" marker-end="url(#arrowRight)"/>
  <text x="555" y="452" text-anchor="middle" fill="#6B7280" font-size="9" font-style="italic">delivers authorize / deny</text>
  <text x="555" y="475" text-anchor="middle" fill="#0847F7" font-size="11" font-weight="600">Write</text>

  <!-- ============================================================ -->
  <!-- ACE PRIVACY GUARANTEES (top right, above chain region) -->
  <!-- ============================================================ -->
  <rect x="580" y="42" width="490" height="72" rx="8" fill="white" stroke="#e5e7eb" stroke-width="1"/>
  <text x="825" y="62" text-anchor="middle" fill="#1a1a1a" font-size="12" font-weight="600">ACE Privacy Guarantees</text>
  <text x="825" y="78" text-anchor="middle" fill="#6B7280" font-size="10">Only address hashes — no raw addresses</text>
  <text x="825" y="93" text-anchor="middle" fill="#6B7280" font-size="10">No identity linkage on-chain — ZK proofs only</text>
  <text x="825" y="108" text-anchor="middle" fill="#16A34A" font-size="10" font-weight="600">Compliance BEFORE ZkAMM access</text>

  <!-- ============================================================ -->
  <!-- TENDERLY LOGO (bottom right) -->
  <!-- ============================================================ -->
  <g transform="translate(752,630) scale(0.1)">
    <path d="M174.71,239.01v107.34l-88.28-49.28v-83.15c-.03-56.72-17.73-91.51-40.1-117.23C23.97,70.98.32,51.19.32,51.19l93.59,54.04c26.71,15.31,80.77,61.1,80.8,133.78Z" fill="#6837ee"/>
    <path d="M93.91,105.24L.32,51.19,87.5,0l71.97,41.94c49.1,28.58,88.15,30.89,121.69,24.59,33.53-6.3,65.51-16.16,65.51-16.16l-94.15,52.91c-26.72,15.29-95.69,38.59-158.61,1.96Z" fill="#cfc0ff"/>
    <path d="M252.52,103.27l94.15-52.91v100.92l-72.52,40.99c-49.45,27.98-71.07,60.5-82.47,92.59-11.4,32.08-16.97,61.49-16.97,61.49v-107.34c.18-30.73,14.44-99.88,77.81-135.74Z" fill="#9273ff"/>
    <path d="M533.85,131.95h-33.4v53.79c0,18.62,7.39,23.64,33.4,20.39v33.4c-45.22,10.93-73.29-5.02-73.29-51.72v-55.86h-22.17v-30.74h22.17v-35.17h39.9v35.17h33.4v30.74Z" fill="#191919"/>
    <path d="M683.68,181.89h-99.89c2.95,16.25,12.12,29.26,31.03,29.26,15.37,0,23.05-8.27,26.6-17.14h40.19c-7.68,33.99-35.17,49.95-67.09,49.95-36.35,0-71.82-21.57-71.82-74.18s35.76-73.29,71.52-73.29,73.59,22.76,69.45,85.41ZM583.79,158.25h59.99c-2.95-18.03-12.41-28.96-29.85-28.96s-27.19,12.41-30.14,28.96Z" fill="#191919"/>
    <path d="M827.6,150.27v88.96h-39.9v-79.21c0-17.73-7.98-27.49-23.94-27.49s-24.53,10.93-24.53,27.49v79.21h-39.9V101.21h39.9v18.91c5.61-9.16,19.5-23.05,42.26-23.05,30.74,0,46.1,20.98,46.1,53.2Z" fill="#191919"/>
    <path d="M942.85,59.83h40.19v179.39h-39.9v-15.07c-9.46,12.12-24.23,19.21-41.67,19.21-33.99,0-58.52-25.71-58.52-73s24.53-73.29,58.52-73.29c17.44,0,31.92,7.09,41.38,19.21v-56.45ZM945.51,170.37c0-21.87-9.46-39.6-31.33-39.6s-30.44,16.26-30.44,39.6,8.87,39.31,30.44,39.31,31.33-17.44,31.33-39.31Z" fill="#191919"/>
    <path d="M1139.08,181.89h-99.89c2.95,16.25,12.12,29.26,31.03,29.26,15.37,0,23.05-8.27,26.6-17.14h40.19c-7.68,33.99-35.17,49.95-67.09,49.95-36.35,0-71.82-21.57-71.82-74.18s35.76-73.29,71.52-73.29,73.59,22.76,69.45,85.41ZM1039.19,158.25h59.99c-2.95-18.03-12.41-28.96-29.85-28.96s-27.19,12.41-30.14,28.96Z" fill="#191919"/>
    <path d="M1194.33,125.15c11.23-23.64,27.19-31.92,51.72-26.6v41.67h-1.18c-25.12-10.64-50.24,2.66-50.24,34.87v64.13h-39.9V101.21h39.6v23.94Z" fill="#191919"/>
    <path d="M1258.16,239.23V59.54h39.9v179.69h-39.9Z" fill="#191919"/>
    <path d="M1410.95,101.21h43.15l-69.75,185.6h-43.74l20.1-45.51-52.61-140.08h43.15l29.55,94.87,30.14-94.87Z" fill="#191919"/>
  </g>
  <text x="825" y="675" text-anchor="middle" fill="#191919" font-size="13" font-weight="600">Custom Testnet</text>

  </g>
</svg>
