<svg xmlns="http://www.w3.org/2000/svg" viewBox="0 0 1200 870" font-family="Inter, -apple-system, BlinkMacSystemFont, 'Segoe UI', Roboto, sans-serif">
  <defs>
    <marker id="arrowDown" viewBox="0 0 7 10" refX="3.5" refY="10" markerWidth="7" markerHeight="10" orient="0">
      <polygon points="0 0, 7 0, 3.5 10" fill="#0847F7"/>
    </marker>
    <marker id="arrowRight" viewBox="0 0 10 7" refX="10" refY="3.5" markerWidth="10" markerHeight="7" orient="0">
      <polygon points="0 0, 10 3.5, 0 7" fill="#1a1a1a"/>
    </marker>
    <marker id="arrowLeft" viewBox="0 0 10 7" refX="0" refY="3.5" markerWidth="10" markerHeight="7" orient="0">
      <polygon points="10 0, 0 3.5, 10 7" fill="#1a1a1a"/>
    </marker>
  </defs>

  <rect width="1200" height="870" fill="white"/>

  <!-- TOP HEADER BANNER -->
  <rect x="0" y="0" width="1200" height="70" fill="#0847F7"/>
  <!-- r00t logo in header -->
  <g transform="translate(1120,8) scale(0.13)">
    <path d="M212.521332,290.474915 C216.026886,293.578308 219.322052,296.383972 222.522064,299.294250 C246.724380,321.305176 240.959717,358.669464 210.941635,374.454926 C184.330643,388.448761 150.493912,376.351196 139.356140,348.861145 C132.007019,330.722229 137.307526,309.935028 153.288895,297.728394 C170.754272,284.388275 178.548080,266.483978 179.853516,245.218597 C180.271378,238.411499 180.149384,231.556915 179.979416,224.731400 C179.704697,213.700165 172.631454,208.843750 162.525558,213.085983 C146.624115,219.761078 134.772034,230.160370 130.069855,247.764099 C126.775711,260.096527 115.278198,267.565643 103.298645,266.709991 C90.673042,265.808197 80.772224,257.257599 78.395973,245.203415 C74.986389,227.907440 90.072647,212.085281 108.328331,214.581711 C124.465866,216.788483 139.076263,213.570160 152.659683,204.883270 C153.640869,204.255783 154.628738,203.633926 155.570190,202.949844 C164.245544,196.646042 163.920959,190.078781 154.402817,185.055939 C137.097687,175.923828 119.010185,170.310944 99.227829,175.000275 C91.991035,176.715714 85.091179,179.956177 77.819023,181.399536 C55.177525,185.893356 31.899712,168.176132 29.194962,144.854752 C26.514469,121.742516 44.553093,100.230537 67.714584,98.918144 C88.774246,97.724846 105.761673,107.864021 111.662323,126.968140 C117.885674,147.117020 131.128784,160.201843 149.427246,169.064240 C154.202042,171.376785 159.109528,173.548019 164.161819,175.124847 C172.451981,177.712204 178.290359,174.859848 179.237686,166.384857 C181.245087,148.425873 182.133347,130.260727 170.344818,114.623222 C167.072876,110.282974 163.200592,106.232811 159.000763,102.783806 C144.013870,90.476219 138.468826,74.397957 143.906677,57.632801 C149.524445,40.312874 165.616028,28.091072 183.953751,27.216412 C207.676666,26.084894 226.928665,40.454231 231.303680,63.474380 C234.074249,78.052315 228.982788,90.655457 217.674240,100.003166 C206.274933,109.425880 196.693283,119.976334 194.869156,135.052124 C193.619614,145.379181 193.787811,155.994949 194.494431,166.402039 C194.999908,173.846878 201.256699,177.794769 208.152130,175.581558 C226.552719,169.675583 243.316544,160.954590 254.171051,144.101913 C257.272125,139.287231 259.372894,133.680283 261.141907,128.182297 C267.417511,108.678108 284.018829,97.648224 305.785278,98.942902 C324.215332,100.039116 340.923798,114.938301 343.780029,133.706451 C346.135376,149.183456 341.224304,162.574829 328.886292,172.352875 C316.618256,182.075439 302.077057,185.867691 287.615265,179.463058 C264.337555,169.154144 242.768265,173.267792 221.384979,183.860229 C209.065811,189.962646 208.936813,196.890152 220.388611,204.482590 C234.036942,213.531326 248.822662,216.926697 265.099243,214.557739 C276.897339,212.840607 287.793793,218.720581 292.972046,228.881821 C297.972198,238.693588 296.626465,249.794830 288.758881,258.007843 C281.872650,265.196381 273.243683,268.130188 263.297852,266.019073 C252.893829,263.810699 245.825165,257.388519 243.248672,247.271866 C238.614639,229.076233 225.831207,219.109482 209.658676,212.446274 C202.248154,209.393051 195.445404,212.720963 194.667419,220.562256 C192.436142,243.051636 192.932022,265.279205 207.353485,284.573975 C208.843903,286.568024 210.622177,288.346893 212.521332,290.474915z" fill="white"/>
  </g>
  <text x="30" y="28" fill="white" font-size="12" font-weight="400" letter-spacing="2.5">CHAINLINK CRE</text>
  <text x="30" y="54" fill="white" font-size="22" font-weight="700">Workflow 1 — Carbon Credit Verification</text>

  <g transform="translate(0,70)">
  <!-- CRE WORKFLOW BOX -->
  <rect x="30" y="30" width="385" height="640" rx="0" fill="#8AA6F9" fill-opacity="0.12" stroke="#0847F7" stroke-width="2"/>
  <rect x="30" y="30" width="385" height="52" fill="#0847F7"/>
  <g transform="translate(45,36) scale(0.14)">
    <path d="M123.5 0L0 70.9726V212.918L123.5 283.89L247 212.918V70.9726L123.5 0ZM194.679 182.837L123.523 223.728L52.3663 182.837V101.054L123.523 60.1621L194.679 101.054V182.837Z" fill="white"/>
  </g>
  <text x="92" y="63" fill="white" font-size="20" font-weight="600">CRE Workflow</text>

  <!-- Step 1: CRON Trigger -->
  <text x="118" y="130" fill="#6B7280" font-size="11" font-style="italic" text-anchor="end">every 5m</text>
  <rect x="125" y="106" width="210" height="36" rx="4" fill="white" stroke="#0847F7" stroke-width="1.5"/>
  <text x="230" y="130" text-anchor="middle" fill="#1a1a1a" font-size="14" font-weight="500">CRON Trigger</text>

  <line x1="230" y1="142" x2="230" y2="188" stroke="#0847F7" stroke-width="1.5" marker-end="url(#arrowDown)"/>

  <!-- Step 2: Chain Read -->
  <text x="118" y="220" fill="#6B7280" font-size="11" font-style="italic" text-anchor="end">proposals</text>
  <rect x="125" y="196" width="210" height="36" rx="4" fill="white" stroke="#0847F7" stroke-width="1.5"/>
  <text x="230" y="220" text-anchor="middle" fill="#1a1a1a" font-size="14" font-weight="500">Chain Read</text>

  <line x1="230" y1="232" x2="230" y2="278" stroke="#0847F7" stroke-width="1.5" marker-end="url(#arrowDown)"/>

  <!-- Step 3: HTTP Fetch -->
  <text x="118" y="310" fill="#6B7280" font-size="11" font-style="italic" text-anchor="end">registries</text>
  <rect x="125" y="286" width="210" height="36" rx="4" fill="white" stroke="#0847F7" stroke-width="1.5"/>
  <text x="230" y="310" text-anchor="middle" fill="#1a1a1a" font-size="14" font-weight="500">HTTP Fetch</text>

  <line x1="230" y1="322" x2="230" y2="368" stroke="#0847F7" stroke-width="1.5" marker-end="url(#arrowDown)"/>

  <!-- Step 4: Compute -->
  <text x="118" y="400" fill="#6B7280" font-size="11" font-style="italic" text-anchor="end">MRV compliance</text>
  <rect x="125" y="376" width="210" height="36" rx="4" fill="white" stroke="#0847F7" stroke-width="1.5"/>
  <text x="230" y="400" text-anchor="middle" fill="#1a1a1a" font-size="14" font-weight="500">Compute</text>

  <line x1="230" y1="412" x2="230" y2="458" stroke="#0847F7" stroke-width="1.5" marker-end="url(#arrowDown)"/>

  <!-- Step 5: Compute -->
  <text x="118" y="490" fill="#6B7280" font-size="11" font-style="italic" text-anchor="end">impact score</text>
  <rect x="125" y="466" width="210" height="36" rx="4" fill="white" stroke="#0847F7" stroke-width="1.5"/>
  <text x="230" y="490" text-anchor="middle" fill="#1a1a1a" font-size="14" font-weight="500">Compute</text>

  <line x1="230" y1="502" x2="230" y2="548" stroke="#0847F7" stroke-width="1.5" marker-end="url(#arrowDown)"/>

  <!-- Step 6: Chain Write -->
  <text x="118" y="580" fill="#6B7280" font-size="11" font-style="italic" text-anchor="end">attestation</text>
  <rect x="125" y="556" width="210" height="36" rx="4" fill="white" stroke="#0847F7" stroke-width="1.5"/>
  <text x="230" y="580" text-anchor="middle" fill="#1a1a1a" font-size="14" font-weight="500">Chain Write</text>

  <line x1="230" y1="592" x2="230" y2="640" stroke="#0847F7" stroke-width="1.5" stroke-dasharray="6,4" marker-end="url(#arrowDown)"/>

  <!-- CRE Forwarder: doc with fold + Chainlink badge -->
  <path d="M213,655 L249,655 L249,718 L201,718 L201,667 Z" fill="white" stroke="#1a1a1a" stroke-width="1.4" stroke-linejoin="round"/>
  <path d="M201,667 L213,667 L213,655" fill="#e5e7eb" stroke="#1a1a1a" stroke-width="1.2" stroke-linejoin="round"/>
  <text x="225" y="700" text-anchor="middle" fill="#1a1a1a" font-size="13">&lt;/&gt;</text>
  <circle cx="249" cy="655" r="14" fill="white" stroke="#1a1a1a" stroke-width="1.4"/>
  <g transform="translate(241,646) scale(0.065)">
    <path d="M123.5 0L0 70.9726V212.918L123.5 283.89L247 212.918V70.9726L123.5 0ZM194.679 182.837L123.523 223.728L52.3663 182.837V101.054L123.523 60.1621L194.679 101.054V182.837Z" fill="#0847F7"/>
  </g>
  <text x="230" y="738" text-anchor="middle" fill="#1a1a1a" font-size="13" font-weight="600">CRE Forwarder</text>

  <!-- CARBON REGISTRIES COMPARTMENT (off-chain HTTP) -->
  <rect x="490" y="248" width="180" height="85" rx="8" fill="#EFF6FF" fill-opacity="0.5" stroke="#0847F7" stroke-width="1.5" stroke-dasharray="6,4"/>
  <text x="510" y="270" fill="#0847F7" font-size="13" font-weight="600">Carbon Registries</text>
  <circle cx="510" cy="290" r="4" fill="#0847F7"/>
  <text x="522" y="294" fill="#1a1a1a" font-size="11">Verra VCS</text>
  <circle cx="510" cy="310" r="4" fill="#22C55E"/>
  <text x="522" y="314" fill="#1a1a1a" font-size="11">Gold Standard</text>

  <!-- EU CARBON MARKET COMPARTMENT (off-chain HTTP) -->
  <rect x="490" y="355" width="180" height="68" rx="8" fill="#EFF6FF" fill-opacity="0.5" stroke="#0847F7" stroke-width="1.5" stroke-dasharray="6,4"/>
  <text x="510" y="377" fill="#0847F7" font-size="13" font-weight="600">EU Carbon Market</text>
  <circle cx="510" cy="397" r="4" fill="#0847F7"/>
  <text x="522" y="401" fill="#1a1a1a" font-size="11">EU ETS</text>
  <circle cx="510" cy="417" r="4" fill="#22C55E"/>
  <text x="522" y="421" fill="#1a1a1a" font-size="11">SENDECO2</text>

  <!-- CHAIN REGION (on-chain, Tenderly testnet) -->
  <rect x="690" y="160" width="460" height="320" rx="8" fill="#F5F3FF" fill-opacity="0.35" stroke="#6837EE" stroke-width="2" stroke-dasharray="8,5"/>

  <!-- LaunchpadGovernance.sol (read) -->
  <rect x="830" y="200" width="260" height="80" rx="6" fill="white" stroke="#e5e7eb" stroke-width="1.5"/>
  <text x="950" y="225" text-anchor="middle" fill="#1a1a1a" font-size="14" font-weight="600">LaunchpadGovernance.sol</text>
  <g transform="translate(1056,207) scale(0.06)">
    <path d="M212.521332,290.474915 C216.026886,293.578308 219.322052,296.383972 222.522064,299.294250 C246.724380,321.305176 240.959717,358.669464 210.941635,374.454926 C184.330643,388.448761 150.493912,376.351196 139.356140,348.861145 C132.007019,330.722229 137.307526,309.935028 153.288895,297.728394 C170.754272,284.388275 178.548080,266.483978 179.853516,245.218597 C180.271378,238.411499 180.149384,231.556915 179.979416,224.731400 C179.704697,213.700165 172.631454,208.843750 162.525558,213.085983 C146.624115,219.761078 134.772034,230.160370 130.069855,247.764099 C126.775711,260.096527 115.278198,267.565643 103.298645,266.709991 C90.673042,265.808197 80.772224,257.257599 78.395973,245.203415 C74.986389,227.907440 90.072647,212.085281 108.328331,214.581711 C124.465866,216.788483 139.076263,213.570160 152.659683,204.883270 C153.640869,204.255783 154.628738,203.633926 155.570190,202.949844 C164.245544,196.646042 163.920959,190.078781 154.402817,185.055939 C137.097687,175.923828 119.010185,170.310944 99.227829,175.000275 C91.991035,176.715714 85.091179,179.956177 77.819023,181.399536 C55.177525,185.893356 31.899712,168.176132 29.194962,144.854752 C26.514469,121.742516 44.553093,100.230537 67.714584,98.918144 C88.774246,97.724846 105.761673,107.864021 111.662323,126.968140 C117.885674,147.117020 131.128784,160.201843 149.427246,169.064240 C154.202042,171.376785 159.109528,173.548019 164.161819,175.124847 C172.451981,177.712204 178.290359,174.859848 179.237686,166.384857 C181.245087,148.425873 182.133347,130.260727 170.344818,114.623222 C167.072876,110.282974 163.200592,106.232811 159.000763,102.783806 C144.013870,90.476219 138.468826,74.397957 143.906677,57.632801 C149.524445,40.312874 165.616028,28.091072 183.953751,27.216412 C207.676666,26.084894 226.928665,40.454231 231.303680,63.474380 C234.074249,78.052315 228.982788,90.655457 217.674240,100.003166 C206.274933,109.425880 196.693283,119.976334 194.869156,135.052124 C193.619614,145.379181 193.787811,155.994949 194.494431,166.402039 C194.999908,173.846878 201.256699,177.794769 208.152130,175.581558 C226.552719,169.675583 243.316544,160.954590 254.171051,144.101913 C257.272125,139.287231 259.372894,133.680283 261.141907,128.182297 C267.417511,108.678108 284.018829,97.648224 305.785278,98.942902 C324.215332,100.039116 340.923798,114.938301 343.780029,133.706451 C346.135376,149.183456 341.224304,162.574829 328.886292,172.352875 C316.618256,182.075439 302.077057,185.867691 287.615265,179.463058 C264.337555,169.154144 242.768265,173.267792 221.384979,183.860229 C209.065811,189.962646 208.936813,196.890152 220.388611,204.482590 C234.036942,213.531326 248.822662,216.926697 265.099243,214.557739 C276.897339,212.840607 287.793793,218.720581 292.972046,228.881821 C297.972198,238.693588 296.626465,249.794830 288.758881,258.007843 C281.872650,265.196381 273.243683,268.130188 263.297852,266.019073 C252.893829,263.810699 245.825165,257.388519 243.248672,247.271866 C238.614639,229.076233 225.831207,219.109482 209.658676,212.446274 C202.248154,209.393051 195.445404,212.720963 194.667419,220.562256 C192.436142,243.051636 192.932022,265.279205 207.353485,284.573975 C208.843903,286.568024 210.622177,288.346893 212.521332,290.474915z" fill="#1a1a1a"/>
  </g>
  <rect x="843" y="238" width="215" height="26" rx="4" fill="#1a1a1a"/>
  <text x="950" y="256" text-anchor="middle" fill="white" font-size="10" font-weight="500">proposalCount() / getProposal()</text>
  <!-- Doc icon for LaunchpadGovernance -->
  <path d="M755,207 L795,207 L795,272 L740,272 L740,221 Z" fill="white" stroke="#1a1a1a" stroke-width="1.2" stroke-linejoin="round"/>
  <path d="M740,221 L755,221 L755,207" fill="#e5e7eb" stroke="#1a1a1a" stroke-width="1.0" stroke-linejoin="round"/>
  <text x="767" y="253" text-anchor="middle" fill="#1a1a1a" font-size="12">&lt;/&gt;</text>
  <line x1="827" y1="240" x2="800" y2="240" stroke="#1a1a1a" stroke-width="1.2" marker-end="url(#arrowLeft)"/>

  <!-- ConfidentialFundingVault.sol (write) -->
  <rect x="830" y="370" width="260" height="80" rx="6" fill="white" stroke="#e5e7eb" stroke-width="1.5"/>
  <text x="950" y="395" text-anchor="middle" fill="#1a1a1a" font-size="14" font-weight="600">ConfidentialFundingVault.sol</text>
  <g transform="translate(1056,377) scale(0.06)">
    <path d="M212.521332,290.474915 C216.026886,293.578308 219.322052,296.383972 222.522064,299.294250 C246.724380,321.305176 240.959717,358.669464 210.941635,374.454926 C184.330643,388.448761 150.493912,376.351196 139.356140,348.861145 C132.007019,330.722229 137.307526,309.935028 153.288895,297.728394 C170.754272,284.388275 178.548080,266.483978 179.853516,245.218597 C180.271378,238.411499 180.149384,231.556915 179.979416,224.731400 C179.704697,213.700165 172.631454,208.843750 162.525558,213.085983 C146.624115,219.761078 134.772034,230.160370 130.069855,247.764099 C126.775711,260.096527 115.278198,267.565643 103.298645,266.709991 C90.673042,265.808197 80.772224,257.257599 78.395973,245.203415 C74.986389,227.907440 90.072647,212.085281 108.328331,214.581711 C124.465866,216.788483 139.076263,213.570160 152.659683,204.883270 C153.640869,204.255783 154.628738,203.633926 155.570190,202.949844 C164.245544,196.646042 163.920959,190.078781 154.402817,185.055939 C137.097687,175.923828 119.010185,170.310944 99.227829,175.000275 C91.991035,176.715714 85.091179,179.956177 77.819023,181.399536 C55.177525,185.893356 31.899712,168.176132 29.194962,144.854752 C26.514469,121.742516 44.553093,100.230537 67.714584,98.918144 C88.774246,97.724846 105.761673,107.864021 111.662323,126.968140 C117.885674,147.117020 131.128784,160.201843 149.427246,169.064240 C154.202042,171.376785 159.109528,173.548019 164.161819,175.124847 C172.451981,177.712204 178.290359,174.859848 179.237686,166.384857 C181.245087,148.425873 182.133347,130.260727 170.344818,114.623222 C167.072876,110.282974 163.200592,106.232811 159.000763,102.783806 C144.013870,90.476219 138.468826,74.397957 143.906677,57.632801 C149.524445,40.312874 165.616028,28.091072 183.953751,27.216412 C207.676666,26.084894 226.928665,40.454231 231.303680,63.474380 C234.074249,78.052315 228.982788,90.655457 217.674240,100.003166 C206.274933,109.425880 196.693283,119.976334 194.869156,135.052124 C193.619614,145.379181 193.787811,155.994949 194.494431,166.402039 C194.999908,173.846878 201.256699,177.794769 208.152130,175.581558 C226.552719,169.675583 243.316544,160.954590 254.171051,144.101913 C257.272125,139.287231 259.372894,133.680283 261.141907,128.182297 C267.417511,108.678108 284.018829,97.648224 305.785278,98.942902 C324.215332,100.039116 340.923798,114.938301 343.780029,133.706451 C346.135376,149.183456 341.224304,162.574829 328.886292,172.352875 C316.618256,182.075439 302.077057,185.867691 287.615265,179.463058 C264.337555,169.154144 242.768265,173.267792 221.384979,183.860229 C209.065811,189.962646 208.936813,196.890152 220.388611,204.482590 C234.036942,213.531326 248.822662,216.926697 265.099243,214.557739 C276.897339,212.840607 287.793793,218.720581 292.972046,228.881821 C297.972198,238.693588 296.626465,249.794830 288.758881,258.007843 C281.872650,265.196381 273.243683,268.130188 263.297852,266.019073 C252.893829,263.810699 245.825165,257.388519 243.248672,247.271866 C238.614639,229.076233 225.831207,219.109482 209.658676,212.446274 C202.248154,209.393051 195.445404,212.720963 194.667419,220.562256 C192.436142,243.051636 192.932022,265.279205 207.353485,284.573975 C208.843903,286.568024 210.622177,288.346893 212.521332,290.474915z" fill="#1a1a1a"/>
  </g>
  <rect x="910" y="408" width="130" height="26" rx="4" fill="#1a1a1a"/>
  <text x="975" y="426" text-anchor="middle" fill="white" font-size="10" font-weight="500">receiveReport()</text>
  <!-- Doc icon for ConfidentialFundingVault -->
  <path d="M755,377 L795,377 L795,442 L740,442 L740,391 Z" fill="white" stroke="#1a1a1a" stroke-width="1.2" stroke-linejoin="round"/>
  <path d="M740,391 L755,391 L755,377" fill="#e5e7eb" stroke="#1a1a1a" stroke-width="1.0" stroke-linejoin="round"/>
  <text x="767" y="423" text-anchor="middle" fill="#1a1a1a" font-size="12">&lt;/&gt;</text>
  <line x1="798" y1="410" x2="825" y2="410" stroke="#1a1a1a" stroke-width="1.2" marker-end="url(#arrowRight)"/>

  <!-- CONNECTION PATHS -->
  <!-- LaunchpadGovernance doc to Chain Read step -->
  <path d="M735,214 L340,214" fill="none" stroke="#1a1a1a" stroke-width="1.2" marker-end="url(#arrowLeft)"/>
  <!-- Carbon Registries to HTTP Fetch step -->
  <path d="M485,290 L460,290 L460,298 L340,298" fill="none" stroke="#1a1a1a" stroke-width="1.2" marker-end="url(#arrowLeft)"/>
  <!-- EU Carbon Market to HTTP Fetch step -->
  <path d="M485,397 L460,397 L460,310 L340,310" fill="none" stroke="#1a1a1a" stroke-width="1.2" marker-end="url(#arrowLeft)"/>
  <!-- CRE Forwarder to ConfidentialFundingVault doc (routed below compartments) -->
  <path d="M265,680 L460,680 L460,440 L680,440 L680,410 L735,410" fill="none" stroke="#1a1a1a" stroke-width="1.2" marker-end="url(#arrowRight)"/>

  <!-- Tenderly full logo -->
  <g transform="translate(725,500) scale(0.13)">
    <path d="M174.71,239.01v107.34l-88.28-49.28v-83.15c-.03-56.72-17.73-91.51-40.1-117.23C23.97,70.98.32,51.19.32,51.19l93.59,54.04c26.71,15.31,80.77,61.1,80.8,133.78Z" fill="#6837ee"/>
    <path d="M93.91,105.24L.32,51.19,87.5,0l71.97,41.94c49.1,28.58,88.15,30.89,121.69,24.59,33.53-6.3,65.51-16.16,65.51-16.16l-94.15,52.91c-26.72,15.29-95.69,38.59-158.61,1.96Z" fill="#cfc0ff"/>
    <path d="M252.52,103.27l94.15-52.91v100.92l-72.52,40.99c-49.45,27.98-71.07,60.5-82.47,92.59-11.4,32.08-16.97,61.49-16.97,61.49v-107.34c.18-30.73,14.44-99.88,77.81-135.74Z" fill="#9273ff"/>
    <path d="M533.85,131.95h-33.4v53.79c0,18.62,7.39,23.64,33.4,20.39v33.4c-45.22,10.93-73.29-5.02-73.29-51.72v-55.86h-22.17v-30.74h22.17v-35.17h39.9v35.17h33.4v30.74Z" fill="#191919"/>
    <path d="M683.68,181.89h-99.89c2.95,16.25,12.12,29.26,31.03,29.26,15.37,0,23.05-8.27,26.6-17.14h40.19c-7.68,33.99-35.17,49.95-67.09,49.95-36.35,0-71.82-21.57-71.82-74.18s35.76-73.29,71.52-73.29,73.59,22.76,69.45,85.41ZM583.79,158.25h59.99c-2.95-18.03-12.41-28.96-29.85-28.96s-27.19,12.41-30.14,28.96Z" fill="#191919"/>
    <path d="M827.6,150.27v88.96h-39.9v-79.21c0-17.73-7.98-27.49-23.94-27.49s-24.53,10.93-24.53,27.49v79.21h-39.9V101.21h39.9v18.91c5.61-9.16,19.5-23.05,42.26-23.05,30.74,0,46.1,20.98,46.1,53.2Z" fill="#191919"/>
    <path d="M942.85,59.83h40.19v179.39h-39.9v-15.07c-9.46,12.12-24.23,19.21-41.67,19.21-33.99,0-58.52-25.71-58.52-73s24.53-73.29,58.52-73.29c17.44,0,31.92,7.09,41.38,19.21v-56.45ZM945.51,170.37c0-21.87-9.46-39.6-31.33-39.6s-30.44,16.26-30.44,39.6,8.87,39.31,30.44,39.31,31.33-17.44,31.33-39.31Z" fill="#191919"/>
    <path d="M1139.08,181.89h-99.89c2.95,16.25,12.12,29.26,31.03,29.26,15.37,0,23.05-8.27,26.6-17.14h40.19c-7.68,33.99-35.17,49.95-67.09,49.95-36.35,0-71.82-21.57-71.82-74.18s35.76-73.29,71.52-73.29,73.59,22.76,69.45,85.41ZM1039.19,158.25h59.99c-2.95-18.03-12.41-28.96-29.85-28.96s-27.19,12.41-30.14,28.96Z" fill="#191919"/>
    <path d="M1194.33,125.15c11.23-23.64,27.19-31.92,51.72-26.6v41.67h-1.18c-25.12-10.64-50.24,2.66-50.24,34.87v64.13h-39.9V101.21h39.6v23.94Z" fill="#191919"/>
    <path d="M1258.16,239.23V59.54h39.9v179.69h-39.9Z" fill="#191919"/>
    <path d="M1410.95,101.21h43.15l-69.75,185.6h-43.74l20.1-45.51-52.61-140.08h43.15l29.55,94.87,30.14-94.87Z" fill="#191919"/>
  </g>
  <text x="835" y="558" text-anchor="middle" fill="#191919" font-size="15" font-weight="600">Custom Testnet</text>
  </g>
</svg>
